<svg width="21" height="21" viewBox="0 0 21 21" fill="none" xmlns="http://www.w3.org/2000/svg">
<mask id="path-1-inside-1_388_1238" fill="white">
<path fill-rule="evenodd" clip-rule="evenodd" d="M10.8155 20.1876C16.2882 20.1876 20.7247 15.7511 20.7247 10.2784C20.7247 4.80565 16.2882 0.369141 10.8155 0.369141C5.34276 0.369141 0.90625 4.80565 0.90625 10.2784C0.90625 12.2056 1.45645 14.0044 2.40834 15.5261L1.43587 18.5439C1.20696 19.2542 1.85416 19.9366 2.57561 19.7457L5.87766 18.8716C7.33137 19.7087 9.0175 20.1876 10.8155 20.1876Z"/>
</mask>
<path d="M2.40834 15.5261L3.75571 15.9603C3.88376 15.563 3.82989 15.1293 3.60849 14.7754L2.40834 15.5261ZM1.43587 18.5439L2.78324 18.9781L1.43587 18.5439ZM2.57561 19.7457L2.21337 18.3772H2.21337L2.57561 19.7457ZM5.87766 18.8716L6.58409 17.6449C6.2605 17.4585 5.87639 17.4076 5.51542 17.5031L5.87766 18.8716ZM19.3091 10.2784C19.3091 14.9692 15.5064 18.772 10.8155 18.772V21.6032C17.07 21.6032 22.1403 16.5329 22.1403 10.2784H19.3091ZM10.8155 1.78474C15.5064 1.78474 19.3091 5.58746 19.3091 10.2784H22.1403C22.1403 4.02383 17.07 -1.04646 10.8155 -1.04646V1.78474ZM2.32185 10.2784C2.32185 5.58746 6.12457 1.78474 10.8155 1.78474V-1.04646C4.56094 -1.04646 -0.509352 4.02383 -0.509352 10.2784H2.32185ZM3.60849 14.7754C2.79328 13.4722 2.32185 11.9325 2.32185 10.2784H-0.509352C-0.509352 12.4788 0.119618 14.5366 1.2082 16.2769L3.60849 14.7754ZM2.78324 18.9781L3.75571 15.9603L1.06097 15.0919L0.0884976 18.1097L2.78324 18.9781ZM2.21337 18.3772C2.57409 18.2817 2.89769 18.6229 2.78324 18.9781L0.0884976 18.1097C-0.483763 19.8855 1.13422 21.5916 2.93785 21.1141L2.21337 18.3772ZM5.51542 17.5031L2.21337 18.3772L2.93785 21.1141L6.2399 20.2401L5.51542 17.5031ZM10.8155 18.772C9.27199 18.772 7.82866 18.3616 6.58409 17.6449L5.17123 20.0983C6.83408 21.0559 8.763 21.6032 10.8155 21.6032V18.772Z" fill="#232323" mask="url(#path-1-inside-1_388_1238)"/>
<circle cx="7.20714" cy="10.4454" r="1.58214" fill="#232323"/>
<circle cx="11.4259" cy="10.4454" r="1.58214" fill="#232323"/>
<circle cx="15.6446" cy="10.4454" r="1.58214" fill="#232323"/>
</svg>
