<svg width="104" height="156" viewBox="0 0 104 156" fill="none" xmlns="http://www.w3.org/2000/svg">
<g opacity="0.3">
<g filter="url(#filter0_d_332_1522)">
<path d="M80.0187 133.228H-25.4812C-28.7744 133.228 -31.4687 130.517 -31.4687 127.203L-31.4687 60.4708C-31.4687 57.1568 -28.7744 54.4453 -25.4812 54.4453H80.0187C83.3118 54.4453 86.0062 57.1568 86.0062 60.4708L86.0062 127.173C86.0062 130.517 83.3118 133.228 80.0187 133.228Z" fill="#E2D8FF"/>
<path d="M29.0949 83.4876L86.0062 127.235C86.0062 130.531 83.3118 133.227 80.0187 133.227H-25.4812C-28.7744 133.227 -31.4687 130.531 -31.4687 127.235L25.4425 83.4876C26.5203 82.6786 28.0172 82.6786 29.0949 83.4876Z" fill="#CEBEFF"/>
<path d="M29.0946 14.0228L83.5537 55.7617C85.0997 56.9466 86.1884 58.9006 85.2203 60.5885C84.1866 62.3907 82.2385 63.6121 80.0183 63.6121L-25.4816 63.612C-27.7014 63.612 -29.6491 62.3912 -30.6829 60.5896C-31.6518 58.9013 -30.5623 56.9465 -29.0153 55.7617L25.4422 14.0526C26.5199 13.2167 28.0168 13.2167 29.0946 14.0228Z" fill="url(#paint0_linear_332_1522)"/>
<path d="M25.4425 104.19L-31.4688 60.5721C-31.4687 57.288 -28.7744 54.6011 -25.4812 54.6011L80.0187 54.6011C83.3118 54.6011 86.0062 57.2881 86.0062 60.5721L29.0949 104.161C28.0172 104.996 26.5203 104.996 25.4425 104.19Z" fill="url(#paint1_linear_332_1522)"/>
</g>
<path d="M71.5542 28.8047V71.9115L29.7439 104.103C28.1471 105.333 25.9227 105.333 24.326 104.103L-17.4844 71.9115V28.8047H71.5542Z" fill="white"/>
<g filter="url(#filter1_d_332_1522)">
<path d="M12.663 76.8203H41.8764C45.9099 76.8203 49.1797 73.5107 49.1797 69.4282L49.1797 49.7158C49.1797 45.6333 45.9099 42.3237 41.8764 42.3237L12.663 42.3237C8.62948 42.3237 5.35966 45.6333 5.35966 49.7158L5.35966 69.4282C5.35966 73.5107 8.62948 76.8203 12.663 76.8203Z" fill="url(#paint2_linear_332_1522)"/>
</g>
<path d="M24.6464 67.0301C24.3323 67.032 24.0209 66.9674 23.7301 66.8399C23.4393 66.7124 23.1748 66.5245 22.9518 66.287L18.1785 61.1627C17.729 60.6802 17.4766 60.0258 17.4766 59.3435C17.4766 58.6612 17.729 58.0068 18.1785 57.5244C18.6279 57.0419 19.2374 56.7709 19.873 56.7709C20.5086 56.7709 21.1181 57.0419 21.5676 57.5244L24.6464 60.8552L32.4986 52.4C32.948 51.9175 33.5575 51.6465 34.1931 51.6465C34.8287 51.6465 35.4382 51.9175 35.8876 52.4C36.3371 52.8825 36.5896 53.5368 36.5896 54.2192C36.5896 54.9015 36.3371 55.5558 35.8876 56.0383L26.3409 66.287C26.1179 66.5245 25.8534 66.7124 25.5626 66.8399C25.2718 66.9674 24.9605 67.032 24.6464 67.0301Z" fill="white"/>
</g>
<defs>
<filter id="filter0_d_332_1522" x="-49.2304" y="0.100646" width="153" height="155.33" filterUnits="userSpaceOnUse" color-interpolation-filters="sRGB">
<feFlood flood-opacity="0" result="BackgroundImageFix"/>
<feColorMatrix in="SourceAlpha" type="matrix" values="0 0 0 0 0 0 0 0 0 0 0 0 0 0 0 0 0 0 127 0" result="hardAlpha"/>
<feOffset dy="4.44041"/>
<feGaussianBlur stdDeviation="8.88082"/>
<feComposite in2="hardAlpha" operator="out"/>
<feColorMatrix type="matrix" values="0 0 0 0 0.32549 0 0 0 0 0.129412 0 0 0 0 0.933333 0 0 0 0.31 0"/>
<feBlend mode="normal" in2="BackgroundImageFix" result="effect1_dropShadow_332_1522"/>
<feBlend mode="normal" in="SourceGraphic" in2="effect1_dropShadow_332_1522" result="shape"/>
</filter>
<filter id="filter1_d_332_1522" x="-5.29761" y="31.6672" width="66.9104" height="57.5862" filterUnits="userSpaceOnUse" color-interpolation-filters="sRGB">
<feFlood flood-opacity="0" result="BackgroundImageFix"/>
<feColorMatrix in="SourceAlpha" type="matrix" values="0 0 0 0 0 0 0 0 0 0 0 0 0 0 0 0 0 0 127 0" result="hardAlpha"/>
<feOffset dx="0.888082" dy="0.888082"/>
<feGaussianBlur stdDeviation="5.77253"/>
<feComposite in2="hardAlpha" operator="out"/>
<feColorMatrix type="matrix" values="0 0 0 0 0.937255 0 0 0 0 0.419608 0 0 0 0 0.74902 0 0 0 1 0"/>
<feBlend mode="normal" in2="BackgroundImageFix" result="effect1_dropShadow_332_1522"/>
<feBlend mode="normal" in="SourceGraphic" in2="effect1_dropShadow_332_1522" result="shape"/>
</filter>
<linearGradient id="paint0_linear_332_1522" x1="-59.4307" y1="38.2252" x2="89.1799" y2="53.4793" gradientUnits="userSpaceOnUse">
<stop stop-color="#CEBEFF"/>
<stop offset="1" stop-color="#F7F7F7"/>
</linearGradient>
<linearGradient id="paint1_linear_332_1522" x1="-59.4307" y1="38.2252" x2="89.1799" y2="53.4793" gradientUnits="userSpaceOnUse">
<stop stop-color="#CEBEFF"/>
<stop offset="1" stop-color="#F7F7F7"/>
</linearGradient>
<linearGradient id="paint2_linear_332_1522" x1="5.35966" y1="42.3237" x2="50.4717" y2="42.3237" gradientUnits="userSpaceOnUse">
<stop offset="0.149245" stop-color="#FFA140"/>
<stop offset="1" stop-color="#EA5CE2"/>
</linearGradient>
</defs>
</svg>
