<svg width="21" height="21" viewBox="0 0 21 21" fill="none" xmlns="http://www.w3.org/2000/svg">
<circle cx="10.3077" cy="10.2784" r="9.16603" stroke="#232323" stroke-width="1.48638"/>
<path d="M15.7704 5.22145C15.6887 5.14016 15.5794 5.09259 15.4642 5.08822C15.3491 5.08384 15.2364 5.12299 15.1488 5.19786L10.2177 9.41635C10.1029 9.51318 10.0096 9.63303 9.9439 9.76808C9.87824 9.90322 9.84167 10.0506 9.83656 10.2008C9.83144 10.3509 9.85791 10.5005 9.91423 10.6397C9.97055 10.779 10.0555 10.9049 10.1635 11.0093C10.2716 11.1137 10.4003 11.1943 10.5414 11.2458C10.6826 11.2972 10.8329 11.3185 10.9828 11.3083C11.1326 11.2981 11.2787 11.2564 11.4115 11.1861C11.5443 11.1159 11.6609 11.0185 11.7536 10.9004L15.8047 5.83134C15.8751 5.74312 15.9106 5.63201 15.9043 5.51926C15.8979 5.40652 15.8503 5.30007 15.7704 5.22027V5.22145Z" fill="#232323"/>
<path d="M10.3047 3.67188L10.3047 5.04029" stroke="#232323" stroke-width="1.48638" stroke-linecap="round"/>
<path d="M10.3047 15.5156L10.3047 16.884" stroke="#232323" stroke-width="1.48638" stroke-linecap="round"/>
<path d="M5.6875 5.55273L6.64387 6.53147" stroke="#232323" stroke-width="1.48638" stroke-linecap="round"/>
<path d="M13.9688 14.0254L14.9251 15.0041" stroke="#232323" stroke-width="1.48638" stroke-linecap="round"/>
<path d="M5.41406 14.7148L6.42801 13.7959" stroke="#232323" stroke-width="1.48638" stroke-linecap="round"/>
<path d="M16.9141 10.2773L15.5456 10.2774" stroke="#232323" stroke-width="1.48638" stroke-linecap="round"/>
<path d="M5.07031 10.2773L3.7019 10.2774" stroke="#232323" stroke-width="1.48638" stroke-linecap="round"/>
</svg>
