<svg width="21" height="21" viewBox="0 0 21 21" fill="none" xmlns="http://www.w3.org/2000/svg">
<circle cx="10.6202" cy="10.2784" r="9.16603" stroke="#232323" stroke-width="1.48638"/>
<path d="M17.5602 11.2692C17.5602 10.2281 17.3551 9.19729 16.9567 8.2355C16.5584 7.2737 15.9744 6.3998 15.2383 5.66367C14.5022 4.92755 13.6283 4.34362 12.6665 3.94523C11.7047 3.54684 10.6738 3.3418 9.63281 3.3418" stroke="#232323" stroke-width="1.48638" stroke-linecap="round"/>
<path d="M14.5874 11.2691C14.5874 10.6184 14.4593 9.97414 14.2103 9.37301C13.9613 8.77189 13.5963 8.2257 13.1362 7.76562C12.6762 7.30555 12.13 6.94059 11.5289 6.6916C10.9277 6.44261 10.2835 6.31445 9.63281 6.31445" stroke="#232323" stroke-width="1.48638" stroke-linecap="round"/>
<path d="M11.6147 11.269C11.6147 11.0087 11.5634 10.751 11.4638 10.5105C11.3642 10.2701 11.2182 10.0516 11.0342 9.86758C10.8502 9.68355 10.6317 9.53757 10.3912 9.43797C10.1508 9.33837 9.89307 9.28711 9.63281 9.28711" stroke="#232323" stroke-width="1.48638" stroke-linecap="round"/>
</svg>
