<svg width="46" height="46" viewBox="0 0 46 46" fill="none" xmlns="http://www.w3.org/2000/svg">
<circle cx="22.6953" cy="22.9883" r="22.5" fill="url(#paint0_linear_332_1093)"/>
<g filter="url(#filter0_d_332_1093)">
<path fill-rule="evenodd" clip-rule="evenodd" d="M22.4077 33.1496C22.4986 33.1892 22.5953 33.2083 22.6921 33.2083C22.7888 33.2083 22.8855 33.1892 22.9764 33.1511C23.3252 33.0045 31.4857 29.4768 31.4857 22.269V16.1442C31.4857 15.8291 31.2849 15.5492 30.9874 15.4495L22.9265 12.7279C22.7756 12.6766 22.61 12.6766 22.4576 12.7279L14.3967 15.4495C14.0992 15.5507 13.8984 15.8306 13.8984 16.1442V22.269C13.8984 29.4768 22.0589 33.0045 22.4077 33.1496ZM19.5553 21.5931L21.6228 23.4468L25.9004 19.383L27.3976 20.8802L21.6228 26.5837L17.9868 23.1616L19.5553 21.5931Z" fill="white"/>
</g>
<defs>
<filter id="filter0_d_332_1093" x="11.8984" y="11.6895" width="21.5859" height="24.5195" filterUnits="userSpaceOnUse" color-interpolation-filters="sRGB">
<feFlood flood-opacity="0" result="BackgroundImageFix"/>
<feColorMatrix in="SourceAlpha" type="matrix" values="0 0 0 0 0 0 0 0 0 0 0 0 0 0 0 0 0 0 127 0" result="hardAlpha"/>
<feOffset dy="1"/>
<feGaussianBlur stdDeviation="1"/>
<feComposite in2="hardAlpha" operator="out"/>
<feColorMatrix type="matrix" values="0 0 0 0 0 0 0 0 0 0 0 0 0 0 0 0 0 0 0.1 0"/>
<feBlend mode="normal" in2="BackgroundImageFix" result="effect1_dropShadow_332_1093"/>
<feBlend mode="normal" in="SourceGraphic" in2="effect1_dropShadow_332_1093" result="shape"/>
</filter>
<linearGradient id="paint0_linear_332_1093" x1="45.1953" y1="45.4883" x2="-1.13147" y2="45.4883" gradientUnits="userSpaceOnUse">
<stop offset="0.149245" stop-color="#FFA140"/>
<stop offset="1" stop-color="#EA5CE2"/>
</linearGradient>
</defs>
</svg>
