<svg width="46" height="46" viewBox="0 0 46 46" fill="none" xmlns="http://www.w3.org/2000/svg">
<circle cx="22.6562" cy="22.9883" r="22.5" fill="url(#paint0_linear_332_1109)"/>
<g filter="url(#filter0_d_332_1109)">
<path d="M22.2959 12.1616C22.4437 11.8633 22.8692 11.8633 23.017 12.1616L25.9656 18.1162C26.0242 18.2345 26.1371 18.3165 26.2677 18.3357L32.842 19.2999C33.1714 19.3482 33.3029 19.7529 33.0648 19.9857L28.3129 24.63C28.2185 24.7223 28.1753 24.855 28.1975 24.9852L29.312 31.5357C29.3678 31.8639 29.0236 32.114 28.7287 31.9595L22.8432 28.8753C22.7262 28.814 22.5867 28.814 22.4697 28.8753L16.5842 31.9595C16.2893 32.114 15.9451 31.8639 16.0009 31.5357L17.1154 24.9852C17.1376 24.855 17.0944 24.7223 17 24.63L12.2481 19.9857C12.01 19.7529 12.1415 19.3482 12.4709 19.2999L19.0452 18.3357C19.1758 18.3165 19.2887 18.2345 19.3473 18.1162L22.2959 12.1616Z" fill="white"/>
</g>
<defs>
<filter id="filter0_d_332_1109" x="10.125" y="10.9375" width="25.0625" height="24.0684" filterUnits="userSpaceOnUse" color-interpolation-filters="sRGB">
<feFlood flood-opacity="0" result="BackgroundImageFix"/>
<feColorMatrix in="SourceAlpha" type="matrix" values="0 0 0 0 0 0 0 0 0 0 0 0 0 0 0 0 0 0 127 0" result="hardAlpha"/>
<feOffset dy="1"/>
<feGaussianBlur stdDeviation="1"/>
<feComposite in2="hardAlpha" operator="out"/>
<feColorMatrix type="matrix" values="0 0 0 0 0 0 0 0 0 0 0 0 0 0 0 0 0 0 0.1 0"/>
<feBlend mode="normal" in2="BackgroundImageFix" result="effect1_dropShadow_332_1109"/>
<feBlend mode="normal" in="SourceGraphic" in2="effect1_dropShadow_332_1109" result="shape"/>
</filter>
<linearGradient id="paint0_linear_332_1109" x1="45.1562" y1="45.4883" x2="-1.17053" y2="45.4883" gradientUnits="userSpaceOnUse">
<stop offset="0.149245" stop-color="#FFA140"/>
<stop offset="1" stop-color="#EA5CE2"/>
</linearGradient>
</defs>
</svg>
