<svg width="16" height="20" viewBox="0 0 16 20" fill="none" xmlns="http://www.w3.org/2000/svg">
<path d="M8.08181 1.99616C6.43928 1.99616 4.86398 2.64866 3.70252 3.81012C2.54106 4.97158 1.88855 6.54687 1.88855 8.18942V9.42807H3.12721C3.45571 9.42807 3.77078 9.55854 4.00307 9.79083C4.23535 10.0231 4.36586 10.3382 4.36586 10.6667V14.3827C4.36586 14.7112 4.23535 15.0263 4.00307 15.2586C3.77078 15.4909 3.45571 15.6213 3.12721 15.6213H1.88855C1.56005 15.6213 1.24498 15.4909 1.0127 15.2586C0.780407 15.0263 0.649902 14.7112 0.649902 14.3827V8.18942C0.649902 7.21344 0.842133 6.24703 1.21562 5.34535C1.58911 4.44367 2.13654 3.62438 2.82666 2.93426C3.51678 2.24415 4.33606 1.69672 5.23775 1.32323C6.13943 0.949739 7.10584 0.757507 8.08181 0.757507C9.05779 0.757507 10.0242 0.949739 10.9259 1.32323C11.8276 1.69672 12.6468 2.24415 13.337 2.93426C14.0271 3.62438 14.5745 4.44367 14.948 5.34535C15.3215 6.24703 15.5137 7.21344 15.5137 8.18942V15.6213C15.5137 16.4426 15.1875 17.2303 14.6067 17.8109C14.026 18.3917 13.2384 18.718 12.4171 18.718H9.77381C9.66514 18.9062 9.50874 19.0626 9.32047 19.1713C9.13219 19.2801 8.91856 19.3373 8.70114 19.3373H7.46249C7.134 19.3373 6.81888 19.2068 6.5866 18.9745C6.35434 18.7422 6.22384 18.4271 6.22384 18.0986C6.22384 17.7701 6.35434 17.455 6.5866 17.2227C6.81888 16.9905 7.134 16.86 7.46249 16.86H8.70114C8.91856 16.86 9.13219 16.9172 9.32047 17.026C9.50874 17.1346 9.66514 17.291 9.77381 17.4793H12.4171C12.9098 17.4793 13.3824 17.2835 13.7309 16.9351C14.0793 16.5867 14.2751 16.1141 14.2751 15.6213H13.0364C12.7079 15.6213 12.3928 15.4909 12.1605 15.2586C11.9282 15.0263 11.7978 14.7112 11.7978 14.3827V10.6667C11.7978 10.3382 11.9282 10.0231 12.1605 9.79083C12.3928 9.55854 12.7079 9.42807 13.0364 9.42807H14.2751V8.18942C14.2751 7.37611 14.1149 6.57077 13.8036 5.81936C13.4924 5.06796 13.0362 4.38522 12.4611 3.81012C11.886 3.23503 11.2033 2.77883 10.4518 2.46759C9.70048 2.15635 8.89511 1.99616 8.08181 1.99616Z" fill="#232323"/>
</svg>
