<svg width="142" height="51" viewBox="0 0 142 51" fill="none" xmlns="http://www.w3.org/2000/svg">
<path d="M26.9733 3.72629C26.9733 3.72629 17.0481 13.7621 16.7956 18.2239C16.6556 20.8594 20.1196 25.1371 20.9928 26.1777C20.7032 25.7232 20.4085 25.2068 20.5248 24.9536C20.9461 24.1968 25.0403 23.803 29.022 23.803C29.7795 15.6158 29.4989 4.03376 26.9733 3.72629ZM23.7504 1.34199C23.7504 1.34199 7.79408 -1.15098 3.83984 2.49259C-0.0862665 6.13616 -1.01186 34.1246 3.83984 35.2745C6.30788 35.8632 11.1589 36.0595 15.4494 35.8914C15.6738 31.0972 16.375 26.7773 17.2725 27.0017C17.5921 27.1136 17.9341 27.3769 18.8648 28.1248C15.8643 24.8437 12.9539 21.2532 13.1757 18.2245C13.5707 12.5872 22.8248 5.96869 23.7504 1.34199Z" fill="url(#paint0_linear_332_1211)"/>
<path d="M35.806 24.3019C34.3198 23.965 31.6837 23.7969 29.02 23.7969C28.8231 25.928 28.6275 27.5549 28.4032 28.7604L28.2344 29.5179C28.2106 29.6887 28.1732 29.8574 28.1225 30.0223V30.0504C27.9819 30.5273 27.8419 30.9197 27.7301 31.201L27.7019 31.2291C27.6348 31.3933 27.5399 31.5447 27.4213 31.6766C27.3896 31.7363 27.3409 31.7852 27.2813 31.8172C27.057 32.0416 26.7763 32.0729 26.4682 32.0135C26.2995 31.9572 26.0751 31.8172 25.8233 31.5928C27.4213 33.584 28.7956 35.6839 28.655 37.3976C28.3469 41.7162 21.224 46.8198 20.5228 50.3534C20.5228 50.3534 32.7774 52.2602 35.806 49.4841C38.8065 46.6798 39.5359 25.1987 35.806 24.3019ZM23.5515 33.4715C23.7758 33.8921 23.8602 34.229 23.7477 34.4252C23.3002 35.2383 19.6254 35.7433 15.4474 35.8833C15.1668 41.7162 15.5874 48.3341 17.2698 48.5303C17.2698 48.5303 24.9258 40.8187 25.0939 37.3976C25.1495 36.3039 24.5052 34.9021 23.5515 33.4715Z" fill="url(#paint1_linear_332_1211)"/>
<path d="M29.0239 23.7969C28.827 25.928 28.6314 27.5549 28.4071 28.7604L28.2383 29.5179C28.2145 29.6887 28.1771 29.8574 28.1264 30.0223V30.0504C27.9858 30.5273 27.8458 30.9197 27.734 31.201L27.7058 31.2291C27.6387 31.3933 27.5438 31.5447 27.4252 31.6766C27.3935 31.7363 27.3448 31.7852 27.2852 31.8172C27.0609 32.0416 26.7802 32.0729 26.4721 32.0135C26.2306 31.9193 26.0112 31.7761 25.8278 31.5928C25.3854 31.178 22.8286 28.3967 22.6317 28.1717C21.1295 26.4784 20.3043 25.3674 20.5286 24.9468C20.946 24.1894 25.0403 23.7969 29.0239 23.7969Z" fill="url(#paint2_linear_332_1211)"/>
<path d="M23.7463 34.4302C23.2988 35.2433 19.6239 35.7477 15.4453 35.8883C15.6697 31.0941 16.3709 26.7742 17.2684 26.9986C17.5765 27.083 18.334 27.6155 19.2596 28.4848C20.5362 29.683 21.7087 30.9874 22.7644 32.3841C22.8769 32.5522 22.9888 32.6928 23.1013 32.8315C23.2413 33.0278 23.4094 33.2521 23.5487 33.4765C23.7731 33.8952 23.8581 34.2333 23.7463 34.4302Z" fill="url(#paint3_linear_332_1211)"/>
<path d="M49.9246 24.5997C49.9114 24.0581 50.0267 23.5211 50.2611 23.0327C50.4956 22.5443 50.8424 22.1184 51.2732 21.79C52.3296 20.9938 53.633 20.5959 54.9539 20.6661C58.1569 20.6661 59.7584 21.3124 59.7584 22.6329C59.7712 23.005 59.6839 23.3737 59.5055 23.7006C59.4418 23.8232 59.3447 23.9252 59.2253 23.9949C59.106 24.0645 58.9693 24.0988 58.8312 24.0939C58.2319 24.0063 57.6522 23.8162 57.1173 23.532C56.4304 23.2037 55.6859 23.0128 54.9258 22.9701C54.4476 22.9326 53.9711 23.0616 53.5772 23.3353C53.4456 23.4284 53.3368 23.55 53.2589 23.6912C53.1811 23.8323 53.1362 23.9892 53.1276 24.1501C53.1334 24.4086 53.2064 24.6611 53.3394 24.8828C53.4724 25.1045 53.6609 25.2877 53.8862 25.4145C54.6494 25.7881 55.4381 26.1073 56.2463 26.3697C57.2691 26.6962 58.222 27.2108 59.056 27.887C59.4444 28.2405 59.7493 28.676 59.9485 29.162C60.1478 29.648 60.2364 30.1722 60.2079 30.6966C60.2474 31.2171 60.1695 31.7398 59.9798 32.2261C59.7901 32.7125 59.4936 33.15 59.1122 33.5063C58.622 33.9722 58.0443 34.3362 57.4126 34.5774C56.7808 34.8185 56.1074 34.9319 55.4315 34.9111H55.0663C53.8249 34.9648 52.5827 34.8226 51.3856 34.4896C50.2898 34.0963 49.7279 33.5625 49.7279 32.8601V32.4386C49.7136 32.0891 49.8121 31.7444 50.0089 31.4552C50.2149 31.2305 50.3835 31.1181 50.5146 31.1181C51.2064 31.2185 51.8735 31.4472 52.4814 31.7924C53.2126 32.2076 54.03 32.448 54.8696 32.4948C55.4035 32.5202 55.9325 32.3831 56.3868 32.1014C56.5613 31.9724 56.7013 31.8023 56.7944 31.6063C56.8875 31.4103 56.9309 31.1943 56.9206 30.9776C56.9206 30.4999 56.5835 30.0504 55.8811 29.657C55.6844 29.657 54.9539 29.2637 53.6333 28.786C52.6135 28.4933 51.6595 28.0068 50.8237 27.3531C50.4866 26.9845 50.2321 26.5482 50.0771 26.0734C49.922 25.5986 49.87 25.0962 49.9246 24.5997Z" fill="#232323"/>
<path d="M69.0844 28.5352C66.9491 28.5352 65.8533 28.8443 65.8533 29.4905C65.8409 29.8822 65.9239 30.271 66.0953 30.6234C66.2666 30.9758 66.521 31.2813 66.8367 31.5135C67.6748 32.0426 68.6567 32.2979 69.6463 32.244C70.2504 32.2043 70.846 32.0814 71.4164 31.8787C71.9595 31.6869 72.5272 31.5734 73.1022 31.5416C73.5799 31.5416 73.8327 31.9349 73.8327 32.7216C73.8327 33.5083 73.2989 33.705 72.2031 34.1545C71.2193 34.5863 70.1587 34.8156 69.0844 34.8288H68.7754C67.8156 34.8356 66.8629 34.6641 65.9657 34.3231C65.2073 34.0638 64.5214 33.628 63.9645 33.0516C63.4076 32.4752 62.9957 31.7746 62.7627 31.0077C62.4281 30.1096 62.266 29.1563 62.2851 28.1981V27.889C62.1832 26.0814 62.7537 24.3 63.8866 22.8878C64.4589 22.2291 65.1818 21.7183 65.9938 21.3987C66.8861 21.0403 67.8422 20.8682 68.8035 20.893H69.4216C70.1028 20.8964 70.7782 21.02 71.4164 21.2582C72.0667 21.4836 72.6574 21.8536 73.144 22.3403C73.6307 22.8269 74.0007 23.4176 74.2261 24.0679C74.47 24.7055 74.6031 25.3802 74.6194 26.0627V26.3437C74.6194 27.2709 74.3104 27.8328 73.7204 28.0576C72.215 28.4875 70.6458 28.6491 69.0844 28.5352ZM71.0793 25.7256V25.4165C71.0699 25.3419 71.0699 25.2664 71.0793 25.1917C71.0684 24.9212 71.0002 24.656 70.8791 24.4138C70.758 24.1716 70.5868 23.9579 70.3769 23.7869C69.9571 23.4165 69.4194 23.2074 68.8596 23.1969H68.4382C68.0788 23.1891 67.7224 23.2635 67.3962 23.4145C67.0699 23.5654 66.7825 23.7889 66.5557 24.0679C66.064 24.5931 65.7924 25.287 65.7971 26.0065V26.2313C65.7971 26.4842 65.9657 26.6247 66.3029 26.6247H66.64H67.5672H70.0116H70.2926C70.7983 26.3999 71.0793 26.147 71.0793 25.6413V25.7256Z" fill="#232323"/>
<path d="M80.2655 21.7939C80.5558 22.0324 80.9054 22.1877 81.2769 22.2434C81.8346 22.1472 82.3745 21.9672 82.8784 21.7096C83.6274 21.3601 84.4404 21.1688 85.2667 21.1477C85.8805 21.1154 86.4926 21.2373 87.0472 21.5023C87.6017 21.7673 88.0811 22.167 88.4416 22.6649C89.1725 24.1041 89.4748 25.7229 89.3125 27.3289V29.2676C89.2831 29.8612 89.3303 30.4561 89.453 31.0377L89.8183 31.9087C89.9423 32.222 90.0089 32.5551 90.015 32.892C90.015 33.5102 89.8464 33.9035 89.5092 34.0721C88.99 34.2706 88.4346 34.3568 87.8796 34.3249C87.3127 34.3611 86.7473 34.2344 86.25 33.9597C86.0657 33.7677 85.927 33.5367 85.8443 33.2837C85.7616 33.0308 85.7371 32.7624 85.7724 32.4987C85.7724 32.4987 85.7724 32.0772 85.7724 31.4591C85.7724 30.841 85.7724 30.1105 85.7724 29.3519C85.8734 27.7593 85.6926 26.1614 85.2386 24.6316C85.0698 24.2442 84.784 23.9193 84.4211 23.7026C84.0583 23.486 83.6367 23.3883 83.2156 23.4235C82.7607 23.4024 82.3097 23.5165 81.9197 23.7516C81.5296 23.9866 81.218 24.332 81.0241 24.744C80.6476 25.7772 80.4944 26.8784 80.5745 27.9751C80.51 29.1074 80.51 30.2425 80.5745 31.3748C80.5745 32.021 80.5745 32.583 80.5745 33.0325C80.5745 33.9316 79.844 34.3811 78.4392 34.3811H78.0739C77.5986 34.4056 77.1249 34.3089 76.6972 34.1002C76.5562 33.9872 76.4461 33.8404 76.3773 33.6733C76.3085 33.5062 76.2832 33.3244 76.3039 33.1449V32.8077C76.3478 32.4343 76.4326 32.0669 76.5567 31.712C76.7371 31.196 76.8412 30.6565 76.8658 30.1105C76.8658 29.6047 76.8658 28.5371 76.8658 26.9075C76.8658 25.2779 76.8658 24.3507 76.8658 24.0978C76.8277 23.7651 76.7619 23.4362 76.6691 23.1144C76.5512 22.7896 76.4849 22.4483 76.4724 22.103C76.4724 21.5972 77.0906 21.3443 78.2706 21.3443C78.9684 21.2383 79.6806 21.3988 80.2655 21.7939Z" fill="#232323"/>
<path d="M105.247 33.2294C105.247 34.0161 104.544 34.3813 103.111 34.3813C102.749 34.3879 102.391 34.3008 102.072 34.1285C101.805 33.9784 101.507 33.8919 101.201 33.8756C100.713 33.9397 100.239 34.082 99.7961 34.297C99.1744 34.5649 98.5061 34.7081 97.8293 34.7185H97.5202C96.7918 34.7532 96.0659 34.6102 95.4051 34.3018C94.7443 33.9935 94.1685 33.529 93.7272 32.9484C92.7655 31.6312 92.2801 30.0262 92.3505 28.3968V27.7224C92.3645 26.8426 92.5162 25.9704 92.8 25.1376C93.055 24.2523 93.5064 23.436 94.1205 22.7494C94.6918 22.1207 95.3982 21.6298 96.1866 21.3134C96.975 20.9971 97.8248 20.8637 98.6722 20.9231H99.7118C99.8923 20.9437 100.075 20.909 100.235 20.8238C100.396 20.7385 100.527 20.6066 100.611 20.4454C100.821 19.9 100.908 19.3145 100.864 18.7316L100.583 16.2591C100.581 16.035 100.64 15.8147 100.754 15.6217C100.868 15.4287 101.032 15.2702 101.229 15.1633C101.811 14.8677 102.46 14.7319 103.111 14.7699C103.926 14.7699 104.432 15.0228 104.572 15.5285C104.828 17.4748 104.912 19.4397 104.825 21.4007V28.9868C104.807 29.9273 104.872 30.8677 105.022 31.7964C105.141 32.2661 105.216 32.7458 105.247 33.2294ZM95.6377 27.3291V28.0596C95.5794 29.1725 95.8532 30.2776 96.4245 31.2345C96.6267 31.5909 96.9214 31.886 97.2775 32.0887C97.6336 32.2915 98.0377 32.3943 98.4474 32.3865H98.6722C99.1152 32.3985 99.5532 32.2897 99.9392 32.072C100.325 31.8542 100.645 31.5356 100.864 31.1502C101.216 30.0537 101.35 28.8986 101.257 27.7505C101.411 26.4891 101.267 25.2092 100.836 24.0137C100.638 23.6637 100.346 23.3758 99.9939 23.1823C99.6416 22.9887 99.2423 22.8972 98.8408 22.9179H98.4755C98.0495 22.9004 97.6269 23.0014 97.2549 23.2097C96.8828 23.4181 96.5759 23.7256 96.3683 24.098C95.8312 25.087 95.5784 26.2053 95.6377 27.3291Z" fill="#232323"/>
<path d="M109.914 34.5415C108.847 34.5415 108.313 34.12 108.313 33.2771C108.325 32.8262 108.411 32.3803 108.566 31.9566C108.724 31.5344 108.855 31.1027 108.959 30.6642C109.019 29.5692 109.019 28.4718 108.959 27.3769C109.017 26.3475 109.017 25.3156 108.959 24.2862C108.834 23.9658 108.684 23.6558 108.51 23.3591C108.332 23.0776 108.217 22.7614 108.172 22.4319V22.2633C108.149 22.0927 108.176 21.9189 108.251 21.7639C108.326 21.6089 108.445 21.4795 108.594 21.3923C109.018 21.2449 109.466 21.1782 109.914 21.1956H110.476H111.038C111.684 21.1956 112.078 21.4766 112.162 22.0104C112.212 22.7588 112.212 23.5097 112.162 24.2581V29.8775C112.24 30.447 112.391 31.0042 112.612 31.5352C112.843 32.035 113.004 32.5645 113.089 33.1086V33.2771C113.089 34.1762 112.303 34.6258 110.757 34.6258L109.914 34.5415ZM110.673 15.2391H110.87C112.078 15.2391 112.668 15.7168 112.668 16.7002V17.2059C112.653 17.3741 112.653 17.5434 112.668 17.7116C112.621 17.9905 112.47 18.2413 112.246 18.4141C112.111 18.5497 111.948 18.655 111.769 18.7228C111.59 18.7906 111.398 18.8195 111.207 18.8074H110.813H110.448C110.023 18.8394 109.601 18.7088 109.268 18.4422C109.129 18.3259 109.019 18.1793 108.946 18.0137C108.873 17.848 108.839 17.6678 108.847 17.4869V16.5878C108.843 16.3938 108.885 16.2017 108.968 16.0264C109.05 15.851 109.172 15.697 109.324 15.5763C109.707 15.3267 110.161 15.2084 110.617 15.2391H110.673Z" fill="#232323"/>
<path d="M122.302 34.9433H122.049C121.153 34.9765 120.26 34.8211 119.427 34.4872C118.595 34.1532 117.842 33.6481 117.217 33.0047C116.014 31.5827 115.41 29.7496 115.531 27.8911V27.4135C115.54 26.4575 115.701 25.509 116.009 24.6038C116.297 23.8122 116.76 23.0956 117.363 22.5071C117.966 21.9187 118.694 21.4733 119.493 21.2041C120.339 20.8982 121.233 20.746 122.134 20.7546H122.386C123.266 20.7287 124.141 20.8936 124.951 21.238C125.761 21.5823 126.487 22.098 127.079 22.7494C128.177 24.0475 128.74 25.7153 128.652 27.4135V27.6382C128.644 28.59 128.503 29.5358 128.231 30.4479C127.988 31.3058 127.561 32.1001 126.978 32.7748C126.396 33.4496 125.672 33.9884 124.859 34.3533C124.055 34.7198 123.185 34.9205 122.302 34.9433ZM121.993 32.4428H122.246C122.646 32.4483 123.04 32.3534 123.394 32.1669C123.747 31.9803 124.048 31.7081 124.269 31.3751C124.812 30.625 125.088 29.7154 125.056 28.7902V27.2168C125.089 26.1294 124.806 25.0558 124.241 24.1262C124.014 23.7561 123.696 23.4505 123.317 23.2389C122.938 23.0273 122.511 22.9168 122.077 22.918H121.684C121.265 22.9151 120.854 23.0293 120.496 23.2477C120.139 23.4662 119.85 23.7802 119.661 24.1543C119.097 25.2153 118.835 26.4105 118.902 27.6101C118.85 28.8387 119.122 30.0595 119.689 31.1503C119.912 31.5615 120.246 31.9012 120.654 32.13C121.062 32.3588 121.526 32.4672 121.993 32.4428Z" fill="#232323"/>
<path d="M130.959 24.6081C130.946 24.0665 131.061 23.5295 131.296 23.0411C131.53 22.5527 131.877 22.1269 132.308 21.7984C133.357 21.0086 134.649 20.611 135.96 20.6746C139.191 20.6746 140.793 21.3208 140.793 22.6413C140.806 23.0134 140.718 23.3822 140.54 23.709C140.476 23.8316 140.379 23.9337 140.26 24.0033C140.14 24.0729 140.004 24.1073 139.866 24.1023C139.266 24.0147 138.687 23.8246 138.152 23.5404C137.464 23.2155 136.72 23.0248 135.96 22.9785C135.482 22.941 135.006 23.0701 134.612 23.3437C134.48 23.4368 134.371 23.5585 134.293 23.6996C134.216 23.8407 134.171 23.9976 134.162 24.1585C134.168 24.417 134.241 24.6695 134.374 24.8912C134.507 25.1129 134.695 25.2961 134.921 25.4229C135.684 25.7965 136.473 26.1157 137.281 26.3782C138.304 26.7046 139.256 27.2192 140.09 27.8954C140.479 28.2489 140.784 28.6845 140.983 29.1704C141.182 29.6564 141.271 30.1806 141.242 30.705C141.282 31.2255 141.204 31.7483 141.014 32.2346C140.825 32.7209 140.528 33.1584 140.147 33.5147C139.153 34.4504 137.83 34.9554 136.466 34.9195H136.101C134.841 34.916 133.59 34.7169 132.392 34.3295C131.324 33.9361 130.762 33.4023 130.762 32.6999V32.447C130.735 32.0961 130.834 31.7469 131.043 31.4637C131.231 31.2389 131.399 31.1265 131.549 31.1265C132.241 31.227 132.908 31.4557 133.516 31.8008C134.247 32.216 135.064 32.4564 135.904 32.5032C136.438 32.5287 136.967 32.3915 137.421 32.1099C137.596 31.9808 137.736 31.8108 137.829 31.6147C137.922 31.4187 137.965 31.2028 137.955 30.986C137.955 30.5084 137.618 30.0588 136.916 29.6655C136.719 29.6655 135.988 29.2721 134.668 28.7945C133.648 28.5017 132.694 28.0152 131.858 27.3615C131.521 26.9929 131.267 26.5566 131.112 26.0818C130.957 25.607 130.905 25.1046 130.959 24.6081Z" fill="#232323"/>
<defs>
<linearGradient id="paint0_linear_332_1211" x1="14.9649" y1="0.50844" x2="14.9649" y2="35.9489" gradientUnits="userSpaceOnUse">
<stop stop-color="#5C26FF"/>
<stop offset="0.31" stop-color="#5A24FA"/>
<stop offset="0.68" stop-color="#5220EC"/>
<stop offset="1" stop-color="#491AD9"/>
</linearGradient>
<linearGradient id="paint1_linear_332_1211" x1="26.8518" y1="23.7969" x2="26.8518" y2="50.992" gradientUnits="userSpaceOnUse">
<stop stop-color="#FFA242"/>
<stop offset="0.31" stop-color="#FEA03F"/>
<stop offset="0.59" stop-color="#FC9934"/>
<stop offset="0.85" stop-color="#F88E22"/>
<stop offset="1" stop-color="#F58614"/>
</linearGradient>
<linearGradient id="paint2_linear_332_1211" x1="20.489" y1="27.9173" x2="29.0226" y2="27.9173" gradientUnits="userSpaceOnUse">
<stop stop-color="#D93BD1"/>
<stop offset="0.4" stop-color="#D738CF"/>
<stop offset="0.73" stop-color="#D32DCA"/>
<stop offset="1" stop-color="#CC1FC3"/>
</linearGradient>
<linearGradient id="paint3_linear_332_1211" x1="14088.7" y1="-969.502" x2="15179.4" y2="-969.502" gradientUnits="userSpaceOnUse">
<stop stop-color="#D93BD1"/>
<stop offset="0.4" stop-color="#D738CF"/>
<stop offset="0.73" stop-color="#D32DCA"/>
<stop offset="1" stop-color="#CC1FC3"/>
</linearGradient>
</defs>
</svg>
