<svg width="423" height="336" viewBox="0 0 423 336" fill="none" xmlns="http://www.w3.org/2000/svg">
<g filter="url(#filter0_d_332_836)">
<rect x="14" y="75.6855" width="394.597" height="245.604" rx="8.19805" fill="white"/>
</g>
<rect x="22.9688" y="108.047" width="378.654" height="204.274" rx="5.46537" fill="#F2F3FD"/>
<ellipse cx="67.1075" cy="91.5983" rx="5.24479" ry="5.16589" transform="rotate(90 67.1075 91.5983)" fill="url(#paint0_linear_332_836)"/>
<ellipse cx="28.3575" cy="91.5983" rx="5.24479" ry="5.16589" transform="rotate(90 28.3575 91.5983)" fill="url(#paint1_linear_332_836)"/>
<ellipse cx="47.7325" cy="91.5983" rx="5.24479" ry="5.16589" transform="rotate(90 47.7325 91.5983)" fill="url(#paint2_linear_332_836)"/>
<g filter="url(#filter1_d_332_836)">
<path d="M89.7344 267.482H129.225C133.556 267.482 137.066 263.972 137.066 259.641L137.066 240.797C137.066 236.466 140.577 232.956 144.907 232.956L216.415 232.956C220.746 232.956 224.256 229.445 224.256 225.115L224.256 150.766C224.256 146.436 227.767 142.925 232.097 142.925H284.174C288.505 142.925 292.015 139.415 292.015 135.084V72.5441C292.015 68.2137 295.526 64.7031 299.856 64.7031L337.959 64.7031" stroke="url(#paint3_linear_332_836)" stroke-width="1.5" stroke-dasharray="1.99 1.99"/>
</g>
<g filter="url(#filter2_d_332_836)">
<path d="M239.624 130.054C239.624 173.408 204.478 208.553 161.124 208.553C117.77 208.553 82.625 173.408 82.625 130.054C82.625 86.7001 117.77 51.5547 161.124 51.5547C204.478 51.5547 239.624 86.7001 239.624 130.054Z" fill="white"/>
</g>
<g filter="url(#filter3_d_332_836)">
<path d="M183.584 111.712C193.956 123.875 192.504 142.144 180.341 152.516C168.178 162.888 149.91 161.436 139.538 149.273C129.166 137.11 130.618 118.842 142.781 108.47C154.944 98.0975 173.212 99.5494 183.584 111.712Z" fill="white"/>
</g>
<path d="M243.773 127.861C245.84 127.861 247.524 126.181 247.434 124.116C245.529 80.5926 210.583 45.6465 167.059 43.7419C164.995 43.6516 163.315 45.3356 163.315 47.4024L163.315 80.0139C163.315 82.0806 164.996 83.7395 167.056 83.9125C188.431 85.7076 205.469 102.745 207.264 124.12C207.437 126.179 209.096 127.861 211.162 127.861L243.773 127.861Z" fill="url(#paint4_linear_332_836)"/>
<path d="M158.933 61.2017C158.933 59.2641 157.36 57.6842 155.425 57.7795C119.465 59.55 90.6223 88.3922 88.8518 124.353C88.7565 126.288 90.3364 127.86 92.274 127.86H118.671C120.608 127.86 122.161 126.285 122.344 124.356C123.999 106.854 137.927 92.9266 155.428 91.2711C157.357 91.0887 158.933 89.5355 158.933 87.5979V61.2017Z" fill="#E6DEFF"/>
<path d="M92.274 132.247C90.3364 132.247 88.7565 133.82 88.8518 135.755C90.6223 171.715 119.465 200.557 155.425 202.328C157.36 202.423 158.933 200.843 158.933 198.906L158.933 172.509C158.933 170.572 157.357 169.018 155.428 168.836C137.927 167.18 123.999 153.253 122.343 135.752C122.161 133.823 120.608 132.247 118.67 132.247L92.274 132.247Z" fill="#E6DEFF"/>
<path d="M163.317 198.906C163.317 200.843 164.89 202.423 166.825 202.328C202.785 200.557 231.628 171.715 233.398 135.755C233.493 133.82 231.914 132.247 229.976 132.247L203.579 132.247C201.642 132.247 200.089 133.823 199.906 135.752C198.251 153.253 184.323 167.181 166.822 168.836C164.893 169.019 163.317 170.572 163.317 172.51L163.317 198.906Z" fill="#E6DEFF"/>
<g filter="url(#filter4_d_332_836)">
<rect width="19.6199" height="8.26285" rx="2.21258" transform="matrix(9.29742e-08 1 1 -2.05507e-08 157 124.166)" fill="url(#paint5_linear_332_836)"/>
</g>
<g filter="url(#filter5_d_332_836)">
<rect width="11.7719" height="8.26285" rx="2.21258" transform="matrix(9.28351e-08 1 1 -2.05815e-08 144.008 132.014)" fill="url(#paint6_linear_332_836)"/>
</g>
<g filter="url(#filter6_d_332_836)">
<rect width="27.4678" height="8.26285" rx="2.21258" transform="matrix(8.21567e-08 1 1 -2.32566e-08 169.984 116.318)" fill="url(#paint7_linear_332_836)"/>
</g>
<g filter="url(#filter7_d_332_836)">
<circle cx="66.5657" cy="267.236" r="26.6595" fill="white"/>
</g>
<path d="M66.5446 265.287C73.639 265.263 79.4109 270.49 79.4247 278.108C79.4298 280.929 73.7946 283.687 66.5779 283.711C59.3612 283.736 53.716 281.015 53.711 278.208C53.6972 270.577 59.4502 265.311 66.5446 265.287Z" fill="url(#paint8_linear_332_836)"/>
<path d="M66.5417 263.679C70.0995 263.667 72.9785 260.765 72.972 257.197C72.9656 253.63 70.0762 250.748 66.5183 250.76C62.9605 250.772 60.0815 253.674 60.088 257.241C60.0944 260.808 62.9839 263.691 66.5417 263.679Z" fill="url(#paint9_linear_332_836)"/>
<g filter="url(#filter8_d_332_836)">
<rect x="309.945" y="20.3477" width="88.7089" height="88.7089" rx="44.3545" fill="white"/>
</g>
<g filter="url(#filter9_d_332_836)">
<rect x="319.18" y="29.5742" width="70.2749" height="70.2749" rx="35.1375" fill="url(#paint10_linear_332_836)"/>
</g>
<g filter="url(#filter10_d_332_836)">
<path d="M349.776 66.8322L340.992 58.9566L334.328 65.6206L349.776 80.1602L374.312 55.9275L367.951 49.5664L349.776 66.8322Z" fill="white"/>
</g>
<g filter="url(#filter11_d_332_836)">
<path d="M77.2931 245.973C77.1664 253.196 82.9191 259.155 90.1422 259.281C97.3654 259.408 103.324 253.655 103.45 246.432C103.577 239.209 97.8242 233.251 90.6011 233.124C83.378 232.997 77.4198 238.75 77.2931 245.973Z" fill="url(#paint11_linear_332_836)"/>
</g>
<path d="M83.2029 247.171L87.7034 248.945L89.5877 253.391C89.917 254.141 90.9781 254.123 91.2891 253.354L95.7164 241.92C96.0091 241.17 95.259 240.438 94.5089 240.749L83.1846 245.469C82.4345 245.798 82.4345 246.86 83.2029 247.171Z" fill="white"/>
<path d="M91.2886 246.495L89.0937 252.202L87.7036 248.946L84.4295 247.647L90.0814 245.306C90.7582 245.013 91.563 245.782 91.2886 246.495Z" fill="#FFCEFC"/>
<g filter="url(#filter12_d_332_836)">
<rect x="201.336" y="158.867" width="153.015" height="126.443" rx="4.15656" fill="#F2F3FD"/>
<rect x="199.185" y="156.717" width="157.316" height="130.744" rx="6.30712" stroke="white" stroke-width="4.30113"/>
</g>
<g filter="url(#filter13_d_332_836)">
<rect x="209.391" y="208.553" width="136.901" height="48.1592" rx="4.15656" fill="white"/>
</g>
<path d="M234.789 223.497C234.789 226.151 232.643 228.301 229.996 228.301C227.349 228.301 225.203 226.151 225.203 223.497C225.203 220.844 227.349 218.693 229.996 218.693C232.643 218.693 234.789 220.844 234.789 223.497Z" fill="url(#paint12_linear_332_836)"/>
<path d="M234.789 241.636C234.789 244.29 232.643 246.441 229.996 246.441C227.349 246.441 225.203 244.29 225.203 241.636C225.203 238.983 227.349 236.832 229.996 236.832C232.643 236.832 234.789 238.983 234.789 241.636Z" fill="url(#paint13_linear_332_836)"/>
<rect x="245.523" y="220.094" width="86.0403" height="6.80678" rx="3.36537" fill="#F2F3FD"/>
<rect x="245.523" y="238.232" width="86.0403" height="6.80678" rx="3.36537" fill="#F2F3FD"/>
<rect x="245.523" y="238.232" width="86.0403" height="6.80678" rx="3.36537" fill="#F2F3FD"/>
<rect x="245.523" y="268.803" width="64.631" height="6.80678" rx="3.36537" fill="#E6DEFF"/>
<g filter="url(#filter14_d_332_836)">
<rect x="209.391" y="164.859" width="136.901" height="37.5881" rx="4.15656" fill="white"/>
<circle cx="277.824" cy="183.356" r="12.8009" fill="#E6DEFF"/>
<line x1="278.059" y1="178.795" x2="278.059" y2="188.76" stroke="#E756DF" stroke-width="1.99292" stroke-linecap="round"/>
<path d="M283.039 183.777L273.074 183.777" stroke="#E756DF" stroke-width="1.99292" stroke-linecap="round"/>
</g>
<defs>
<filter id="filter0_d_332_836" x="0.0495893" y="61.7351" width="422.495" height="273.504" filterUnits="userSpaceOnUse" color-interpolation-filters="sRGB">
<feFlood flood-opacity="0" result="BackgroundImageFix"/>
<feColorMatrix in="SourceAlpha" type="matrix" values="0 0 0 0 0 0 0 0 0 0 0 0 0 0 0 0 0 0 127 0" result="hardAlpha"/>
<feMorphology radius="0.996458" operator="dilate" in="SourceAlpha" result="effect1_dropShadow_332_836"/>
<feOffset/>
<feGaussianBlur stdDeviation="6.47698"/>
<feComposite in2="hardAlpha" operator="out"/>
<feColorMatrix type="matrix" values="0 0 0 0 0 0 0 0 0 0 0 0 0 0 0 0 0 0 0.11 0"/>
<feBlend mode="normal" in2="BackgroundImageFix" result="effect1_dropShadow_332_836"/>
<feBlend mode="normal" in="SourceGraphic" in2="effect1_dropShadow_332_836" result="shape"/>
</filter>
<filter id="filter1_d_332_836" x="77.0696" y="52.8715" width="273.556" height="229.609" filterUnits="userSpaceOnUse" color-interpolation-filters="sRGB">
<feFlood flood-opacity="0" result="BackgroundImageFix"/>
<feColorMatrix in="SourceAlpha" type="matrix" values="0 0 0 0 0 0 0 0 0 0 0 0 0 0 0 0 0 0 127 0" result="hardAlpha"/>
<feOffset dy="1.58309"/>
<feGaussianBlur stdDeviation="6.33237"/>
<feComposite in2="hardAlpha" operator="out"/>
<feColorMatrix type="matrix" values="0 0 0 0 0 0 0 0 0 0 0 0 0 0 0 0 0 0 0.09 0"/>
<feBlend mode="normal" in2="BackgroundImageFix" result="effect1_dropShadow_332_836"/>
<feBlend mode="normal" in="SourceGraphic" in2="effect1_dropShadow_332_836" result="shape"/>
</filter>
<filter id="filter2_d_332_836" x="74.057" y="42.9866" width="174.136" height="174.134" filterUnits="userSpaceOnUse" color-interpolation-filters="sRGB">
<feFlood flood-opacity="0" result="BackgroundImageFix"/>
<feColorMatrix in="SourceAlpha" type="matrix" values="0 0 0 0 0 0 0 0 0 0 0 0 0 0 0 0 0 0 127 0" result="hardAlpha"/>
<feMorphology radius="0.978042" operator="dilate" in="SourceAlpha" result="effect1_dropShadow_332_836"/>
<feOffset/>
<feGaussianBlur stdDeviation="3.795"/>
<feComposite in2="hardAlpha" operator="out"/>
<feColorMatrix type="matrix" values="0 0 0 0 0 0 0 0 0 0 0 0 0 0 0 0 0 0 0.12 0"/>
<feBlend mode="normal" in2="BackgroundImageFix" result="effect1_dropShadow_332_836"/>
<feBlend mode="normal" in="SourceGraphic" in2="effect1_dropShadow_332_836" result="shape"/>
</filter>
<filter id="filter3_d_332_836" x="123.846" y="92.7779" width="75.4324" height="75.4304" filterUnits="userSpaceOnUse" color-interpolation-filters="sRGB">
<feFlood flood-opacity="0" result="BackgroundImageFix"/>
<feColorMatrix in="SourceAlpha" type="matrix" values="0 0 0 0 0 0 0 0 0 0 0 0 0 0 0 0 0 0 127 0" result="hardAlpha"/>
<feOffset/>
<feGaussianBlur stdDeviation="4.38544"/>
<feComposite in2="hardAlpha" operator="out"/>
<feColorMatrix type="matrix" values="0 0 0 0 0 0 0 0 0 0 0 0 0 0 0 0 0 0 0.15 0"/>
<feBlend mode="normal" in2="BackgroundImageFix" result="effect1_dropShadow_332_836"/>
<feBlend mode="normal" in="SourceGraphic" in2="effect1_dropShadow_332_836" result="shape"/>
</filter>
<filter id="filter4_d_332_836" x="155.317" y="123.325" width="11.6316" height="22.9851" filterUnits="userSpaceOnUse" color-interpolation-filters="sRGB">
<feFlood flood-opacity="0" result="BackgroundImageFix"/>
<feColorMatrix in="SourceAlpha" type="matrix" values="0 0 0 0 0 0 0 0 0 0 0 0 0 0 0 0 0 0 127 0" result="hardAlpha"/>
<feOffset dy="0.841493"/>
<feGaussianBlur stdDeviation="0.841493"/>
<feComposite in2="hardAlpha" operator="out"/>
<feColorMatrix type="matrix" values="0 0 0 0 0 0 0 0 0 0 0 0 0 0 0 0 0 0 0.1 0"/>
<feBlend mode="normal" in2="BackgroundImageFix" result="effect1_dropShadow_332_836"/>
<feBlend mode="normal" in="SourceGraphic" in2="effect1_dropShadow_332_836" result="shape"/>
</filter>
<filter id="filter5_d_332_836" x="142.325" y="131.172" width="11.6316" height="15.1375" filterUnits="userSpaceOnUse" color-interpolation-filters="sRGB">
<feFlood flood-opacity="0" result="BackgroundImageFix"/>
<feColorMatrix in="SourceAlpha" type="matrix" values="0 0 0 0 0 0 0 0 0 0 0 0 0 0 0 0 0 0 127 0" result="hardAlpha"/>
<feOffset dy="0.841493"/>
<feGaussianBlur stdDeviation="0.841493"/>
<feComposite in2="hardAlpha" operator="out"/>
<feColorMatrix type="matrix" values="0 0 0 0 0 0 0 0 0 0 0 0 0 0 0 0 0 0 0.1 0"/>
<feBlend mode="normal" in2="BackgroundImageFix" result="effect1_dropShadow_332_836"/>
<feBlend mode="normal" in="SourceGraphic" in2="effect1_dropShadow_332_836" result="shape"/>
</filter>
<filter id="filter6_d_332_836" x="168.301" y="115.477" width="11.6316" height="30.8347" filterUnits="userSpaceOnUse" color-interpolation-filters="sRGB">
<feFlood flood-opacity="0" result="BackgroundImageFix"/>
<feColorMatrix in="SourceAlpha" type="matrix" values="0 0 0 0 0 0 0 0 0 0 0 0 0 0 0 0 0 0 127 0" result="hardAlpha"/>
<feOffset dy="0.841493"/>
<feGaussianBlur stdDeviation="0.841493"/>
<feComposite in2="hardAlpha" operator="out"/>
<feColorMatrix type="matrix" values="0 0 0 0 0 0 0 0 0 0 0 0 0 0 0 0 0 0 0.1 0"/>
<feBlend mode="normal" in2="BackgroundImageFix" result="effect1_dropShadow_332_836"/>
<feBlend mode="normal" in="SourceGraphic" in2="effect1_dropShadow_332_836" result="shape"/>
</filter>
<filter id="filter7_d_332_836" x="36.9169" y="237.587" width="59.2991" height="59.2971" filterUnits="userSpaceOnUse" color-interpolation-filters="sRGB">
<feFlood flood-opacity="0" result="BackgroundImageFix"/>
<feColorMatrix in="SourceAlpha" type="matrix" values="0 0 0 0 0 0 0 0 0 0 0 0 0 0 0 0 0 0 127 0" result="hardAlpha"/>
<feOffset/>
<feGaussianBlur stdDeviation="1.49469"/>
<feComposite in2="hardAlpha" operator="out"/>
<feColorMatrix type="matrix" values="0 0 0 0 0.137255 0 0 0 0 0.137255 0 0 0 0 0.137255 0 0 0 0.1 0"/>
<feBlend mode="normal" in2="BackgroundImageFix" result="effect1_dropShadow_332_836"/>
<feBlend mode="normal" in="SourceGraphic" in2="effect1_dropShadow_332_836" result="shape"/>
</filter>
<filter id="filter8_d_332_836" x="287.839" y="0.697996" width="132.923" height="132.921" filterUnits="userSpaceOnUse" color-interpolation-filters="sRGB">
<feFlood flood-opacity="0" result="BackgroundImageFix"/>
<feColorMatrix in="SourceAlpha" type="matrix" values="0 0 0 0 0 0 0 0 0 0 0 0 0 0 0 0 0 0 127 0" result="hardAlpha"/>
<feMorphology radius="2.45621" operator="dilate" in="SourceAlpha" result="effect1_dropShadow_332_836"/>
<feOffset dy="2.45621"/>
<feGaussianBlur stdDeviation="9.82483"/>
<feComposite in2="hardAlpha" operator="out"/>
<feColorMatrix type="matrix" values="0 0 0 0 0 0 0 0 0 0 0 0 0 0 0 0 0 0 0.1 0"/>
<feBlend mode="normal" in2="BackgroundImageFix" result="effect1_dropShadow_332_836"/>
<feBlend mode="normal" in="SourceGraphic" in2="effect1_dropShadow_332_836" result="shape"/>
</filter>
<filter id="filter9_d_332_836" x="313.404" y="24.7609" width="81.8255" height="81.8274" filterUnits="userSpaceOnUse" color-interpolation-filters="sRGB">
<feFlood flood-opacity="0" result="BackgroundImageFix"/>
<feColorMatrix in="SourceAlpha" type="matrix" values="0 0 0 0 0 0 0 0 0 0 0 0 0 0 0 0 0 0 127 0" result="hardAlpha"/>
<feMorphology radius="0.962669" operator="dilate" in="SourceAlpha" result="effect1_dropShadow_332_836"/>
<feOffset dy="0.962669"/>
<feGaussianBlur stdDeviation="2.40667"/>
<feComposite in2="hardAlpha" operator="out"/>
<feColorMatrix type="matrix" values="0 0 0 0 0 0 0 0 0 0 0 0 0 0 0 0 0 0 0.3 0"/>
<feBlend mode="normal" in2="BackgroundImageFix" result="effect1_dropShadow_332_836"/>
<feBlend mode="normal" in="SourceGraphic" in2="effect1_dropShadow_332_836" result="shape"/>
</filter>
<filter id="filter10_d_332_836" x="327.633" y="46.2189" width="53.3744" height="43.9838" filterUnits="userSpaceOnUse" color-interpolation-filters="sRGB">
<feFlood flood-opacity="0" result="BackgroundImageFix"/>
<feColorMatrix in="SourceAlpha" type="matrix" values="0 0 0 0 0 0 0 0 0 0 0 0 0 0 0 0 0 0 127 0" result="hardAlpha"/>
<feOffset dy="3.34751"/>
<feGaussianBlur stdDeviation="3.34751"/>
<feComposite in2="hardAlpha" operator="out"/>
<feColorMatrix type="matrix" values="0 0 0 0 0 0 0 0 0 0 0 0 0 0 0 0 0 0 0.1 0"/>
<feBlend mode="normal" in2="BackgroundImageFix" result="effect1_dropShadow_332_836"/>
<feBlend mode="normal" in="SourceGraphic" in2="effect1_dropShadow_332_836" result="shape"/>
</filter>
<filter id="filter11_d_332_836" x="76.452" y="232.284" width="27.8381" height="27.8362" filterUnits="userSpaceOnUse" color-interpolation-filters="sRGB">
<feFlood flood-opacity="0" result="BackgroundImageFix"/>
<feColorMatrix in="SourceAlpha" type="matrix" values="0 0 0 0 0 0 0 0 0 0 0 0 0 0 0 0 0 0 127 0" result="hardAlpha"/>
<feOffset/>
<feGaussianBlur stdDeviation="0.418512"/>
<feComposite in2="hardAlpha" operator="out"/>
<feColorMatrix type="matrix" values="0 0 0 0 0.137255 0 0 0 0 0.137255 0 0 0 0 0.137255 0 0 0 0.2 0"/>
<feBlend mode="normal" in2="BackgroundImageFix" result="effect1_dropShadow_332_836"/>
<feBlend mode="normal" in="SourceGraphic" in2="effect1_dropShadow_332_836" result="shape"/>
</filter>
<filter id="filter12_d_332_836" x="192.298" y="149.833" width="171.084" height="144.511" filterUnits="userSpaceOnUse" color-interpolation-filters="sRGB">
<feFlood flood-opacity="0" result="BackgroundImageFix"/>
<feColorMatrix in="SourceAlpha" type="matrix" values="0 0 0 0 0 0 0 0 0 0 0 0 0 0 0 0 0 0 127 0" result="hardAlpha"/>
<feOffset/>
<feGaussianBlur stdDeviation="2.36659"/>
<feComposite in2="hardAlpha" operator="out"/>
<feColorMatrix type="matrix" values="0 0 0 0 0 0 0 0 0 0 0 0 0 0 0 0 0 0 0.06 0"/>
<feBlend mode="normal" in2="BackgroundImageFix" result="effect1_dropShadow_332_836"/>
<feBlend mode="normal" in="SourceGraphic" in2="effect1_dropShadow_332_836" result="shape"/>
</filter>
<filter id="filter13_d_332_836" x="202.945" y="202.107" width="149.791" height="61.0523" filterUnits="userSpaceOnUse" color-interpolation-filters="sRGB">
<feFlood flood-opacity="0" result="BackgroundImageFix"/>
<feColorMatrix in="SourceAlpha" type="matrix" values="0 0 0 0 0 0 0 0 0 0 0 0 0 0 0 0 0 0 127 0" result="hardAlpha"/>
<feMorphology radius="0.716231" operator="dilate" in="SourceAlpha" result="effect1_dropShadow_332_836"/>
<feOffset/>
<feGaussianBlur stdDeviation="2.86493"/>
<feComposite in2="hardAlpha" operator="out"/>
<feColorMatrix type="matrix" values="0 0 0 0 0 0 0 0 0 0 0 0 0 0 0 0 0 0 0.06 0"/>
<feBlend mode="normal" in2="BackgroundImageFix" result="effect1_dropShadow_332_836"/>
<feBlend mode="normal" in="SourceGraphic" in2="effect1_dropShadow_332_836" result="shape"/>
</filter>
<filter id="filter14_d_332_836" x="202.945" y="158.413" width="149.791" height="50.4801" filterUnits="userSpaceOnUse" color-interpolation-filters="sRGB">
<feFlood flood-opacity="0" result="BackgroundImageFix"/>
<feColorMatrix in="SourceAlpha" type="matrix" values="0 0 0 0 0 0 0 0 0 0 0 0 0 0 0 0 0 0 127 0" result="hardAlpha"/>
<feMorphology radius="0.716231" operator="dilate" in="SourceAlpha" result="effect1_dropShadow_332_836"/>
<feOffset/>
<feGaussianBlur stdDeviation="2.86493"/>
<feComposite in2="hardAlpha" operator="out"/>
<feColorMatrix type="matrix" values="0 0 0 0 0 0 0 0 0 0 0 0 0 0 0 0 0 0 0.06 0"/>
<feBlend mode="normal" in2="BackgroundImageFix" result="effect1_dropShadow_332_836"/>
<feBlend mode="normal" in="SourceGraphic" in2="effect1_dropShadow_332_836" result="shape"/>
</filter>
<linearGradient id="paint0_linear_332_836" x1="51.7521" y1="84.0373" x2="76.7594" y2="89.0718" gradientUnits="userSpaceOnUse">
<stop offset="0.223544" stop-color="white"/>
<stop offset="1" stop-color="#F68818"/>
</linearGradient>
<linearGradient id="paint1_linear_332_836" x1="23.5244" y1="87.2058" x2="34.0654" y2="94.1177" gradientUnits="userSpaceOnUse">
<stop stop-color="#FFDAFD"/>
<stop offset="0.508047" stop-color="#FFA6FA"/>
<stop offset="1" stop-color="#F460EC"/>
</linearGradient>
<linearGradient id="paint2_linear_332_836" x1="40.8472" y1="88.2146" x2="53.3743" y2="93.9579" gradientUnits="userSpaceOnUse">
<stop stop-color="#FEFEFF"/>
<stop offset="1" stop-color="#8760FF"/>
</linearGradient>
<linearGradient id="paint3_linear_332_836" x1="337.959" y1="267.482" x2="82.4157" y2="267.482" gradientUnits="userSpaceOnUse">
<stop offset="0.149245" stop-color="#FFA140"/>
<stop offset="1" stop-color="#EA5CE2"/>
</linearGradient>
<linearGradient id="paint4_linear_332_836" x1="241.213" y1="46.9643" x2="147.952" y2="191.472" gradientUnits="userSpaceOnUse">
<stop stop-color="#E2D8FF"/>
<stop offset="1" stop-color="#A284FF"/>
</linearGradient>
<linearGradient id="paint5_linear_332_836" x1="19.6199" y1="8.26285" x2="-0.578472" y2="8.26285" gradientUnits="userSpaceOnUse">
<stop offset="0.149245" stop-color="#FFA140"/>
<stop offset="1" stop-color="#EA5CE2"/>
</linearGradient>
<linearGradient id="paint6_linear_332_836" x1="11.7719" y1="8.26285" x2="-0.347083" y2="8.26285" gradientUnits="userSpaceOnUse">
<stop offset="0.149245" stop-color="#FFA140"/>
<stop offset="1" stop-color="#EA5CE2"/>
</linearGradient>
<linearGradient id="paint7_linear_332_836" x1="27.4678" y1="8.26285" x2="-0.809861" y2="8.26285" gradientUnits="userSpaceOnUse">
<stop offset="0.149245" stop-color="#FFA140"/>
<stop offset="1" stop-color="#EA5CE2"/>
</linearGradient>
<linearGradient id="paint8_linear_332_836" x1="79.4247" y1="283.711" x2="52.9528" y2="283.711" gradientUnits="userSpaceOnUse">
<stop offset="0.149245" stop-color="#FFA140"/>
<stop offset="1" stop-color="#EA5CE2"/>
</linearGradient>
<linearGradient id="paint9_linear_332_836" x1="79.4247" y1="283.711" x2="52.9528" y2="283.711" gradientUnits="userSpaceOnUse">
<stop offset="0.149245" stop-color="#FFA140"/>
<stop offset="1" stop-color="#EA5CE2"/>
</linearGradient>
<linearGradient id="paint10_linear_332_836" x1="389.455" y1="99.8491" x2="317.108" y2="99.8491" gradientUnits="userSpaceOnUse">
<stop offset="0.149245" stop-color="#FFA140"/>
<stop offset="1" stop-color="#EA5CE2"/>
</linearGradient>
<linearGradient id="paint11_linear_332_836" x1="107.928" y1="257.239" x2="76.01" y2="236.667" gradientUnits="userSpaceOnUse">
<stop offset="0.155838" stop-color="#FFDAFD"/>
<stop offset="0.508047" stop-color="#FFA6FA"/>
<stop offset="1" stop-color="#F460EC"/>
</linearGradient>
<linearGradient id="paint12_linear_332_836" x1="225.579" y1="220.77" x2="238.701" y2="223.698" gradientUnits="userSpaceOnUse">
<stop stop-color="#FFDAFD"/>
<stop offset="0.508047" stop-color="#FFA6FA"/>
<stop offset="1" stop-color="#F460EC"/>
</linearGradient>
<linearGradient id="paint13_linear_332_836" x1="225.579" y1="220.77" x2="238.701" y2="223.698" gradientUnits="userSpaceOnUse">
<stop stop-color="#FFDAFD"/>
<stop offset="0.508047" stop-color="#FFA6FA"/>
<stop offset="1" stop-color="#F460EC"/>
</linearGradient>
</defs>
</svg>
