<svg width="413" height="307" viewBox="0 0 413 307" fill="none" xmlns="http://www.w3.org/2000/svg">
<path opacity="0.8" d="M407.525 42.3559L400.735 39.7395C399.765 36.1237 398.324 32.6549 396.443 29.3918L399.382 22.7481C399.765 21.8662 399.588 20.8079 398.883 20.1318L389.74 10.9894C389.064 10.3133 388.006 10.1075 387.124 10.519L380.48 13.4587C377.217 11.5773 373.748 10.1369 370.133 9.16678L367.575 2.40549C367.222 1.49419 366.34 0.90625 365.37 0.90625L352.436 0.90625C351.466 0.90625 350.584 1.49419 350.231 2.40549L347.615 9.19617C343.999 10.1663 340.53 11.6067 337.267 13.4881L331.335 10.8632C330.898 10.6702 330.39 10.7392 330.022 11.0417L318.864 20.1906C318.188 20.8667 317.982 21.925 318.365 22.8069L321.304 29.4506C319.423 32.7137 317.982 36.1825 317.012 39.7983L310.28 42.3559C309.369 42.7086 308.781 43.5905 308.781 44.5606V57.4953C308.781 58.4654 309.369 59.3473 310.28 59.7L317.071 62.3163C318.041 65.9322 319.482 69.401 321.363 72.6641L318.423 79.3078C318.041 80.1897 318.218 81.2479 318.923 81.9241L328.066 91.0665C328.742 91.7426 329.8 91.9484 330.682 91.5369L337.326 88.5972C340.589 90.4786 344.058 91.919 347.673 92.8891L350.29 99.6798C350.642 100.591 351.524 101.179 352.494 101.179H365.429C366.399 101.179 367.281 100.591 367.634 99.6798L370.25 92.8891C373.866 91.919 377.335 90.4786 380.598 88.5972L387.242 91.5369C388.123 91.9484 389.182 91.7426 389.858 91.0665L399 81.9241C399.676 81.2479 399.882 80.1897 399.5 79.3078L396.56 72.6641C398.442 69.401 399.882 65.9322 400.852 62.3163L407.643 59.7C408.554 59.3473 409.142 58.4948 409.142 57.4953V44.5606C409.025 43.5905 408.437 42.7086 407.525 42.3559ZM358.903 77.8967C344.087 77.8967 332.034 65.844 332.034 51.0279C332.034 36.2119 344.087 24.1592 358.903 24.1592C373.719 24.1592 385.772 36.2119 385.772 51.0279C385.772 65.844 373.719 77.8967 358.903 77.8967Z" fill="url(#paint0_linear_332_1336)"/>
<g filter="url(#filter0_d_332_1336)">
<rect x="11.4609" y="41.5234" width="344.959" height="215.901" rx="7.85163" fill="white"/>
</g>
<rect x="22.4688" y="70.498" width="326.61" height="177.926" rx="5.23442" fill="#F2F3FD"/>
<g filter="url(#filter1_d_332_1336)">
<path d="M83.3047 228.442L143.183 228.442C147.513 228.442 151.024 224.932 151.024 220.601L151.023 162.087C151.023 157.757 154.534 154.246 158.864 154.246L222.839 154.246L259.052 154.246" stroke="url(#paint1_linear_332_1336)" stroke-dasharray="1.99 1.99"/>
</g>
<circle cx="345.421" cy="56.5435" r="4.88335" transform="rotate(90 345.421 56.5435)" fill="url(#paint2_linear_332_1336)"/>
<circle cx="308.796" cy="56.5435" r="4.88335" transform="rotate(90 308.796 56.5435)" fill="url(#paint3_linear_332_1336)"/>
<circle cx="327.109" cy="56.5435" r="4.88335" transform="rotate(90 327.109 56.5435)" fill="url(#paint4_linear_332_1336)"/>
<g filter="url(#filter2_d_332_1336)">
<circle cx="82.9906" cy="251.983" r="40.8734" fill="white"/>
</g>
<path d="M61.4775 227.54C47.9297 239.829 46.6602 260.767 58.6264 274.357C69.7623 286.96 88.3737 288.858 101.806 279.296L116.342 300.962L127.382 291.219L107.695 273.979C118.556 261.498 118.85 242.568 107.772 229.985C95.748 216.374 75.0252 215.251 61.4775 227.54ZM102.087 235.097C111.293 245.562 110.35 261.701 99.9324 271.087C89.4932 280.534 73.5979 279.669 64.3702 269.266C55.1643 258.801 56.1073 242.662 66.5247 233.276C76.9057 223.809 92.881 224.632 102.087 235.097Z" fill="url(#paint5_linear_332_1336)"/>
<path opacity="0.35" d="M94.8248 252.416C94.8248 259.159 89.7018 264.228 83.2444 264.228C76.7871 264.228 71.6641 259.159 71.6641 252.416C71.6641 245.672 76.7871 240.604 83.2444 240.604C89.7018 240.604 94.8248 245.672 94.8248 252.416Z" fill="white" stroke="url(#paint6_linear_332_1336)" stroke-width="13"/>
<g filter="url(#filter3_d_332_1336)">
<rect x="118.711" y="23.7305" width="64.7566" height="110.176" rx="5.11476" fill="white"/>
</g>
<g filter="url(#filter4_d_332_1336)">
<circle cx="151.468" cy="154.143" r="11.2425" transform="rotate(90 151.468 154.143)" fill="white"/>
</g>
<g filter="url(#filter5_d_332_1336)">
<path d="M151.472 159.389C148.575 159.389 146.226 157.041 146.226 154.143C146.226 151.245 148.575 148.896 151.472 148.896C154.37 148.896 156.719 151.245 156.719 154.143C156.719 157.041 154.37 159.389 151.472 159.389Z" fill="#5321ED"/>
</g>
<rect x="144.344" y="87.1387" width="30.1298" height="5.84608" rx="2.92304" fill="#F2F3FD"/>
<rect x="144.344" y="102.428" width="30.1298" height="5.84608" rx="2.92304" fill="#F2F3FD"/>
<rect x="144.344" y="117.268" width="30.1298" height="5.39638" rx="2.69819" fill="#F2F3FD"/>
<path d="M137.221 90.4114C137.221 93.126 135.021 95.3267 132.306 95.3267C129.591 95.3267 127.391 93.126 127.391 90.4114C127.391 87.6967 129.591 85.4961 132.306 85.4961C135.021 85.4961 137.221 87.6967 137.221 90.4114Z" fill="url(#paint7_linear_332_1336)"/>
<path d="M137.221 105.157C137.221 107.872 135.021 110.073 132.306 110.073C129.591 110.073 127.391 107.872 127.391 105.157C127.391 102.443 129.591 100.242 132.306 100.242C135.021 100.242 137.221 102.443 137.221 105.157Z" fill="url(#paint8_linear_332_1336)"/>
<path d="M137.221 119.903C137.221 122.618 135.021 124.818 132.306 124.818C129.591 124.818 127.391 122.618 127.391 119.903C127.391 117.188 129.591 114.988 132.306 114.988C135.021 114.988 137.221 117.188 137.221 119.903Z" fill="url(#paint9_linear_332_1336)"/>
<path d="M133.102 44.2644C133.102 40.8715 135.852 38.1211 139.245 38.1211H162.934C166.327 38.1211 169.077 40.8715 169.077 44.2644V67.9537C169.077 71.3465 166.327 74.097 162.934 74.097H139.245C135.852 74.097 133.102 71.3465 133.102 67.9537V44.2644Z" fill="url(#paint10_linear_332_1336)"/>
<g opacity="0.7" filter="url(#filter6_d_332_1336)">
<path d="M143.806 64.5645V47.5413H152.123C154.263 47.5413 155.868 47.9466 156.938 48.7572C158.024 49.5679 158.568 50.6379 158.568 51.9673C158.568 52.859 158.349 53.6372 157.911 54.3019C157.473 54.9504 156.873 55.453 156.111 55.8097C155.349 56.1664 154.474 56.3447 153.485 56.3447L153.947 55.3476C155.017 55.3476 155.965 55.526 156.792 55.8826C157.619 56.2231 158.26 56.7338 158.713 57.4147C159.184 58.0957 159.419 58.9306 159.419 59.9196C159.419 61.3787 158.843 62.5217 157.692 63.3485C156.541 64.1591 154.847 64.5645 152.609 64.5645H143.806ZM147.721 61.5976H152.318C153.339 61.5976 154.109 61.4354 154.628 61.1112C155.163 60.7707 155.43 60.2357 155.43 59.5061C155.43 58.7928 155.163 58.2659 154.628 57.9254C154.109 57.5687 153.339 57.3904 152.318 57.3904H147.43V54.5208H151.637C152.593 54.5208 153.323 54.3587 153.825 54.0344C154.344 53.694 154.604 53.1833 154.604 52.5023C154.604 51.8376 154.344 51.3431 153.825 51.0189C153.323 50.6784 152.593 50.5082 151.637 50.5082H147.721V61.5976Z" fill="url(#paint11_linear_332_1336)"/>
</g>
<g filter="url(#filter7_d_332_1336)">
<rect x="45.5625" y="85.0977" width="64.7566" height="110.176" rx="5.11476" fill="white"/>
</g>
<rect x="71.1953" y="148.506" width="30.1298" height="5.84608" rx="2.92304" fill="#F2F3FD"/>
<rect x="71.1953" y="163.795" width="30.1298" height="5.84608" rx="2.92304" fill="#F2F3FD"/>
<rect x="71.1953" y="178.635" width="30.1298" height="5.39638" rx="2.69819" fill="#F2F3FD"/>
<path d="M64.0728 151.779C64.0728 154.493 61.8721 156.694 59.1575 156.694C56.4428 156.694 54.2422 154.493 54.2422 151.779C54.2422 149.064 56.4428 146.863 59.1575 146.863C61.8721 146.863 64.0728 149.064 64.0728 151.779Z" fill="url(#paint12_linear_332_1336)"/>
<path d="M64.0728 166.525C64.0728 169.239 61.8721 171.44 59.1575 171.44C56.4428 171.44 54.2422 169.239 54.2422 166.525C54.2422 163.81 56.4428 161.609 59.1575 161.609C61.8721 161.609 64.0728 163.81 64.0728 166.525Z" fill="url(#paint13_linear_332_1336)"/>
<path d="M64.0728 181.27C64.0728 183.985 61.8721 186.185 59.1575 186.185C56.4428 186.185 54.2422 183.985 54.2422 181.27C54.2422 178.556 56.4428 176.355 59.1575 176.355C61.8721 176.355 64.0728 178.556 64.0728 181.27Z" fill="url(#paint14_linear_332_1336)"/>
<rect x="59.9531" y="99.4883" width="35.9759" height="35.9759" rx="6.14327" fill="url(#paint15_linear_332_1336)"/>
<g opacity="0.7" filter="url(#filter8_d_332_1336)">
<path d="M68.4084 125.932L75.9959 108.908H79.8869L87.4987 125.932H83.3645L77.1389 110.903H78.6953L72.4453 125.932H68.4084ZM72.2021 122.284L73.2479 119.293H82.0026L83.0726 122.284H72.2021Z" fill="url(#paint16_linear_332_1336)"/>
</g>
<g filter="url(#filter9_d_332_1336)">
<rect width="143.977" height="199.466" rx="6.58179" transform="matrix(-1 0 0 1 375.367 101.494)" fill="white"/>
</g>
<rect width="134.104" height="39.9669" rx="4.93634" transform="matrix(-1 0 0 1 370.43 106.369)" fill="url(#paint17_linear_332_1336)"/>
<rect x="-0.411362" y="0.411362" width="133.281" height="48.6428" rx="4.52498" transform="matrix(-1 0 0 1 369.607 151.271)" stroke="#E6DEFF" stroke-width="0.822724" stroke-dasharray="1.65 1.65"/>
<rect x="-0.411362" y="0.411362" width="133.281" height="35.9253" rx="4.52498" transform="matrix(-1 0 0 1 369.607 205.674)" stroke="#E6DEFF" stroke-width="0.822724" stroke-dasharray="1.65 1.65"/>
<g filter="url(#filter10_d_332_1336)">
<circle cx="14.809" cy="14.809" r="14.809" transform="matrix(-1 0 0 1 317.773 111.543)" fill="white"/>
</g>
<line x1="0.73131" y1="-0.73131" x2="5.85048" y2="-0.73131" transform="matrix(0 1 1 0 303.695 123.061)" stroke="#E756DF" stroke-width="1.46262" stroke-linecap="round"/>
<line x1="0.73131" y1="-0.73131" x2="5.85048" y2="-0.73131" transform="matrix(1 -8.74228e-08 -8.74228e-08 -1 299.672 125.621)" stroke="#E756DF" stroke-width="1.46262" stroke-linecap="round"/>
<g filter="url(#filter11_d_332_1336)">
<rect width="134.104" height="49.4656" rx="4.93634" transform="matrix(-1 0 0 1 322.234 174.582)" fill="url(#paint18_linear_332_1336)"/>
</g>
<path d="M302.768 191.409C302.768 193.722 304.639 195.597 306.946 195.597C309.254 195.597 311.125 193.722 311.125 191.409C311.125 189.096 309.254 187.221 306.946 187.221C304.639 187.221 302.768 189.096 302.768 191.409Z" fill="white"/>
<path d="M302.768 207.222C302.768 209.535 304.639 211.41 306.946 211.41C309.254 211.41 311.125 209.535 311.125 207.222C311.125 204.909 309.254 203.034 306.946 203.034C304.639 203.034 302.768 204.909 302.768 207.222Z" fill="white"/>
<rect width="92.5573" height="5.93411" rx="2.93391" transform="matrix(-1 0 0 1 293.406 188.441)" fill="white"/>
<rect width="92.5573" height="5.93411" rx="2.93391" transform="matrix(-1 0 0 1 293.406 204.256)" fill="white"/>
<rect x="-0.438975" y="0.438975" width="94.7477" height="27.4004" rx="13.7002" transform="matrix(-1 0 0 1 347.427 247.398)" fill="white" stroke="url(#paint19_linear_332_1336)" stroke-width="0.87795" stroke-dasharray="1.76 1.76"/>
<g filter="url(#filter12_d_332_1336)">
<rect width="115.336" height="34.1069" rx="17.0535" transform="matrix(-1 0 0 1 409.141 258.555)" fill="white"/>
</g>
<g filter="url(#filter13_d_332_1336)">
<rect width="107.527" height="26.2715" rx="13.1358" transform="matrix(1 -8.74228e-08 -8.74228e-08 -1 297.703 288.744)" fill="#E6DEFF"/>
</g>
<g filter="url(#filter14_d_332_1336)">
<path d="M321.141 275.284C321.141 273.066 322.939 271.268 325.157 271.268H379.55C381.768 271.268 383.567 273.066 383.567 275.284C383.567 277.503 381.768 279.301 379.55 279.301H325.157C322.939 279.301 321.141 277.503 321.141 275.284Z" fill="white"/>
</g>
<defs>
<filter id="filter0_d_332_1336" x="0.64044" y="30.584" width="366.602" height="237.541" filterUnits="userSpaceOnUse" color-interpolation-filters="sRGB">
<feFlood flood-opacity="0" result="BackgroundImageFix"/>
<feColorMatrix in="SourceAlpha" type="matrix" values="0 0 0 0 0 0 0 0 0 0 0 0 0 0 0 0 0 0 127 0" result="hardAlpha"/>
<feMorphology radius="0.871645" operator="dilate" in="SourceAlpha" result="effect1_dropShadow_332_1336"/>
<feOffset dy="-0.118911"/>
<feGaussianBlur stdDeviation="4.97443"/>
<feComposite in2="hardAlpha" operator="out"/>
<feColorMatrix type="matrix" values="0 0 0 0 0 0 0 0 0 0 0 0 0 0 0 0 0 0 0.12 0"/>
<feBlend mode="normal" in2="BackgroundImageFix" result="effect1_dropShadow_332_1336"/>
<feBlend mode="normal" in="SourceGraphic" in2="effect1_dropShadow_332_1336" result="shape"/>
</filter>
<filter id="filter1_d_332_1336" x="70.6399" y="142.664" width="201.079" height="100.525" filterUnits="userSpaceOnUse" color-interpolation-filters="sRGB">
<feFlood flood-opacity="0" result="BackgroundImageFix"/>
<feColorMatrix in="SourceAlpha" type="matrix" values="0 0 0 0 0 0 0 0 0 0 0 0 0 0 0 0 0 0 127 0" result="hardAlpha"/>
<feOffset dy="1.58309"/>
<feGaussianBlur stdDeviation="6.33237"/>
<feComposite in2="hardAlpha" operator="out"/>
<feColorMatrix type="matrix" values="0 0 0 0 0 0 0 0 0 0 0 0 0 0 0 0 0 0 0.09 0"/>
<feBlend mode="normal" in2="BackgroundImageFix" result="effect1_dropShadow_332_1336"/>
<feBlend mode="normal" in="SourceGraphic" in2="effect1_dropShadow_332_1336" result="shape"/>
</filter>
<filter id="filter2_d_332_1336" x="34.6036" y="204.231" width="96.7771" height="96.7732" filterUnits="userSpaceOnUse" color-interpolation-filters="sRGB">
<feFlood flood-opacity="0" result="BackgroundImageFix"/>
<feColorMatrix in="SourceAlpha" type="matrix" values="0 0 0 0 0 0 0 0 0 0 0 0 0 0 0 0 0 0 127 0" result="hardAlpha"/>
<feMorphology radius="0.635368" operator="dilate" in="SourceAlpha" result="effect1_dropShadow_332_1336"/>
<feOffset dy="0.635368"/>
<feGaussianBlur stdDeviation="3.43909"/>
<feComposite in2="hardAlpha" operator="out"/>
<feColorMatrix type="matrix" values="0 0 0 0 0 0 0 0 0 0 0 0 0 0 0 0 0 0 0.12 0"/>
<feBlend mode="normal" in2="BackgroundImageFix" result="effect1_dropShadow_332_1336"/>
<feBlend mode="normal" in="SourceGraphic" in2="effect1_dropShadow_332_1336" result="shape"/>
</filter>
<filter id="filter3_d_332_1336" x="113.729" y="18.7482" width="74.7224" height="120.14" filterUnits="userSpaceOnUse" color-interpolation-filters="sRGB">
<feFlood flood-opacity="0" result="BackgroundImageFix"/>
<feColorMatrix in="SourceAlpha" type="matrix" values="0 0 0 0 0 0 0 0 0 0 0 0 0 0 0 0 0 0 127 0" result="hardAlpha"/>
<feOffset/>
<feGaussianBlur stdDeviation="2.49114"/>
<feComposite in2="hardAlpha" operator="out"/>
<feColorMatrix type="matrix" values="0 0 0 0 0.137255 0 0 0 0 0.137255 0 0 0 0 0.137255 0 0 0 0.1 0"/>
<feBlend mode="multiply" in2="BackgroundImageFix" result="effect1_dropShadow_332_1336"/>
<feBlend mode="normal" in="SourceGraphic" in2="effect1_dropShadow_332_1336" result="shape"/>
</filter>
<filter id="filter4_d_332_1336" x="135.751" y="138.922" width="31.4352" height="31.4352" filterUnits="userSpaceOnUse" color-interpolation-filters="sRGB">
<feFlood flood-opacity="0" result="BackgroundImageFix"/>
<feColorMatrix in="SourceAlpha" type="matrix" values="0 0 0 0 0 0 0 0 0 0 0 0 0 0 0 0 0 0 127 0" result="hardAlpha"/>
<feMorphology radius="0.497266" operator="dilate" in="SourceAlpha" result="effect1_dropShadow_332_1336"/>
<feOffset dy="0.497266"/>
<feGaussianBlur stdDeviation="1.98906"/>
<feComposite in2="hardAlpha" operator="out"/>
<feColorMatrix type="matrix" values="0 0 0 0 0 0 0 0 0 0 0 0 0 0 0 0 0 0 0.09 0"/>
<feBlend mode="normal" in2="BackgroundImageFix" result="effect1_dropShadow_332_1336"/>
<feBlend mode="normal" in="SourceGraphic" in2="effect1_dropShadow_332_1336" result="shape"/>
</filter>
<filter id="filter5_d_332_1336" x="144.862" y="147.532" width="13.222" height="13.222" filterUnits="userSpaceOnUse" color-interpolation-filters="sRGB">
<feFlood flood-opacity="0" result="BackgroundImageFix"/>
<feColorMatrix in="SourceAlpha" type="matrix" values="0 0 0 0 0 0 0 0 0 0 0 0 0 0 0 0 0 0 127 0" result="hardAlpha"/>
<feMorphology radius="0.364884" operator="dilate" in="SourceAlpha" result="effect1_dropShadow_332_1336"/>
<feOffset/>
<feGaussianBlur stdDeviation="0.5"/>
<feComposite in2="hardAlpha" operator="out"/>
<feColorMatrix type="matrix" values="0 0 0 0 0.137255 0 0 0 0 0.137255 0 0 0 0 0.137255 0 0 0 0.2 0"/>
<feBlend mode="normal" in2="BackgroundImageFix" result="effect1_dropShadow_332_1336"/>
<feBlend mode="normal" in="SourceGraphic" in2="effect1_dropShadow_332_1336" result="shape"/>
</filter>
<filter id="filter6_d_332_1336" x="139.689" y="43.4256" width="23.848" height="25.2542" filterUnits="userSpaceOnUse" color-interpolation-filters="sRGB">
<feFlood flood-opacity="0" result="BackgroundImageFix"/>
<feColorMatrix in="SourceAlpha" type="matrix" values="0 0 0 0 0 0 0 0 0 0 0 0 0 0 0 0 0 0 127 0" result="hardAlpha"/>
<feOffset/>
<feGaussianBlur stdDeviation="2.0577"/>
<feComposite in2="hardAlpha" operator="out"/>
<feColorMatrix type="matrix" values="0 0 0 0 0.916551 0 0 0 0 0.594113 0 0 0 0 0.215599 0 0 0 0.75 0"/>
<feBlend mode="normal" in2="BackgroundImageFix" result="effect1_dropShadow_332_1336"/>
<feBlend mode="normal" in="SourceGraphic" in2="effect1_dropShadow_332_1336" result="shape"/>
</filter>
<filter id="filter7_d_332_1336" x="40.5802" y="80.1154" width="74.7224" height="120.14" filterUnits="userSpaceOnUse" color-interpolation-filters="sRGB">
<feFlood flood-opacity="0" result="BackgroundImageFix"/>
<feColorMatrix in="SourceAlpha" type="matrix" values="0 0 0 0 0 0 0 0 0 0 0 0 0 0 0 0 0 0 127 0" result="hardAlpha"/>
<feOffset/>
<feGaussianBlur stdDeviation="2.49114"/>
<feComposite in2="hardAlpha" operator="out"/>
<feColorMatrix type="matrix" values="0 0 0 0 0.137255 0 0 0 0 0.137255 0 0 0 0 0.137255 0 0 0 0.1 0"/>
<feBlend mode="multiply" in2="BackgroundImageFix" result="effect1_dropShadow_332_1336"/>
<feBlend mode="normal" in="SourceGraphic" in2="effect1_dropShadow_332_1336" result="shape"/>
</filter>
<filter id="filter8_d_332_1336" x="64.2909" y="104.793" width="27.3245" height="25.2542" filterUnits="userSpaceOnUse" color-interpolation-filters="sRGB">
<feFlood flood-opacity="0" result="BackgroundImageFix"/>
<feColorMatrix in="SourceAlpha" type="matrix" values="0 0 0 0 0 0 0 0 0 0 0 0 0 0 0 0 0 0 127 0" result="hardAlpha"/>
<feOffset/>
<feGaussianBlur stdDeviation="2.0577"/>
<feComposite in2="hardAlpha" operator="out"/>
<feColorMatrix type="matrix" values="0 0 0 0 0.878431 0 0 0 0 0.286275 0 0 0 0 0.847059 0 0 0 0.75 0"/>
<feBlend mode="normal" in2="BackgroundImageFix" result="effect1_dropShadow_332_1336"/>
<feBlend mode="normal" in="SourceGraphic" in2="effect1_dropShadow_332_1336" result="shape"/>
</filter>
<filter id="filter9_d_332_1336" x="225.614" y="95.7171" width="155.531" height="211.019" filterUnits="userSpaceOnUse" color-interpolation-filters="sRGB">
<feFlood flood-opacity="0" result="BackgroundImageFix"/>
<feColorMatrix in="SourceAlpha" type="matrix" values="0 0 0 0 0 0 0 0 0 0 0 0 0 0 0 0 0 0 127 0" result="hardAlpha"/>
<feOffset/>
<feGaussianBlur stdDeviation="2.88852"/>
<feComposite in2="hardAlpha" operator="out"/>
<feColorMatrix type="matrix" values="0 0 0 0 0 0 0 0 0 0 0 0 0 0 0 0 0 0 0.1 0"/>
<feBlend mode="normal" in2="BackgroundImageFix" result="effect1_dropShadow_332_1336"/>
<feBlend mode="normal" in="SourceGraphic" in2="effect1_dropShadow_332_1336" result="shape"/>
</filter>
<filter id="filter10_d_332_1336" x="280.501" y="104.738" width="44.928" height="44.928" filterUnits="userSpaceOnUse" color-interpolation-filters="sRGB">
<feFlood flood-opacity="0" result="BackgroundImageFix"/>
<feColorMatrix in="SourceAlpha" type="matrix" values="0 0 0 0 0 0 0 0 0 0 0 0 0 0 0 0 0 0 127 0" result="hardAlpha"/>
<feMorphology radius="0.8506" operator="dilate" in="SourceAlpha" result="effect1_dropShadow_332_1336"/>
<feOffset dy="0.8506"/>
<feGaussianBlur stdDeviation="3.4024"/>
<feComposite in2="hardAlpha" operator="out"/>
<feColorMatrix type="matrix" values="0 0 0 0 0 0 0 0 0 0 0 0 0 0 0 0 0 0 0.09 0"/>
<feBlend mode="normal" in2="BackgroundImageFix" result="effect1_dropShadow_332_1336"/>
<feBlend mode="normal" in="SourceGraphic" in2="effect1_dropShadow_332_1336" result="shape"/>
</filter>
<filter id="filter11_d_332_1336" x="182.743" y="169.192" width="144.882" height="60.2448" filterUnits="userSpaceOnUse" color-interpolation-filters="sRGB">
<feFlood flood-opacity="0" result="BackgroundImageFix"/>
<feColorMatrix in="SourceAlpha" type="matrix" values="0 0 0 0 0 0 0 0 0 0 0 0 0 0 0 0 0 0 127 0" result="hardAlpha"/>
<feOffset/>
<feGaussianBlur stdDeviation="2.695"/>
<feComposite in2="hardAlpha" operator="out"/>
<feColorMatrix type="matrix" values="0 0 0 0 0.137255 0 0 0 0 0.137255 0 0 0 0 0.137255 0 0 0 0.14 0"/>
<feBlend mode="normal" in2="BackgroundImageFix" result="effect1_dropShadow_332_1336"/>
<feBlend mode="normal" in="SourceGraphic" in2="effect1_dropShadow_332_1336" result="shape"/>
</filter>
<filter id="filter12_d_332_1336" x="290.645" y="255.395" width="121.656" height="40.4274" filterUnits="userSpaceOnUse" color-interpolation-filters="sRGB">
<feFlood flood-opacity="0" result="BackgroundImageFix"/>
<feColorMatrix in="SourceAlpha" type="matrix" values="0 0 0 0 0 0 0 0 0 0 0 0 0 0 0 0 0 0 127 0" result="hardAlpha"/>
<feOffset/>
<feGaussianBlur stdDeviation="1.58"/>
<feComposite in2="hardAlpha" operator="out"/>
<feColorMatrix type="matrix" values="0 0 0 0 0.137255 0 0 0 0 0.137255 0 0 0 0 0.137255 0 0 0 0.16 0"/>
<feBlend mode="normal" in2="BackgroundImageFix" result="effect1_dropShadow_332_1336"/>
<feBlend mode="normal" in="SourceGraphic" in2="effect1_dropShadow_332_1336" result="shape"/>
</filter>
<filter id="filter13_d_332_1336" x="295.851" y="260.62" width="111.228" height="29.976" filterUnits="userSpaceOnUse" color-interpolation-filters="sRGB">
<feFlood flood-opacity="0" result="BackgroundImageFix"/>
<feColorMatrix in="SourceAlpha" type="matrix" values="0 0 0 0 0 0 0 0 0 0 0 0 0 0 0 0 0 0 127 0" result="hardAlpha"/>
<feOffset/>
<feGaussianBlur stdDeviation="0.926139"/>
<feComposite in2="hardAlpha" operator="out"/>
<feColorMatrix type="matrix" values="0 0 0 0 0 0 0 0 0 0 0 0 0 0 0 0 0 0 0.19 0"/>
<feBlend mode="normal" in2="BackgroundImageFix" result="effect1_dropShadow_332_1336"/>
<feBlend mode="normal" in="SourceGraphic" in2="effect1_dropShadow_332_1336" result="shape"/>
</filter>
<filter id="filter14_d_332_1336" x="318.564" y="269.979" width="67.5825" height="13.186" filterUnits="userSpaceOnUse" color-interpolation-filters="sRGB">
<feFlood flood-opacity="0" result="BackgroundImageFix"/>
<feColorMatrix in="SourceAlpha" type="matrix" values="0 0 0 0 0 0 0 0 0 0 0 0 0 0 0 0 0 0 127 0" result="hardAlpha"/>
<feOffset dy="1.28819"/>
<feGaussianBlur stdDeviation="1.28819"/>
<feComposite in2="hardAlpha" operator="out"/>
<feColorMatrix type="matrix" values="0 0 0 0 0 0 0 0 0 0 0 0 0 0 0 0 0 0 0.1 0"/>
<feBlend mode="normal" in2="BackgroundImageFix" result="effect1_dropShadow_332_1336"/>
<feBlend mode="normal" in="SourceGraphic" in2="effect1_dropShadow_332_1336" result="shape"/>
</filter>
<linearGradient id="paint0_linear_332_1336" x1="409.142" y1="101.179" x2="305.822" y2="101.179" gradientUnits="userSpaceOnUse">
<stop offset="0.149245" stop-color="#FFA140"/>
<stop offset="1" stop-color="#EA5CE2"/>
</linearGradient>
<linearGradient id="paint1_linear_332_1336" x1="259.052" y1="228.442" x2="78.123" y2="228.442" gradientUnits="userSpaceOnUse">
<stop offset="0.149245" stop-color="#FFA140"/>
<stop offset="1" stop-color="#EA5CE2"/>
</linearGradient>
<linearGradient id="paint2_linear_332_1336" x1="331.124" y1="49.396" x2="354.435" y2="54.0185" gradientUnits="userSpaceOnUse">
<stop offset="0.223544" stop-color="white"/>
<stop offset="1" stop-color="#F68818"/>
</linearGradient>
<linearGradient id="paint3_linear_332_1336" x1="304.296" y1="52.3912" x2="314.2" y2="58.7875" gradientUnits="userSpaceOnUse">
<stop stop-color="#FFDAFD"/>
<stop offset="0.508047" stop-color="#FFA6FA"/>
<stop offset="1" stop-color="#F460EC"/>
</linearGradient>
<linearGradient id="paint4_linear_332_1336" x1="320.698" y1="53.3448" x2="332.423" y2="58.6394" gradientUnits="userSpaceOnUse">
<stop stop-color="#FEFEFF"/>
<stop offset="1" stop-color="#8760FF"/>
</linearGradient>
<linearGradient id="paint5_linear_332_1336" x1="53.4419" y1="225.139" x2="134.294" y2="274.173" gradientUnits="userSpaceOnUse">
<stop stop-color="#FFDBB5"/>
<stop offset="0.513256" stop-color="#FFB160"/>
<stop offset="1" stop-color="#FF972C"/>
</linearGradient>
<linearGradient id="paint6_linear_332_1336" x1="66.5831" y1="236.845" x2="103.524" y2="260.401" gradientUnits="userSpaceOnUse">
<stop stop-color="#FFDAFD"/>
<stop offset="0.508047" stop-color="#FFA6FA"/>
<stop offset="1" stop-color="#F460EC"/>
</linearGradient>
<linearGradient id="paint7_linear_332_1336" x1="127.776" y1="88.4394" x2="141.544" y2="90.6624" gradientUnits="userSpaceOnUse">
<stop stop-color="#FFDBB5"/>
<stop offset="0.513256" stop-color="#FFB160"/>
<stop offset="1" stop-color="#FF972C"/>
</linearGradient>
<linearGradient id="paint8_linear_332_1336" x1="127.776" y1="88.4394" x2="141.544" y2="90.6624" gradientUnits="userSpaceOnUse">
<stop stop-color="#FFDBB5"/>
<stop offset="0.513256" stop-color="#FFB160"/>
<stop offset="1" stop-color="#FF972C"/>
</linearGradient>
<linearGradient id="paint9_linear_332_1336" x1="127.776" y1="88.4394" x2="141.544" y2="90.6624" gradientUnits="userSpaceOnUse">
<stop stop-color="#FFDBB5"/>
<stop offset="0.513256" stop-color="#FFB160"/>
<stop offset="1" stop-color="#FF972C"/>
</linearGradient>
<linearGradient id="paint10_linear_332_1336" x1="204.566" y1="62.2706" x2="121.695" y2="31.4469" gradientUnits="userSpaceOnUse">
<stop stop-color="#FFDDB5"/>
<stop offset="1" stop-color="#FFF8EE"/>
</linearGradient>
<linearGradient id="paint11_linear_332_1336" x1="139.974" y1="55.8389" x2="162.892" y2="55.8389" gradientUnits="userSpaceOnUse">
<stop stop-color="#FFA84E"/>
<stop offset="1" stop-color="#F58716"/>
</linearGradient>
<linearGradient id="paint12_linear_332_1336" x1="54.628" y1="149.807" x2="68.3953" y2="152.03" gradientUnits="userSpaceOnUse">
<stop stop-color="#FFDAFD"/>
<stop offset="0.508047" stop-color="#FFA6FA"/>
<stop offset="1" stop-color="#F460EC"/>
</linearGradient>
<linearGradient id="paint13_linear_332_1336" x1="54.628" y1="149.807" x2="68.3953" y2="152.03" gradientUnits="userSpaceOnUse">
<stop stop-color="#FFDAFD"/>
<stop offset="0.508047" stop-color="#FFA6FA"/>
<stop offset="1" stop-color="#F460EC"/>
</linearGradient>
<linearGradient id="paint14_linear_332_1336" x1="54.628" y1="149.807" x2="68.3953" y2="152.03" gradientUnits="userSpaceOnUse">
<stop stop-color="#FFDAFD"/>
<stop offset="0.508047" stop-color="#FFA6FA"/>
<stop offset="1" stop-color="#F460EC"/>
</linearGradient>
<linearGradient id="paint15_linear_332_1336" x1="131.417" y1="123.638" x2="48.5466" y2="92.8141" gradientUnits="userSpaceOnUse">
<stop stop-color="#FFB5FB"/>
<stop offset="1" stop-color="#FFEEFE"/>
</linearGradient>
<linearGradient id="paint16_linear_332_1336" x1="88.2799" y1="125.481" x2="66.9838" y2="125.481" gradientUnits="userSpaceOnUse">
<stop offset="0.000591176" stop-color="#EA5CE2"/>
<stop offset="1" stop-color="#D93BD1"/>
</linearGradient>
<linearGradient id="paint17_linear_332_1336" x1="-261.906" y1="-20.9241" x2="-89.8734" y2="307.745" gradientUnits="userSpaceOnUse">
<stop stop-color="#FF72F8"/>
<stop offset="1" stop-color="white" stop-opacity="0"/>
</linearGradient>
<linearGradient id="paint18_linear_332_1336" x1="134.104" y1="49.4656" x2="-3.95392" y2="49.4656" gradientUnits="userSpaceOnUse">
<stop offset="0.149245" stop-color="#FFA140"/>
<stop offset="1" stop-color="#EA5CE2"/>
</linearGradient>
<linearGradient id="paint19_linear_332_1336" x1="95.6257" y1="28.2783" x2="-2.81943" y2="28.2783" gradientUnits="userSpaceOnUse">
<stop offset="0.149245" stop-color="#FFA140"/>
<stop offset="1" stop-color="#EA5CE2"/>
</linearGradient>
</defs>
</svg>
