<svg width="422" height="326" viewBox="0 0 422 326" fill="none" xmlns="http://www.w3.org/2000/svg">
<g filter="url(#filter0_d_332_693)">
<g filter="url(#filter1_d_332_693)">
<rect x="13.8281" y="35.3867" width="279.44" height="228.903" rx="7.85163" fill="white"/>
</g>
<rect x="22.75" y="66.1055" width="264.576" height="191.248" rx="5.23442" fill="#F2F3FD"/>
<circle cx="64.0307" cy="50.5435" r="4.88335" transform="rotate(90 64.0307 50.5435)" fill="url(#paint0_linear_332_693)"/>
<circle cx="27.4057" cy="50.5435" r="4.88335" transform="rotate(90 27.4057 50.5435)" fill="url(#paint1_linear_332_693)"/>
<circle cx="45.7182" cy="50.5435" r="4.88335" transform="rotate(90 45.7182 50.5435)" fill="url(#paint2_linear_332_693)"/>
<g filter="url(#filter2_d_332_693)">
<rect x="196.578" y="17.5508" width="175.962" height="99.1462" rx="11.8217" fill="#F2F3FD"/>
<rect x="199.175" y="20.148" width="170.768" height="93.9517" rx="9.22445" stroke="white" stroke-width="5.19448"/>
</g>
<path d="M354.598 38.4746C348.837 65.5503 335.006 95.4466 319.317 83.244C310.156 76.1184 300.994 61.8672 294.12 65.5503C280.055 73.0859 271.453 110.378 250.539 92.5137C230.671 75.5428 235.299 103.762 210.289 101.697" stroke="url(#paint3_linear_332_693)" stroke-width="3.05383" stroke-miterlimit="10" stroke-linecap="round"/>
<path d="M361.294 37.5806C361.294 41.082 358.543 43.833 355.042 43.833C351.54 43.833 348.789 41.082 348.789 37.5806C348.789 34.0792 351.54 31.3281 355.042 31.3281C358.543 31.3281 361.294 34.0792 361.294 37.5806Z" fill="white" stroke="url(#paint4_linear_332_693)" stroke-width="3.18802"/>
<path d="M301.661 64.7427C301.661 67.4938 299.5 69.6554 296.749 69.6554C293.998 69.6554 291.836 67.4938 291.836 64.7427C291.836 61.9916 293.998 59.8301 296.749 59.8301C299.5 59.8301 301.661 61.9916 301.661 64.7427Z" fill="url(#paint5_linear_332_693)"/>
<path d="M245.052 87.1529C245.052 89.904 242.89 92.0655 240.139 92.0655C237.388 92.0655 235.227 89.904 235.227 87.1529C235.227 84.4018 237.388 82.2402 240.139 82.2402C242.89 82.2402 245.052 84.4018 245.052 87.1529Z" fill="url(#paint6_linear_332_693)"/>
<path d="M353.884 72.3227C341.91 85.84 337.404 57.9328 327.871 57.9328C321.678 57.9328 319.192 63.6285 313.083 63.6285C303.586 63.6285 301.721 36.3389 292.595 35.415C279.877 34.1272 270.528 94.4665 250.658 76.8376C229.35 57.9328 234.8 92.3652 209.531 94.8425" stroke="url(#paint7_linear_332_693)" stroke-width="0.763457" stroke-miterlimit="6.2278" stroke-linecap="round" stroke-dasharray="2.04 2.04"/>
<path d="M357.143 71.0403C357.143 72.4825 356.01 73.6157 354.568 73.6157C353.125 73.6157 351.992 72.4825 351.992 71.0403C351.992 69.598 353.125 68.4648 354.568 68.4648C356.01 68.4648 357.143 69.598 357.143 71.0403Z" fill="url(#paint8_linear_332_693)"/>
<g filter="url(#filter3_d_332_693)">
<rect width="63.4734" height="63.4734" rx="2.40911" transform="matrix(-1 0 0 1 368.633 200.93)" fill="white"/>
</g>
<g filter="url(#filter4_d_332_693)">
<path opacity="0.2" d="M322.164 217.455C325.971 213.524 331.159 211.131 336.898 211.131V232.666L322.164 217.455Z" fill="url(#paint9_linear_332_693)"/>
<path d="M321.517 217.455L336.328 232.666V211.131C342.153 211.131 347.367 213.524 351.195 217.455C354.967 221.329 357.297 226.684 357.297 232.666V232.723C357.297 238.649 354.912 244.004 351.139 247.935C347.367 251.809 342.153 254.202 336.328 254.202C330.503 254.202 325.344 251.809 321.517 247.935C317.744 244.061 315.359 238.706 315.359 232.723V232.666C315.415 226.684 317.744 221.329 321.517 217.455Z" fill="url(#paint10_linear_332_693)"/>
</g>
<g filter="url(#filter5_d_332_693)">
<path d="M408.143 212.287C408.143 214.659 406.229 216.581 403.857 216.581C394.684 216.581 373.356 216.581 365.595 216.581C355.592 216.581 347.766 208.406 347.766 198.322C347.766 188.238 355.592 180.063 365.595 180.063C370.619 180.063 394.088 180.063 403.858 180.063C406.231 180.063 408.143 181.985 408.143 184.357L408.143 212.287Z" fill="url(#paint11_linear_332_693)"/>
</g>
<path d="M377.377 187.484V192.016L372.898 192.016L372.898 187.484L377.377 187.484Z" fill="white"/>
<path d="M377.377 204.628V209.16H372.898L372.898 204.628H377.377Z" fill="white"/>
<path fill-rule="evenodd" clip-rule="evenodd" d="M371.727 192.018L371.727 187.484L365.875 187.484C359.89 187.484 355.038 192.337 355.038 198.322C355.038 204.308 359.89 209.16 365.875 209.16L371.727 209.16L371.727 204.627L366.129 204.627C362.648 204.627 359.825 201.804 359.825 198.322C359.825 194.84 362.648 192.018 366.129 192.018L371.727 192.018Z" fill="white"/>
<path d="M392.58 197.081C397.267 197.066 401.08 200.519 401.089 205.551C401.092 207.415 397.37 209.237 392.602 209.253C387.834 209.269 384.105 207.472 384.102 205.618C384.092 200.576 387.893 197.097 392.58 197.081Z" fill="white"/>
<path d="M392.578 196.019C394.928 196.011 396.83 194.094 396.826 191.737C396.822 189.381 394.913 187.476 392.563 187.484C390.212 187.492 388.31 189.409 388.314 191.766C388.319 194.123 390.228 196.027 392.578 196.019Z" fill="white"/>
<g filter="url(#filter6_d_332_693)">
<path d="M80.4846 85.0487C75.6933 80.0491 69.1661 77.0059 61.875 77.0059V104.395H88.1229V104.323C88.1229 96.7869 85.2065 89.9758 80.4846 85.0487Z" fill="white"/>
<path opacity="0.3" d="M80.4846 85.0487C75.6933 80.0491 69.1661 77.0059 61.875 77.0059V104.395H88.1229V104.323C88.1229 96.7869 85.2065 89.9758 80.4846 85.0487Z" fill="url(#paint12_linear_332_693)"/>
<path d="M61.8035 103.824V77.0059C54.5818 77.0059 47.9851 79.9857 43.2633 84.8811C38.5414 89.7056 35.625 96.3748 35.625 103.824V103.895C35.625 111.274 38.6109 117.943 43.3327 122.839C48.0546 127.663 54.5818 130.643 61.8729 130.643C69.164 130.643 75.6218 127.663 80.4131 122.839C85.1349 118.014 88.1208 111.345 88.1208 103.895H61.8035V103.824Z" fill="url(#paint13_linear_332_693)"/>
</g>
</g>
<g filter="url(#filter7_d_332_693)">
<path d="M235.412 318.28L68.8736 318.28C63.6751 318.28 59.4219 314.027 59.4219 308.828L59.4219 204.151C59.4219 198.952 63.6751 194.699 68.8736 194.699L235.412 194.699C240.611 194.699 244.864 198.952 244.864 204.151L244.864 308.781C244.864 314.027 240.611 318.28 235.412 318.28Z" fill="#F2F3FD"/>
<path d="M155.018 239.783L244.856 308.781C244.856 313.979 240.603 318.232 235.405 318.232L68.8658 318.232C63.6673 318.232 59.4141 313.979 59.4141 308.781L149.252 239.783C150.954 238.507 153.317 238.507 155.018 239.783Z" fill="#E6DEFF"/>
<path d="M155.025 130.467L240.993 196.537C243.433 198.412 245.152 201.505 243.624 204.177C241.992 207.03 238.917 208.963 235.412 208.963L68.873 208.963C65.3689 208.963 62.2944 207.031 60.6623 204.179C59.1329 201.506 60.8527 198.412 63.2947 196.537L149.26 130.514C150.961 129.191 153.324 129.191 155.025 130.467Z" fill="#E6DEFF"/>
<path d="M149.26 273.196L59.4219 204.151C59.4219 198.953 63.6751 194.699 68.8736 194.699L235.412 194.699C240.611 194.699 244.864 198.953 244.864 204.151L155.026 273.149C153.324 274.472 150.962 274.472 149.26 273.196Z" fill="#E6DEFF"/>
</g>
<g filter="url(#filter8_d_332_693)">
<path d="M222.663 153.186V221.287L155.158 273.123C153.378 274.489 150.902 274.489 149.123 273.123L81.6172 221.287V153.186H222.663Z" fill="white"/>
</g>
<g filter="url(#filter9_d_332_693)">
<path d="M127.445 229.744L176.833 229.744C183.652 229.744 189.18 224.216 189.18 217.397L189.18 190.418C189.18 183.598 183.652 178.071 176.833 178.071L127.445 178.071C120.626 178.071 115.098 183.598 115.098 190.418L115.098 217.397C115.098 224.216 120.626 229.744 127.445 229.744Z" fill="url(#paint14_linear_332_693)"/>
</g>
<path d="M148.028 216.254C147.486 216.257 146.949 216.153 146.448 215.948C145.946 215.743 145.49 215.442 145.106 215.06L136.874 206.829C136.099 206.054 135.664 205.003 135.664 203.907C135.664 202.811 136.099 201.76 136.874 200.985C137.649 200.21 138.701 199.774 139.797 199.774C140.893 199.774 141.944 200.21 142.719 200.985L148.028 206.335L161.568 192.753C162.343 191.978 163.394 191.543 164.49 191.543C165.586 191.543 166.638 191.978 167.413 192.753C168.188 193.528 168.623 194.579 168.623 195.675C168.623 196.771 168.188 197.823 167.413 198.598L150.95 215.06C150.565 215.442 150.109 215.743 149.608 215.948C149.106 216.153 148.57 216.257 148.028 216.254Z" fill="white"/>
<defs>
<filter id="filter0_d_332_693" x="0.614036" y="9.62233" width="420.741" height="273.28" filterUnits="userSpaceOnUse" color-interpolation-filters="sRGB">
<feFlood flood-opacity="0" result="BackgroundImageFix"/>
<feColorMatrix in="SourceAlpha" type="matrix" values="0 0 0 0 0 0 0 0 0 0 0 0 0 0 0 0 0 0 127 0" result="hardAlpha"/>
<feOffset dy="5.28563"/>
<feGaussianBlur stdDeviation="6.60704"/>
<feComposite in2="hardAlpha" operator="out"/>
<feColorMatrix type="matrix" values="0 0 0 0 0 0 0 0 0 0 0 0 0 0 0 0 0 0 0.05 0"/>
<feBlend mode="normal" in2="BackgroundImageFix" result="effect1_dropShadow_332_693"/>
<feBlend mode="normal" in="SourceGraphic" in2="effect1_dropShadow_332_693" result="shape"/>
</filter>
<filter id="filter1_d_332_693" x="3.00763" y="24.4473" width="301.078" height="250.543" filterUnits="userSpaceOnUse" color-interpolation-filters="sRGB">
<feFlood flood-opacity="0" result="BackgroundImageFix"/>
<feColorMatrix in="SourceAlpha" type="matrix" values="0 0 0 0 0 0 0 0 0 0 0 0 0 0 0 0 0 0 127 0" result="hardAlpha"/>
<feMorphology radius="0.871645" operator="dilate" in="SourceAlpha" result="effect1_dropShadow_332_693"/>
<feOffset dy="-0.118911"/>
<feGaussianBlur stdDeviation="4.97443"/>
<feComposite in2="hardAlpha" operator="out"/>
<feColorMatrix type="matrix" values="0 0 0 0 0 0 0 0 0 0 0 0 0 0 0 0 0 0 0.05 0"/>
<feBlend mode="normal" in2="BackgroundImageFix" result="effect1_dropShadow_332_693"/>
<feBlend mode="normal" in="SourceGraphic" in2="effect1_dropShadow_332_693" result="shape"/>
</filter>
<filter id="filter2_d_332_693" x="179.284" y="0.257048" width="210.548" height="133.734" filterUnits="userSpaceOnUse" color-interpolation-filters="sRGB">
<feFlood flood-opacity="0" result="BackgroundImageFix"/>
<feColorMatrix in="SourceAlpha" type="matrix" values="0 0 0 0 0 0 0 0 0 0 0 0 0 0 0 0 0 0 127 0" result="hardAlpha"/>
<feOffset/>
<feGaussianBlur stdDeviation="8.64687"/>
<feComposite in2="hardAlpha" operator="out"/>
<feColorMatrix type="matrix" values="0 0 0 0 0 0 0 0 0 0 0 0 0 0 0 0 0 0 0.08 0"/>
<feBlend mode="normal" in2="BackgroundImageFix" result="effect1_dropShadow_332_693"/>
<feBlend mode="normal" in="SourceGraphic" in2="effect1_dropShadow_332_693" result="shape"/>
</filter>
<filter id="filter3_d_332_693" x="296.377" y="192.685" width="81.0353" height="81.0314" filterUnits="userSpaceOnUse" color-interpolation-filters="sRGB">
<feFlood flood-opacity="0" result="BackgroundImageFix"/>
<feColorMatrix in="SourceAlpha" type="matrix" values="0 0 0 0 0 0 0 0 0 0 0 0 0 0 0 0 0 0 127 0" result="hardAlpha"/>
<feMorphology radius="0.534892" operator="dilate" in="SourceAlpha" result="effect1_dropShadow_332_693"/>
<feOffset dy="0.534892"/>
<feGaussianBlur stdDeviation="4.12223"/>
<feComposite in2="hardAlpha" operator="out"/>
<feColorMatrix type="matrix" values="0 0 0 0 0 0 0 0 0 0 0 0 0 0 0 0 0 0 0.07 0"/>
<feBlend mode="normal" in2="BackgroundImageFix" result="effect1_dropShadow_332_693"/>
<feBlend mode="normal" in="SourceGraphic" in2="effect1_dropShadow_332_693" result="shape"/>
</filter>
<filter id="filter4_d_332_693" x="310.072" y="207.674" width="52.512" height="53.6448" filterUnits="userSpaceOnUse" color-interpolation-filters="sRGB">
<feFlood flood-opacity="0" result="BackgroundImageFix"/>
<feColorMatrix in="SourceAlpha" type="matrix" values="0 0 0 0 0 0 0 0 0 0 0 0 0 0 0 0 0 0 127 0" result="hardAlpha"/>
<feMorphology radius="0.406386" operator="dilate" in="SourceAlpha" result="effect1_dropShadow_332_693"/>
<feOffset dy="1.83033"/>
<feGaussianBlur stdDeviation="2.44044"/>
<feComposite in2="hardAlpha" operator="out"/>
<feColorMatrix type="matrix" values="0 0 0 0 1 0 0 0 0 0.795576 0 0 0 0 0.555599 0 0 0 0.56 0"/>
<feBlend mode="normal" in2="BackgroundImageFix" result="effect1_dropShadow_332_693"/>
<feBlend mode="normal" in="SourceGraphic" in2="effect1_dropShadow_332_693" result="shape"/>
</filter>
<filter id="filter5_d_332_693" x="342.039" y="174.336" width="71.8281" height="47.9727" filterUnits="userSpaceOnUse" color-interpolation-filters="sRGB">
<feFlood flood-opacity="0" result="BackgroundImageFix"/>
<feColorMatrix in="SourceAlpha" type="matrix" values="0 0 0 0 0 0 0 0 0 0 0 0 0 0 0 0 0 0 127 0" result="hardAlpha"/>
<feOffset/>
<feGaussianBlur stdDeviation="2.86328"/>
<feComposite in2="hardAlpha" operator="out"/>
<feColorMatrix type="matrix" values="0 0 0 0 0 0 0 0 0 0 0 0 0 0 0 0 0 0 0.12 0"/>
<feBlend mode="normal" in2="BackgroundImageFix" result="effect1_dropShadow_332_693"/>
<feBlend mode="normal" in="SourceGraphic" in2="effect1_dropShadow_332_693" result="shape"/>
</filter>
<filter id="filter6_d_332_693" x="28.4222" y="72.2965" width="66.9056" height="68.0423" filterUnits="userSpaceOnUse" color-interpolation-filters="sRGB">
<feFlood flood-opacity="0" result="BackgroundImageFix"/>
<feColorMatrix in="SourceAlpha" type="matrix" values="0 0 0 0 0 0 0 0 0 0 0 0 0 0 0 0 0 0 127 0" result="hardAlpha"/>
<feMorphology radius="0.553616" operator="dilate" in="SourceAlpha" result="effect1_dropShadow_332_693"/>
<feOffset dy="2.49344"/>
<feGaussianBlur stdDeviation="3.32458"/>
<feComposite in2="hardAlpha" operator="out"/>
<feColorMatrix type="matrix" values="0 0 0 0 1 0 0 0 0 0.555599 0 0 0 0 0.982224 0 0 0 0.45 0"/>
<feBlend mode="normal" in2="BackgroundImageFix" result="effect1_dropShadow_332_693"/>
<feBlend mode="normal" in="SourceGraphic" in2="effect1_dropShadow_332_693" result="shape"/>
</filter>
<filter id="filter7_d_332_693" x="52.4776" y="122.579" width="199.326" height="202.637" filterUnits="userSpaceOnUse" color-interpolation-filters="sRGB">
<feFlood flood-opacity="0" result="BackgroundImageFix"/>
<feColorMatrix in="SourceAlpha" type="matrix" values="0 0 0 0 0 0 0 0 0 0 0 0 0 0 0 0 0 0 127 0" result="hardAlpha"/>
<feOffset/>
<feGaussianBlur stdDeviation="3.46823"/>
<feComposite in2="hardAlpha" operator="out"/>
<feColorMatrix type="matrix" values="0 0 0 0 0.137255 0 0 0 0 0.137255 0 0 0 0 0.137255 0 0 0 0.11 0"/>
<feBlend mode="normal" in2="BackgroundImageFix" result="effect1_dropShadow_332_693"/>
<feBlend mode="normal" in="SourceGraphic" in2="effect1_dropShadow_332_693" result="shape"/>
</filter>
<filter id="filter8_d_332_693" x="78.6444" y="149.222" width="146.992" height="126.906" filterUnits="userSpaceOnUse" color-interpolation-filters="sRGB">
<feFlood flood-opacity="0" result="BackgroundImageFix"/>
<feColorMatrix in="SourceAlpha" type="matrix" values="0 0 0 0 0 0 0 0 0 0 0 0 0 0 0 0 0 0 127 0" result="hardAlpha"/>
<feOffset dy="-0.990922"/>
<feGaussianBlur stdDeviation="1.48638"/>
<feComposite in2="hardAlpha" operator="out"/>
<feColorMatrix type="matrix" values="0 0 0 0 0 0 0 0 0 0 0 0 0 0 0 0 0 0 0.05 0"/>
<feBlend mode="normal" in2="BackgroundImageFix" result="effect1_dropShadow_332_693"/>
<feBlend mode="normal" in="SourceGraphic" in2="effect1_dropShadow_332_693" result="shape"/>
</filter>
<filter id="filter9_d_332_693" x="112.129" y="175.098" width="80.0237" height="57.6194" filterUnits="userSpaceOnUse" color-interpolation-filters="sRGB">
<feFlood flood-opacity="0" result="BackgroundImageFix"/>
<feColorMatrix in="SourceAlpha" type="matrix" values="0 0 0 0 0 0 0 0 0 0 0 0 0 0 0 0 0 0 127 0" result="hardAlpha"/>
<feOffset/>
<feGaussianBlur stdDeviation="1.48638"/>
<feComposite in2="hardAlpha" operator="out"/>
<feColorMatrix type="matrix" values="0 0 0 0 0.137255 0 0 0 0 0.137255 0 0 0 0 0.137255 0 0 0 0.2 0"/>
<feBlend mode="normal" in2="BackgroundImageFix" result="effect1_dropShadow_332_693"/>
<feBlend mode="normal" in="SourceGraphic" in2="effect1_dropShadow_332_693" result="shape"/>
</filter>
<linearGradient id="paint0_linear_332_693" x1="49.7335" y1="43.396" x2="73.0445" y2="48.0185" gradientUnits="userSpaceOnUse">
<stop offset="0.223544" stop-color="white"/>
<stop offset="1" stop-color="#F68818"/>
</linearGradient>
<linearGradient id="paint1_linear_332_693" x1="22.9056" y1="46.3912" x2="32.8091" y2="52.7875" gradientUnits="userSpaceOnUse">
<stop stop-color="#FFDAFD"/>
<stop offset="0.508047" stop-color="#FFA6FA"/>
<stop offset="1" stop-color="#F460EC"/>
</linearGradient>
<linearGradient id="paint2_linear_332_693" x1="39.3073" y1="47.3448" x2="51.032" y2="52.6394" gradientUnits="userSpaceOnUse">
<stop stop-color="#FEFEFF"/>
<stop offset="1" stop-color="#8760FF"/>
</linearGradient>
<linearGradient id="paint3_linear_332_693" x1="215.952" y1="43.2151" x2="281.454" y2="139.613" gradientUnits="userSpaceOnUse">
<stop stop-color="#E2D8FF"/>
<stop offset="0.513256" stop-color="#A284FF"/>
<stop offset="1" stop-color="#8760FF" stop-opacity="0.76"/>
</linearGradient>
<linearGradient id="paint4_linear_332_693" x1="349.28" y1="32.2641" x2="361.96" y2="40.4537" gradientUnits="userSpaceOnUse">
<stop stop-color="#E2D8FF"/>
<stop offset="0.513256" stop-color="#A284FF"/>
<stop offset="1" stop-color="#8760FF"/>
</linearGradient>
<linearGradient id="paint5_linear_332_693" x1="301.661" y1="69.6554" x2="291.546" y2="69.6554" gradientUnits="userSpaceOnUse">
<stop offset="0.149245" stop-color="#FFA140"/>
<stop offset="1" stop-color="#EA5CE2"/>
</linearGradient>
<linearGradient id="paint6_linear_332_693" x1="245.052" y1="92.0655" x2="234.937" y2="92.0655" gradientUnits="userSpaceOnUse">
<stop offset="0.149245" stop-color="#FFA140"/>
<stop offset="1" stop-color="#EA5CE2"/>
</linearGradient>
<linearGradient id="paint7_linear_332_693" x1="353.884" y1="94.8425" x2="205.275" y2="94.8425" gradientUnits="userSpaceOnUse">
<stop offset="0.149245" stop-color="#FFA140"/>
<stop offset="1" stop-color="#EA5CE2"/>
</linearGradient>
<linearGradient id="paint8_linear_332_693" x1="357.143" y1="73.6157" x2="351.84" y2="73.6157" gradientUnits="userSpaceOnUse">
<stop offset="0.149245" stop-color="#FFA140"/>
<stop offset="1" stop-color="#EA5CE2"/>
</linearGradient>
<linearGradient id="paint9_linear_332_693" x1="336.32" y1="212.743" x2="318.606" y2="220.571" gradientUnits="userSpaceOnUse">
<stop stop-color="#FFDBB5"/>
<stop offset="0.513256" stop-color="#FFB160"/>
<stop offset="1" stop-color="#FF972C"/>
</linearGradient>
<linearGradient id="paint10_linear_332_693" x1="295.265" y1="196.16" x2="373.51" y2="269.11" gradientUnits="userSpaceOnUse">
<stop offset="0.0825215" stop-color="#F68818"/>
<stop offset="0.935344" stop-color="white"/>
</linearGradient>
<linearGradient id="paint11_linear_332_693" x1="324.289" y1="177.889" x2="385.35" y2="234.366" gradientUnits="userSpaceOnUse">
<stop stop-color="#A284FF"/>
<stop offset="1" stop-color="#E2D8FF"/>
</linearGradient>
<linearGradient id="paint12_linear_332_693" x1="62.905" y1="79.056" x2="90.1755" y2="95.935" gradientUnits="userSpaceOnUse">
<stop stop-color="#FFDAFD"/>
<stop offset="0.508047" stop-color="#FFA6FA"/>
<stop offset="1" stop-color="#F460EC"/>
</linearGradient>
<linearGradient id="paint13_linear_332_693" x1="37.685" y1="81.0207" x2="91.5839" y2="115.091" gradientUnits="userSpaceOnUse">
<stop stop-color="#FFDAFD"/>
<stop offset="0.508047" stop-color="#FFA6FA"/>
<stop offset="1" stop-color="#F460EC"/>
</linearGradient>
<linearGradient id="paint14_linear_332_693" x1="115.098" y1="178.071" x2="191.364" y2="178.071" gradientUnits="userSpaceOnUse">
<stop offset="0.149245" stop-color="#FFA140"/>
<stop offset="1" stop-color="#EA5CE2"/>
</linearGradient>
</defs>
</svg>
