<svg width="410" height="313" viewBox="0 0 410 313" fill="none" xmlns="http://www.w3.org/2000/svg">
<g filter="url(#filter0_d_332_979)">
<path d="M44.9344 244.368C44.8158 243.872 44.7346 243.361 44.694 242.839L45.1449 242.804C45.126 242.56 45.1163 242.314 45.1163 242.065V241.272H44.6641V239.685H45.1163V238.099H44.6641V236.513H45.1163V234.926H44.6641V233.34H45.1163V231.754H44.6641V230.167H45.1163V228.581H44.6641V226.995H45.1163V225.408H44.6641V223.822H45.1163V222.236H44.6641V220.649H45.1163V219.063H44.6641V217.477H45.1163V215.89H44.6641V214.304H45.1163V212.718H44.6641V211.131H45.1163V209.545H44.6641V207.959H45.1163V206.372H44.6641V204.786H45.1163V203.2H44.6641V201.613H45.1163V200.027H44.6641V198.441H45.1163V196.854H44.6641V195.268H45.1163V193.682H44.6641V192.095H45.1163V190.509H44.6641V188.923H45.1163V187.336H44.6641V185.75H45.1163V184.164H44.6641V182.577H45.1163V180.991H44.6641V179.405H45.1163V177.818H44.6641V176.232H45.1163V174.646H44.6641V173.059H45.1163V171.473H44.6641V169.887H45.1163V168.3H44.6641V166.714H45.1163V165.128H44.6641V163.541H45.1163V161.955H44.6641V160.369H45.1163V158.782H44.6641V157.196H45.1163V155.61H44.6641V154.023H45.1163V152.437H44.6641V150.851H45.1163V149.264H44.6641V147.678H45.1163V146.092H44.6641V144.505H45.1163V142.919H44.6641V141.333H45.1163V139.746H44.6641V138.16H45.1163V136.574H44.6641V134.987H45.1163V133.401H44.6641V131.815H45.1163V130.228H44.6641V128.642H45.1163V127.056H44.6641V125.469H45.1163V123.883H44.6641V122.297H45.1163V120.71H44.6641V119.124H45.1163V117.538H44.6641V115.951H45.1163V114.365H44.6641V112.779H45.1163V111.192H44.6641V109.606H45.1163V108.02H44.6641V106.433H45.1163V104.847H44.6641V103.261H45.1163V101.674H44.6641V100.088H45.1163V98.5017H44.6641V96.9154H45.1163V95.329H44.6641V93.7427H45.1163V92.1564H44.6641V90.57H45.1163V89.7769C45.1163 89.5279 45.126 89.2814 45.1449 89.0375L44.694 89.0024C44.7346 88.4805 44.8158 87.9699 44.9344 87.4739L45.3743 87.5791C45.4899 87.0957 45.6429 86.6267 45.83 86.1755L45.4123 86.0023C45.6112 85.5226 45.8469 85.062 46.1159 84.624L46.5013 84.8606C46.7598 84.4396 47.0506 84.0404 47.3702 83.6665L47.0265 83.3727C47.3621 82.9801 47.7281 82.6141 48.1207 82.2784L48.4146 82.6222C48.7885 82.3026 49.1877 82.0118 49.6087 81.7532L49.372 81.3678C49.81 81.0989 50.2706 80.8632 50.7503 80.6643L50.9235 81.082C51.3748 80.8949 51.8437 80.7419 52.3272 80.6262L52.222 80.1864C52.718 80.0677 53.2285 79.9865 53.7505 79.946L53.7855 80.3969C54.0294 80.3779 54.276 80.3682 54.5249 80.3682H55.3227V79.916H56.917V80.3682H58.5113V79.916H60.1057V80.3682H61.7V79.916H63.2944V80.3682H64.8887V79.916H66.483V80.3682H68.0773V79.916H69.6717V80.3682H71.266V79.916H72.8603V80.3682H74.4546V79.916H76.049V80.3682H77.6433V79.916H79.2377V80.3682H80.832V79.916H82.4263V80.3682H84.0206V79.916H85.615V80.3682H87.2093V79.916H88.8036V80.3682H90.3979V79.916H91.9923V80.3682H93.5866V79.916H95.1809V80.3682H96.7753V79.916H98.3696V80.3682H99.9639V79.916H101.558V80.3682H103.153V79.916H104.747V80.3682H106.341V79.916H107.936V80.3682H109.53V79.916H111.124V80.3682H112.719V79.916H114.313V80.3682H115.907V79.916H117.502V80.3682H119.096V79.916H120.69V80.3682H122.285V79.916H123.879V80.3682H125.473V79.916H127.068V80.3682H128.662V79.916H130.256V80.3682H131.851V79.916H133.445V80.3682H135.039V79.916H136.634V80.3682H138.228V79.916H139.822V80.3682H141.417V79.916H143.011V80.3682H144.605V79.916H146.2V80.3682H147.794V79.916H149.388V80.3682H150.983V79.916H152.577V80.3682H154.171V79.916H155.766V80.3682H157.36V79.916H158.954V80.3682H160.549V79.916H162.143V80.3682H163.737V79.916H165.332V80.3682H166.926V79.916H168.52V80.3682H170.115V79.916H171.709V80.3682H173.303V79.916H174.898V80.3682H176.492V79.916H178.086V80.3682H179.681V79.916H181.275V80.3682H182.87V79.916H184.464V80.3682H186.058V79.916H187.653V80.3682H189.247V79.916H190.841V80.3682H192.436V79.916H194.03V80.3682H195.624V79.916H197.219V80.3682H198.813V79.916H200.407V80.3682H202.002V79.916H203.596V80.3682H205.19V79.916H206.785V80.3682H208.379V79.916H209.973V80.3682H211.568V79.916H213.162V80.3682H214.756V79.916H216.351V80.3682H217.945V79.916H219.539V80.3682H221.134V79.916H222.728V80.3682H224.322V79.916H225.917V80.3682H227.511V79.916H229.106V80.3682H230.7V79.916H232.294V80.3682H233.889V79.916H235.483V80.3682H237.077V79.916H238.672V80.3682H240.266V79.916H241.86V80.3682H243.455V79.916H245.049V80.3682H246.643V79.916H248.238V80.3682H249.832V79.916H251.426V80.3682H253.021V79.916H254.615V80.3682H256.209V79.916H257.804V80.3682H259.398V79.916H260.992V80.3682H262.587V79.916H264.181V80.3682H265.775V79.916H267.37V80.3682H268.964V79.916H270.559V80.3682H272.153V79.916H273.747V80.3682H275.342V79.916H276.936V80.3682H278.53V79.916H280.125V80.3682H281.719V79.916H283.313V80.3682H284.908V79.916H286.502V80.3682H288.096V79.916H289.691V80.3682H291.285V79.916H292.879V80.3682H294.474V79.916H296.068V80.3682H297.662V79.916H299.257V80.3682H300.851V79.916H302.445V80.3682H304.04V79.916H305.634V80.3682H307.228V79.916H308.823V80.3682H310.417V79.916H312.011V80.3682H313.606V79.916H315.2V80.3682H316.794V79.916H318.389V80.3682H319.983V79.916H321.578V80.3682H323.172V79.916H324.766V80.3682H326.361V79.916H327.955V80.3682H329.549V79.916H331.144V80.3682H332.738V79.916H334.332V80.3682H335.927V79.916H337.521V80.3682H339.115V79.916H340.71V80.3682H342.304V79.916H343.898V80.3682H345.493V79.916H347.087V80.3682H348.681V79.916H350.276V80.3682H351.87V79.916H353.464V80.3682H355.059V79.916H356.653V80.3682H358.247V79.916H359.842V80.3682H361.436V79.916H363.031V80.3682H364.625V79.916H366.219V80.3682H367.814V79.916H369.408V80.3682H371.002V79.916H372.597V80.3682H374.191V79.916H375.785V80.3682H377.38V79.916H378.974V80.3682H380.568V79.916H382.163V80.3682H383.757V79.916H385.351V80.3682H386.946V79.916H388.54V80.3682H390.134V79.916H391.729V80.3682H392.526C392.775 80.3682 393.021 80.3779 393.265 80.3969L393.3 79.946C393.822 79.9865 394.333 80.0677 394.829 80.1864L394.724 80.6262C395.207 80.7419 395.676 80.8949 396.127 81.082L396.301 80.6643C396.78 80.8632 397.241 81.0989 397.679 81.3678L397.442 81.7532C397.863 82.0118 398.262 82.3026 398.636 82.6222L398.93 82.2784C399.323 82.6141 399.689 82.9801 400.024 83.3727L399.681 83.6666C400 84.0404 400.291 84.4396 400.55 84.8606L400.935 84.624C401.204 85.062 401.44 85.5226 401.638 86.0023L401.221 86.1755C401.408 86.6267 401.561 87.0957 401.677 87.5791L402.116 87.4739C402.235 87.9699 402.316 88.4805 402.357 89.0024L401.906 89.0375C401.925 89.2814 401.935 89.528 401.935 89.7769V90.5699H402.387V92.1563H401.935V93.7426H402.387V95.3289H401.935V96.9153H402.387V98.5016H401.935V100.088H402.387V101.674H401.935V103.261H402.387V104.847H401.935V106.433H402.387V108.02H401.935V109.606H402.387V111.192H401.935V112.779H402.387V114.365H401.935V115.951H402.387V117.538H401.935V119.124H402.387V120.71H401.935V122.297H402.387V123.883H401.935V125.469H402.387V127.056H401.935V128.642H402.387V130.228H401.935V131.815H402.387V133.401H401.935V134.987H402.387V136.574H401.935V138.16H402.387V139.746H401.935V141.333H402.387V142.919H401.935V144.505H402.387V146.092H401.935V147.678H402.387V149.264H401.935V150.851H402.387V152.437H401.935V154.023H402.387V155.61H401.935V157.196H402.387V158.782H401.935V160.369H402.387V161.955H401.935V163.541H402.387V165.128H401.935V166.714H402.387V168.3H401.935V169.887H402.387V171.473H401.935V173.059H402.387V174.646H401.935V176.232H402.387V177.818H401.935V179.405H402.387V180.991H401.935V182.577H402.387V184.164H401.935V185.75H402.387V187.336H401.935V188.923H402.387V190.509H401.935V192.095H402.387V193.682H401.935V195.268H402.387V196.854H401.935V198.441H402.387V200.027H401.935V201.613H402.387V203.2H401.935V204.786H402.387V206.372H401.935V207.959H402.387V209.545H401.935V211.131H402.387V212.718H401.935V214.304H402.387V215.89H401.935V217.477H402.387V219.063H401.935V220.649H402.387V222.236H401.935V223.822H402.387V225.408H401.935V226.995H402.387V228.581H401.935V230.167H402.387V231.754H401.935V233.34H402.387V234.926H401.935V236.513H402.387V238.099H401.935V239.685H402.387V241.272H401.935V242.065C401.935 242.314 401.925 242.56 401.906 242.804L402.357 242.839C402.316 243.361 402.235 243.872 402.116 244.368L401.677 244.263C401.561 244.746 401.408 245.215 401.221 245.666L401.638 245.839C401.44 246.319 401.204 246.78 400.935 247.218L400.55 246.981C400.291 247.402 400 247.801 399.681 248.175L400.024 248.469C399.689 248.862 399.323 249.228 398.93 249.563L398.636 249.22C398.262 249.539 397.863 249.83 397.442 250.088L397.679 250.474C397.241 250.743 396.78 250.979 396.301 251.177L396.127 250.76C395.676 250.947 395.207 251.1 394.724 251.215L394.829 251.655C394.333 251.774 393.822 251.855 393.3 251.896L393.265 251.445C393.021 251.464 392.775 251.473 392.526 251.473H391.728V251.926H390.134V251.473H388.539V251.926H386.945V251.473H385.351V251.926H383.756V251.473H382.162V251.926H380.568V251.473H378.973V251.926H377.379V251.473H375.785V251.926H374.19V251.473H372.596V251.926H371.002V251.473H369.408V251.926H367.813V251.473H366.219V251.926H364.625V251.473H363.03V251.926H361.436V251.473H359.842V251.926H358.247V251.473H356.653V251.926H355.059V251.473H353.464V251.926H351.87V251.473H350.276V251.926H348.681V251.473H347.087V251.926H345.493V251.473H343.898V251.926H342.304V251.473H340.71V251.926H339.115V251.473H337.521V251.926H335.927V251.473H334.332V251.926H332.738V251.473H331.144V251.926H329.549V251.473H327.955V251.926H326.361V251.473H324.766V251.926H323.172V251.473H321.578V251.926H319.983V251.473H318.389V251.926H316.795V251.473H315.2V251.926H313.606V251.473H312.012V251.926H310.417V251.473H308.823V251.926H307.229V251.473H305.634V251.926H304.04V251.473H302.446V251.926H300.851V251.473H299.257V251.926H297.663V251.473H296.068V251.926H294.474V251.473H292.88V251.926H291.285V251.473H289.691V251.926H288.096V251.473H286.502V251.926H284.908V251.473H283.313V251.926H281.719V251.473H280.125V251.926H278.53V251.473H276.936V251.926H275.342V251.473H273.747V251.926H272.153V251.473H270.559V251.926H268.964V251.473H267.37V251.926H265.776V251.473H264.181V251.926H262.587V251.473H260.993V251.926H259.398V251.473H257.804V251.926H256.21V251.473H254.615V251.926H253.021V251.473H251.427V251.926H249.832V251.473H248.238V251.926H246.643V251.473H245.049V251.926H243.455V251.473H241.86V251.926H240.266V251.473H238.672V251.926H237.077V251.473H235.483V251.926H233.889V251.473H232.294V251.926H230.7V251.473H229.106V251.926H227.511V251.473H225.917V251.926H224.323V251.473H222.728V251.926H221.134V251.473H219.54V251.926H217.945V251.473H216.351V251.926H214.757V251.473H213.162V251.926H211.568V251.473H209.974V251.926H208.379V251.473H206.785V251.926H205.191V251.473H203.596V251.926H202.002V251.473H200.407V251.926H198.813V251.473H197.219V251.926H195.624V251.473H194.03V251.926H192.436V251.473H190.841V251.926H189.247V251.473H187.653V251.926H186.058V251.473H184.464V251.926H182.87V251.473H181.275V251.926H179.681V251.473H178.087V251.926H176.492V251.473H174.898V251.926H173.304V251.473H171.709V251.926H170.115V251.473H168.521V251.926H166.926V251.473H165.332V251.926H163.738V251.473H162.143V251.926H160.549V251.473H158.955V251.926H157.36V251.473H155.766V251.926H154.171V251.473H152.577V251.926H150.983V251.473H149.388V251.926H147.794V251.473H146.2V251.926H144.605V251.473H143.011V251.926H141.417V251.473H139.822V251.926H138.228V251.473H136.634V251.926H135.039V251.473H133.445V251.926H131.851V251.473H130.256V251.926H128.662V251.473H127.068V251.926H125.473V251.473H123.879V251.926H122.285V251.473H120.69V251.926H119.096V251.473H117.502V251.926H115.907V251.473H114.313V251.926H112.719V251.473H111.124V251.926H109.53V251.473H107.935V251.926H106.341V251.473H104.747V251.926H103.152V251.473H101.558V251.926H99.9637V251.473H98.3694V251.926H96.7751V251.473H95.1807V251.926H93.5864V251.473H91.992V251.926H90.3977V251.473H88.8033V251.926H87.209V251.473H85.6146V251.926H84.0203V251.473H82.426V251.926H80.8316V251.473H79.2373V251.926H77.6429V251.473H76.0486V251.926H74.4542V251.473H72.8599V251.926H71.2655V251.473H69.6712V251.926H68.0768V251.473H66.4825V251.926H64.8882V251.473H63.2938V251.926H61.6995V251.473H60.1051V251.926H58.5108V251.473H56.9164V251.926H55.3221V251.473H54.5249C54.276 251.473 54.0294 251.464 53.7855 251.445L53.7505 251.896C53.2285 251.855 52.718 251.774 52.222 251.655L52.3272 251.215C51.8437 251.1 51.3748 250.947 50.9235 250.76L50.7503 251.177C50.2706 250.979 49.81 250.743 49.372 250.474L49.6087 250.088C49.1877 249.83 48.7885 249.539 48.4146 249.22L48.1207 249.563C47.7281 249.228 47.3621 248.862 47.0265 248.469L47.3702 248.175C47.0506 247.801 46.7598 247.402 46.5013 246.981L46.1159 247.218C45.8469 246.78 45.6112 246.319 45.4123 245.839L45.83 245.666C45.6429 245.215 45.4899 244.746 45.3743 244.263L44.9344 244.368Z" stroke="url(#paint0_linear_332_979)" stroke-width="0.904464" stroke-dasharray="1.59 1.59" shape-rendering="crispEdges"/>
</g>
<rect width="72.8242" height="58.2593" rx="6.72223" transform="matrix(-1 0 0 1 80.8281 50.541)" fill="url(#paint1_linear_332_979)"/>
<path d="M68.4946 72.9606C68.4946 79.8275 68.4946 86.6934 68.4946 93.5603C68.4816 93.5958 68.4635 93.6303 68.4555 93.6668C68.4415 93.7308 68.4375 93.7968 68.4205 93.8599C68.2943 94.3241 68.064 94.735 67.7456 95.0977C67.3451 95.553 66.8565 95.8871 66.2957 96.1216C65.698 96.3709 65.0722 96.4764 64.4233 96.4764C51.0801 96.4754 37.7368 96.4754 24.3926 96.4744C24.1863 96.4744 23.979 96.4626 23.7738 96.4419C23.0438 96.368 22.372 96.1305 21.7682 95.7176C21.1554 95.2977 20.6958 94.7557 20.4525 94.0531C20.3844 93.857 20.3203 93.6608 20.3203 93.443C20.3243 86.721 20.3233 79.999 20.3233 73.277C20.3233 73.2109 20.3223 73.1449 20.3283 73.0799C20.3313 73.0513 20.3524 73.0257 20.3724 72.9833C20.4795 73.0503 20.5746 73.1085 20.6688 73.1686C24.6459 75.7092 28.6661 78.1818 32.7564 80.543C34.5507 81.5787 36.361 82.5869 38.2044 83.5369C39.3499 84.1272 40.5074 84.6949 41.6989 85.1915C42.2757 85.432 42.8624 85.6468 43.4652 85.8193C44.07 85.9927 44.6708 86.0095 45.2806 85.8499C45.6611 85.7503 46.0375 85.6399 46.407 85.5079C47.3292 85.1787 48.2214 84.7806 49.1035 84.3608C50.7617 83.5734 52.3767 82.7071 53.9778 81.8133C56.6463 80.3232 59.2656 78.7543 61.865 77.1509C64.0228 75.8195 66.1646 74.4625 68.2893 73.0779C68.3544 73.0365 68.4255 73.0001 68.4946 72.9606Z" fill="white"/>
<path d="M68.4963 65.7921C68.4963 66.4879 68.4963 67.1836 68.4963 67.8794C68.4122 67.9435 68.3311 68.0115 68.244 68.0706C66.2894 69.3734 64.3209 70.6545 62.3373 71.915C59.5697 73.6731 56.7811 75.3967 53.9375 77.0346C52.4125 77.9127 50.8735 78.7671 49.2985 79.5545C48.3833 80.0117 47.4581 80.4493 46.5008 80.8169C45.9912 81.013 45.4755 81.1904 44.9368 81.2929C44.6805 81.3422 44.4211 81.3757 44.1618 81.3333C43.9455 81.2978 43.7293 81.2554 43.517 81.2002C42.9292 81.0475 42.3675 80.8218 41.8118 80.5833C40.6503 80.0847 39.5258 79.5111 38.4124 78.9169C36.7482 78.028 35.1151 77.0848 33.495 76.12C30.9277 74.5916 28.3974 73.0049 25.8842 71.3907C24.0808 70.2327 22.2885 69.058 20.5072 67.8666C20.306 67.7326 20.327 67.7671 20.326 67.5345C20.324 67.0161 20.327 66.4977 20.324 65.9794C20.323 65.801 20.344 65.6315 20.3961 65.4581C20.5282 65.0087 20.7475 64.6086 21.0559 64.2558C21.5836 63.6497 22.2535 63.2624 23.0265 63.0387C23.4981 62.9027 23.9807 62.8652 24.4703 62.8652C37.7595 62.8672 51.0487 62.8662 64.3389 62.8672C64.4661 62.8672 64.5922 62.8682 64.7194 62.8721C65.2931 62.8899 65.8419 63.016 66.3655 63.2456C67.0574 63.5501 67.6322 63.9966 68.0417 64.6302C68.258 64.9643 68.4242 65.3211 68.4643 65.7231C68.4663 65.7468 68.4853 65.7695 68.4963 65.7921Z" fill="white"/>
<g filter="url(#filter1_d_332_979)">
<rect x="11.9609" y="158.934" width="155.732" height="140.046" rx="4.48149" fill="#F2F3FD"/>
<rect x="9.72019" y="156.693" width="160.213" height="144.528" rx="6.72223" stroke="white" stroke-width="4.48149"/>
</g>
<g filter="url(#filter2_d_332_979)">
<rect x="20.1797" y="246.217" width="138.586" height="26.902" rx="4.48149" fill="white"/>
</g>
<rect x="56.7734" y="281.055" width="66.1019" height="7.8426" rx="3.36112" fill="#F2F3FD"/>
<g filter="url(#filter3_d_332_979)">
<rect width="138.376" height="56.1681" rx="3.441" transform="matrix(0.999999 0.00174287 0.00167132 0.999999 20.2109 184.611)" fill="white"/>
</g>
<rect width="73.3023" height="14.8215" rx="3.0969" transform="matrix(0.999994 0.00332305 0.00087657 1 27.3203 196.02)" fill="#F2F3FD"/>
<g filter="url(#filter4_d_332_979)">
<rect x="0.175124" y="0.175553" width="74.9581" height="17.8331" rx="3.62191" transform="matrix(0.999994 0.00332305 0.00087657 1 26.3123 194.335)" stroke="url(#paint2_linear_332_979)" stroke-width="0.349943" stroke-dasharray="0.62 0.62" shape-rendering="crispEdges"/>
</g>
<rect width="122.849" height="14.8215" rx="3.0969" transform="matrix(0.999998 0.00198282 0.00146907 0.999999 27.9922 218.135)" fill="#F2F3FD"/>
<g filter="url(#filter5_d_332_979)">
<rect x="0.175228" y="0.175318" width="125.86" height="17.8331" rx="3.62191" transform="matrix(0.999998 0.00198282 0.00146907 0.999999 26.3122 216.451)" stroke="url(#paint3_linear_332_979)" stroke-width="0.349943" stroke-dasharray="0.62 0.62" shape-rendering="crispEdges"/>
</g>
<path d="M37.6579 201.033V204.98H36.5661V201.033H35.1803V200.088H39.0437V201.033H37.6579ZM40.1623 203.098C40.1623 203.406 40.2486 203.658 40.4213 203.854C40.5986 204.045 40.8226 204.141 41.0932 204.141C41.3685 204.141 41.5924 204.045 41.7651 203.854C41.9424 203.658 42.031 203.406 42.031 203.098C42.031 202.79 41.9424 202.538 41.7651 202.342C41.5924 202.146 41.3685 202.048 41.0932 202.048C40.8226 202.048 40.5986 202.146 40.4213 202.342C40.2486 202.538 40.1623 202.79 40.1623 203.098ZM43.0879 203.098C43.0879 203.644 42.8989 204.103 42.5209 204.477C42.143 204.85 41.6671 205.036 41.0932 205.036C40.5239 205.036 40.0503 204.85 39.6724 204.477C39.2945 204.103 39.1055 203.644 39.1055 203.098C39.1055 202.552 39.2945 202.092 39.6724 201.719C40.0503 201.341 40.5239 201.152 41.0932 201.152C41.6671 201.152 42.143 201.341 42.5209 201.719C42.8989 202.092 43.0879 202.552 43.0879 203.098ZM44.0146 204.861C43.898 204.74 43.8396 204.593 43.8396 204.421C43.8396 204.248 43.898 204.103 44.0146 203.987C44.1359 203.865 44.2829 203.805 44.4555 203.805C44.6282 203.805 44.7728 203.865 44.8895 203.987C45.0108 204.103 45.0714 204.248 45.0714 204.421C45.0714 204.593 45.0108 204.74 44.8895 204.861C44.7728 204.978 44.6282 205.036 44.4555 205.036C44.2829 205.036 44.1359 204.978 44.0146 204.861ZM44.0146 203.021C43.898 202.899 43.8396 202.752 43.8396 202.58C43.8396 202.407 43.898 202.263 44.0146 202.146C44.1359 202.025 44.2829 201.964 44.4555 201.964C44.6282 201.964 44.7728 202.025 44.8895 202.146C45.0108 202.263 45.0714 202.407 45.0714 202.58C45.0714 202.752 45.0108 202.899 44.8895 203.021C44.7728 203.137 44.6282 203.196 44.4555 203.196C44.2829 203.196 44.1359 203.137 44.0146 203.021Z" fill="url(#paint4_linear_332_979)"/>
<path d="M36.3407 223.388C36.1587 223.388 36.0141 223.433 35.9068 223.521C35.8041 223.605 35.7528 223.72 35.7528 223.864C35.7528 224.004 35.8158 224.116 35.9418 224.2C36.0724 224.284 36.3687 224.384 36.8306 224.501C37.2972 224.613 37.6588 224.783 37.9155 225.012C38.1721 225.241 38.3004 225.574 38.3004 226.013C38.3004 226.451 38.1347 226.808 37.8035 227.084C37.4769 227.354 37.0453 227.49 36.5087 227.49C35.7341 227.49 35.0366 227.203 34.416 226.629L35.0669 225.831C35.5942 226.293 36.0818 226.524 36.5297 226.524C36.7303 226.524 36.8866 226.482 36.9986 226.398C37.1152 226.309 37.1736 226.192 37.1736 226.048C37.1736 225.899 37.1129 225.782 36.9916 225.698C36.8703 225.609 36.63 225.521 36.2707 225.432C35.7015 225.297 35.2839 225.122 35.0179 224.907C34.7566 224.688 34.626 224.347 34.626 223.885C34.626 223.419 34.7916 223.059 35.1229 222.807C35.4589 222.555 35.8765 222.429 36.3757 222.429C36.7023 222.429 37.0289 222.485 37.3555 222.597C37.6822 222.709 37.9668 222.868 38.2094 223.073L37.6565 223.871C37.2319 223.549 36.7933 223.388 36.3407 223.388ZM41.5049 225.698V223.668H42.5617V227.434H41.5049V226.937C41.2436 227.305 40.9053 227.49 40.49 227.49C40.0794 227.49 39.7342 227.361 39.4542 227.105C39.1743 226.843 39.0343 226.458 39.0343 225.95V223.668H40.0911V225.719C40.0911 226.297 40.3034 226.587 40.728 226.587C40.938 226.587 41.1199 226.512 41.2739 226.363C41.4279 226.209 41.5049 225.987 41.5049 225.698ZM45.7227 223.605C46.18 223.605 46.5789 223.785 46.9195 224.144C47.2602 224.499 47.4305 224.956 47.4305 225.516C47.4305 226.076 47.2555 226.545 46.9055 226.923C46.5556 227.301 46.1567 227.49 45.7087 227.49C45.2655 227.49 44.8969 227.305 44.6029 226.937V227.434H43.5531V222.24H44.6029V224.088C44.8922 223.766 45.2655 223.605 45.7227 223.605ZM44.5889 225.558C44.5889 225.861 44.6729 226.111 44.8409 226.307C45.0135 226.498 45.2212 226.594 45.4638 226.594C45.7064 226.594 45.9187 226.498 46.1007 226.307C46.2826 226.111 46.3736 225.861 46.3736 225.558C46.3736 225.255 46.285 225 46.1077 224.795C45.9304 224.59 45.7181 224.487 45.4708 224.487C45.2235 224.487 45.0135 224.59 44.8409 224.795C44.6729 224.996 44.5889 225.25 44.5889 225.558ZM48.5714 227.504V223.661H49.6212V227.588C49.6212 227.998 49.4952 228.322 49.2433 228.56C48.996 228.798 48.6904 228.917 48.3264 228.917C47.9671 228.917 47.6242 228.768 47.2976 228.469L47.7805 227.693C47.9205 227.856 48.0768 227.938 48.2494 227.938C48.3428 227.938 48.4197 227.9 48.4804 227.826C48.5411 227.756 48.5714 227.648 48.5714 227.504ZM48.6554 223.192C48.5387 223.071 48.4804 222.924 48.4804 222.751C48.4804 222.579 48.5387 222.434 48.6554 222.317C48.7767 222.196 48.9237 222.135 49.0963 222.135C49.2689 222.135 49.4136 222.196 49.5302 222.317C49.6515 222.434 49.7122 222.579 49.7122 222.751C49.7122 222.924 49.6515 223.071 49.5302 223.192C49.4136 223.309 49.2689 223.367 49.0963 223.367C48.9237 223.367 48.7767 223.309 48.6554 223.192ZM53.8749 226.888C53.4503 227.289 52.9511 227.49 52.3772 227.49C51.8079 227.49 51.3367 227.315 50.9634 226.965C50.5901 226.61 50.4035 226.136 50.4035 225.544C50.4035 224.951 50.5925 224.48 50.9704 224.13C51.353 223.78 51.8033 223.605 52.3212 223.605C52.8391 223.605 53.2777 223.762 53.637 224.074C54.0009 224.387 54.1829 224.816 54.1829 225.362V225.922H51.4393C51.472 226.127 51.5793 226.295 51.7613 226.426C51.9432 226.556 52.1485 226.622 52.3772 226.622C52.7458 226.622 53.0491 226.498 53.287 226.251L53.8749 226.888ZM53.1191 225.173C53.0957 224.949 53.0117 224.776 52.8671 224.655C52.7225 224.534 52.5451 224.473 52.3352 224.473C52.1299 224.473 51.9409 224.536 51.7683 224.662C51.5956 224.788 51.4953 224.958 51.4673 225.173H53.1191ZM56.7456 226.559C57.0956 226.559 57.4105 226.384 57.6905 226.034L58.3134 226.734C57.8281 227.238 57.3032 227.49 56.7386 227.49C56.174 227.49 55.6958 227.312 55.3038 226.958C54.9166 226.598 54.7229 226.132 54.7229 225.558C54.7229 224.979 54.9189 224.51 55.3108 224.151C55.7075 223.787 56.1764 223.605 56.7176 223.605C56.9882 223.605 57.2612 223.661 57.5365 223.773C57.8164 223.885 58.0614 224.051 58.2714 224.27L57.7255 224.984C57.6041 224.839 57.4548 224.727 57.2775 224.648C57.1049 224.569 56.9323 224.529 56.7596 224.529C56.4843 224.529 56.2464 224.62 56.0457 224.802C55.8498 224.979 55.7518 225.229 55.7518 225.551C55.7518 225.868 55.8498 226.115 56.0457 226.293C56.2464 226.47 56.4797 226.559 56.7456 226.559ZM60.2663 224.424V226.111C60.2663 226.255 60.3036 226.37 60.3782 226.454C60.4529 226.533 60.5415 226.573 60.6442 226.573C60.8402 226.573 61.0058 226.484 61.1411 226.307L61.5331 227.042C61.2064 227.34 60.8612 227.49 60.4972 227.49C60.1379 227.49 59.8323 227.371 59.5804 227.133C59.3331 226.895 59.2094 226.57 59.2094 226.16V224.424H58.7685V223.668H59.2094V222.541H60.2663V223.668H61.1761V224.424H60.2663ZM62.2429 227.315C62.1263 227.193 62.068 227.046 62.068 226.874C62.068 226.701 62.1263 226.556 62.2429 226.44C62.3643 226.318 62.5112 226.258 62.6839 226.258C62.8565 226.258 63.0012 226.318 63.1178 226.44C63.2391 226.556 63.2998 226.701 63.2998 226.874C63.2998 227.046 63.2391 227.193 63.1178 227.315C63.0012 227.431 62.8565 227.49 62.6839 227.49C62.5112 227.49 62.3643 227.431 62.2429 227.315ZM62.2429 225.474C62.1263 225.353 62.068 225.206 62.068 225.033C62.068 224.86 62.1263 224.716 62.2429 224.599C62.3643 224.478 62.5112 224.417 62.6839 224.417C62.8565 224.417 63.0012 224.478 63.1178 224.599C63.2391 224.716 63.2998 224.86 63.2998 225.033C63.2998 225.206 63.2391 225.353 63.1178 225.474C63.0012 225.591 62.8565 225.649 62.6839 225.649C62.5112 225.649 62.3643 225.591 62.2429 225.474Z" fill="url(#paint5_linear_332_979)"/>
<g filter="url(#filter6_d_332_979)">
<path d="M325.687 122.835C325.687 183.148 277.038 232.041 217.027 232.041C157.016 232.041 108.367 183.148 108.367 122.835C108.367 62.5221 157.016 13.6289 217.027 13.6289C277.038 13.6289 325.687 62.5221 325.687 122.835Z" fill="white"/>
</g>
<g opacity="0.85" filter="url(#filter7_d_332_979)">
<path fill-rule="evenodd" clip-rule="evenodd" d="M216.482 210.2C264.732 210.2 303.847 171.086 303.847 122.835C303.847 74.5853 264.732 35.4707 216.482 35.4707C168.232 35.4707 129.117 74.5853 129.117 122.835C129.117 171.086 168.232 210.2 216.482 210.2ZM216.482 168.598C241.756 168.598 262.244 148.109 262.244 122.836C262.244 97.5616 241.756 77.073 216.482 77.073C191.208 77.073 170.719 97.5616 170.719 122.836C170.719 148.109 191.208 168.598 216.482 168.598Z" fill="#E2D8FF"/>
</g>
<g opacity="0.9" filter="url(#filter8_d_332_979)">
<path d="M320.235 61.1486C321.318 60.5307 321.688 59.1453 321.038 58.0797C305.256 32.209 280.307 12.2259 249.224 3.30846C248.034 2.96718 246.804 3.67837 246.486 4.87417L216.949 115.709C216.437 117.632 218.498 119.222 220.225 118.236L320.235 61.1486Z" fill="url(#paint6_linear_332_979)"/>
</g>
<g filter="url(#filter9_d_332_979)">
<path d="M218.699 149.756C233.455 148.983 244.791 136.393 244.018 121.637C243.244 106.881 230.655 95.5451 215.898 96.3185C201.142 97.0918 189.807 109.681 190.58 124.438C191.353 139.194 203.943 150.529 218.699 149.756Z" fill="url(#paint7_linear_332_979)"/>
</g>
<g filter="url(#filter10_d_332_979)">
<path d="M237.604 122.249C238.179 133.233 229.741 142.605 218.756 143.181C207.771 143.756 198.4 135.318 197.824 124.333C197.249 113.349 205.687 103.977 216.671 103.401C227.656 102.826 237.028 111.264 237.604 122.249Z" stroke="white" stroke-width="3.36112" shape-rendering="crispEdges"/>
</g>
<path d="M216.266 114.752V124.502L226.89 131.172" stroke="white" stroke-width="3.36112" stroke-linecap="round" stroke-linejoin="round"/>
<rect x="121.43" y="263.832" width="87.389" height="7.8426" rx="3.9213" transform="rotate(-180 121.43 263.832)" fill="#F2F3FD"/>
<g filter="url(#filter11_d_332_979)">
<rect x="130.922" y="253.197" width="13.494" height="13.494" rx="6.74698" fill="url(#paint8_linear_332_979)"/>
</g>
<g filter="url(#filter12_d_332_979)">
<path d="M136.794 260.352L135.108 258.84L133.828 260.12L136.794 262.912L141.506 258.259L140.284 257.037L136.794 260.352Z" fill="white"/>
</g>
<g filter="url(#filter13_d_332_979)">
<path d="M357.797 123.601L357.797 224.615" stroke="url(#paint9_linear_332_979)" stroke-width="0.993052" stroke-dasharray="1.75 1.75"/>
</g>
<g filter="url(#filter14_d_332_979)">
<path d="M225.66 251.43L225.66 293.522C225.66 299.007 230.106 303.453 235.591 303.453H327.054C332.538 303.453 336.984 299.007 336.984 293.522L336.984 247.342" stroke="url(#paint10_linear_332_979)" stroke-width="0.993052" stroke-dasharray="1.75 1.75"/>
</g>
<g filter="url(#filter15_d_332_979)">
<ellipse cx="225.756" cy="251.393" rx="13.1388" ry="12.8439" fill="white"/>
</g>
<g filter="url(#filter16_d_332_979)">
<path d="M231.944 251.392C231.944 254.732 229.174 257.44 225.757 257.44C222.34 257.44 219.57 254.732 219.57 251.392C219.57 248.052 222.34 245.344 225.757 245.344C229.174 245.344 231.944 248.052 231.944 251.392Z" fill="#FB952B"/>
</g>
<g filter="url(#filter17_d_332_979)">
<ellipse cx="358.053" cy="123.563" rx="13.1388" ry="12.8439" fill="white"/>
</g>
<path d="M364.241 123.564C364.241 126.904 361.471 129.612 358.054 129.612C354.637 129.612 351.867 126.904 351.867 123.564C351.867 120.223 354.637 117.516 358.054 117.516C361.471 117.516 364.241 120.223 364.241 123.564Z" fill="#F2F3FD"/>
<g filter="url(#filter18_d_332_979)">
<rect x="301.312" y="207.953" width="69.4175" height="73.3339" rx="5.4187" fill="#F2F3FD"/>
<rect x="298.606" y="205.247" width="74.8297" height="78.746" rx="8.12477" stroke="white" stroke-width="5.41214"/>
</g>
<path d="M313.37 255.278C311.758 254.587 311.758 252.303 313.37 251.612L332.089 243.588C334.598 242.513 337.438 242.513 339.946 243.588L358.666 251.612C360.277 252.303 360.277 254.587 358.666 255.278L339.946 263.302C337.438 264.378 334.598 264.378 332.089 263.302L313.37 255.278Z" fill="url(#paint11_linear_332_979)"/>
<path d="M313.37 246.202C311.758 245.511 311.758 243.227 313.37 242.536L332.089 234.512C334.598 233.437 337.438 233.437 339.946 234.512L358.666 242.536C360.277 243.227 360.277 245.511 358.666 246.202L339.946 254.226C337.438 255.301 334.598 255.301 332.089 254.226L313.37 246.202Z" fill="url(#paint12_linear_332_979)"/>
<path d="M313.37 237.63C311.758 236.939 311.758 234.655 313.37 233.964L332.089 225.94C334.598 224.864 337.438 224.864 339.946 225.94L358.666 233.964C360.277 234.655 360.277 236.939 358.666 237.63L339.946 245.654C337.438 246.729 334.598 246.729 332.089 245.654L313.37 237.63Z" fill="url(#paint13_linear_332_979)"/>
<defs>
<filter id="filter0_d_332_979" x="37.2684" y="72.5204" width="372.518" height="186.801" filterUnits="userSpaceOnUse" color-interpolation-filters="sRGB">
<feFlood flood-opacity="0" result="BackgroundImageFix"/>
<feColorMatrix in="SourceAlpha" type="matrix" values="0 0 0 0 0 0 0 0 0 0 0 0 0 0 0 0 0 0 127 0" result="hardAlpha"/>
<feOffset/>
<feGaussianBlur stdDeviation="3.69783"/>
<feComposite in2="hardAlpha" operator="out"/>
<feColorMatrix type="matrix" values="0 0 0 0 1 0 0 0 0 0 0 0 0 0 0.947059 0 0 0 0.75 0"/>
<feBlend mode="normal" in2="BackgroundImageFix" result="effect1_dropShadow_332_979"/>
<feBlend mode="normal" in="SourceGraphic" in2="effect1_dropShadow_332_979" result="shape"/>
</filter>
<filter id="filter1_d_332_979" x="0.760174" y="148.481" width="178.128" height="162.443" filterUnits="userSpaceOnUse" color-interpolation-filters="sRGB">
<feFlood flood-opacity="0" result="BackgroundImageFix"/>
<feColorMatrix in="SourceAlpha" type="matrix" values="0 0 0 0 0 0 0 0 0 0 0 0 0 0 0 0 0 0 127 0" result="hardAlpha"/>
<feMorphology radius="0.746265" operator="dilate" in="SourceAlpha" result="effect1_dropShadow_332_979"/>
<feOffset dy="0.746265"/>
<feGaussianBlur stdDeviation="2.98506"/>
<feComposite in2="hardAlpha" operator="out"/>
<feColorMatrix type="matrix" values="0 0 0 0 0 0 0 0 0 0 0 0 0 0 0 0 0 0 0.09 0"/>
<feBlend mode="normal" in2="BackgroundImageFix" result="effect1_dropShadow_332_979"/>
<feBlend mode="normal" in="SourceGraphic" in2="effect1_dropShadow_332_979" result="shape"/>
</filter>
<filter id="filter2_d_332_979" x="13.4633" y="240.247" width="152.019" height="40.3351" filterUnits="userSpaceOnUse" color-interpolation-filters="sRGB">
<feFlood flood-opacity="0" result="BackgroundImageFix"/>
<feColorMatrix in="SourceAlpha" type="matrix" values="0 0 0 0 0 0 0 0 0 0 0 0 0 0 0 0 0 0 127 0" result="hardAlpha"/>
<feMorphology radius="0.746265" operator="dilate" in="SourceAlpha" result="effect1_dropShadow_332_979"/>
<feOffset dy="0.746265"/>
<feGaussianBlur stdDeviation="2.98506"/>
<feComposite in2="hardAlpha" operator="out"/>
<feColorMatrix type="matrix" values="0 0 0 0 0 0 0 0 0 0 0 0 0 0 0 0 0 0 0.09 0"/>
<feBlend mode="normal" in2="BackgroundImageFix" result="effect1_dropShadow_332_979"/>
<feBlend mode="normal" in="SourceGraphic" in2="effect1_dropShadow_332_979" result="shape"/>
</filter>
<filter id="filter3_d_332_979" x="17.3598" y="182.076" width="144.171" height="62.1144" filterUnits="userSpaceOnUse" color-interpolation-filters="sRGB">
<feFlood flood-opacity="0" result="BackgroundImageFix"/>
<feColorMatrix in="SourceAlpha" type="matrix" values="0 0 0 0 0 0 0 0 0 0 0 0 0 0 0 0 0 0 127 0" result="hardAlpha"/>
<feMorphology radius="0.31766" operator="dilate" in="SourceAlpha" result="effect1_dropShadow_332_979"/>
<feOffset dy="0.31766"/>
<feGaussianBlur stdDeviation="1.27064"/>
<feComposite in2="hardAlpha" operator="out"/>
<feColorMatrix type="matrix" values="0 0 0 0 0 0 0 0 0 0 0 0 0 0 0 0 0 0 0.1 0"/>
<feBlend mode="normal" in2="BackgroundImageFix" result="effect1_dropShadow_332_979"/>
<feBlend mode="normal" in="SourceGraphic" in2="effect1_dropShadow_332_979" result="shape"/>
</filter>
<filter id="filter4_d_332_979" x="23.4511" y="191.486" width="81.0432" height="24.1311" filterUnits="userSpaceOnUse" color-interpolation-filters="sRGB">
<feFlood flood-opacity="0" result="BackgroundImageFix"/>
<feColorMatrix in="SourceAlpha" type="matrix" values="0 0 0 0 0 0 0 0 0 0 0 0 0 0 0 0 0 0 127 0" result="hardAlpha"/>
<feOffset/>
<feGaussianBlur stdDeviation="1.43071"/>
<feComposite in2="hardAlpha" operator="out"/>
<feColorMatrix type="matrix" values="0 0 0 0 1 0 0 0 0 0 0 0 0 0 0.947059 0 0 0 0.75 0"/>
<feBlend mode="normal" in2="BackgroundImageFix" result="effect1_dropShadow_332_979"/>
<feBlend mode="normal" in="SourceGraphic" in2="effect1_dropShadow_332_979" result="shape"/>
</filter>
<filter id="filter5_d_332_979" x="23.4589" y="213.598" width="131.949" height="24.1408" filterUnits="userSpaceOnUse" color-interpolation-filters="sRGB">
<feFlood flood-opacity="0" result="BackgroundImageFix"/>
<feColorMatrix in="SourceAlpha" type="matrix" values="0 0 0 0 0 0 0 0 0 0 0 0 0 0 0 0 0 0 127 0" result="hardAlpha"/>
<feOffset/>
<feGaussianBlur stdDeviation="1.43071"/>
<feComposite in2="hardAlpha" operator="out"/>
<feColorMatrix type="matrix" values="0 0 0 0 1 0 0 0 0 0 0 0 0 0 0.947059 0 0 0 0.75 0"/>
<feBlend mode="normal" in2="BackgroundImageFix" result="effect1_dropShadow_332_979"/>
<feBlend mode="normal" in="SourceGraphic" in2="effect1_dropShadow_332_979" result="shape"/>
</filter>
<filter id="filter6_d_332_979" x="96.9542" y="2.21594" width="240.146" height="241.238" filterUnits="userSpaceOnUse" color-interpolation-filters="sRGB">
<feFlood flood-opacity="0" result="BackgroundImageFix"/>
<feColorMatrix in="SourceAlpha" type="matrix" values="0 0 0 0 0 0 0 0 0 0 0 0 0 0 0 0 0 0 127 0" result="hardAlpha"/>
<feOffset/>
<feGaussianBlur stdDeviation="5.70648"/>
<feComposite in2="hardAlpha" operator="out"/>
<feColorMatrix type="matrix" values="0 0 0 0 0 0 0 0 0 0 0 0 0 0 0 0 0 0 0.11 0"/>
<feBlend mode="normal" in2="BackgroundImageFix" result="effect1_dropShadow_332_979"/>
<feBlend mode="normal" in="SourceGraphic" in2="effect1_dropShadow_332_979" result="shape"/>
</filter>
<filter id="filter7_d_332_979" x="122.395" y="29.4947" width="188.171" height="188.175" filterUnits="userSpaceOnUse" color-interpolation-filters="sRGB">
<feFlood flood-opacity="0" result="BackgroundImageFix"/>
<feColorMatrix in="SourceAlpha" type="matrix" values="0 0 0 0 0 0 0 0 0 0 0 0 0 0 0 0 0 0 127 0" result="hardAlpha"/>
<feOffset dy="0.746265"/>
<feGaussianBlur stdDeviation="3.36112"/>
<feComposite in2="hardAlpha" operator="out"/>
<feColorMatrix type="matrix" values="0 0 0 0 0.884868 0 0 0 0 0.847729 0 0 0 0 1 0 0 0 1 0"/>
<feBlend mode="normal" in2="BackgroundImageFix" result="effect1_dropShadow_332_979"/>
<feBlend mode="normal" in="SourceGraphic" in2="effect1_dropShadow_332_979" result="shape"/>
</filter>
<filter id="filter8_d_332_979" x="207.904" y="0.981912" width="122.418" height="133.24" filterUnits="userSpaceOnUse" color-interpolation-filters="sRGB">
<feFlood flood-opacity="0" result="BackgroundImageFix"/>
<feColorMatrix in="SourceAlpha" type="matrix" values="0 0 0 0 0 0 0 0 0 0 0 0 0 0 0 0 0 0 127 0" result="hardAlpha"/>
<feOffset dy="6.72223"/>
<feGaussianBlur stdDeviation="4.48149"/>
<feComposite in2="hardAlpha" operator="out"/>
<feColorMatrix type="matrix" values="0 0 0 0 0.904131 0 0 0 0 0.512632 0 0 0 0 0.178426 0 0 0 0.43 0"/>
<feBlend mode="normal" in2="BackgroundImageFix" result="effect1_dropShadow_332_979"/>
<feBlend mode="normal" in="SourceGraphic" in2="effect1_dropShadow_332_979" result="shape"/>
</filter>
<filter id="filter9_d_332_979" x="186.755" y="92.9174" width="61.0842" height="61.0803" filterUnits="userSpaceOnUse" color-interpolation-filters="sRGB">
<feFlood flood-opacity="0" result="BackgroundImageFix"/>
<feColorMatrix in="SourceAlpha" type="matrix" values="0 0 0 0 0 0 0 0 0 0 0 0 0 0 0 0 0 0 127 0" result="hardAlpha"/>
<feMorphology radius="0.420478" operator="dilate" in="SourceAlpha" result="effect1_dropShadow_332_979"/>
<feOffset dy="0.420478"/>
<feGaussianBlur stdDeviation="1.68191"/>
<feComposite in2="hardAlpha" operator="out"/>
<feColorMatrix type="matrix" values="0 0 0 0 0.66399 0 0 0 0 0.555599 0 0 0 0 1 0 0 0 1 0"/>
<feBlend mode="normal" in2="BackgroundImageFix" result="effect1_dropShadow_332_979"/>
<feBlend mode="normal" in="SourceGraphic" in2="effect1_dropShadow_332_979" result="shape"/>
</filter>
<filter id="filter10_d_332_979" x="192.333" y="98.3295" width="50.7639" height="50.7639" filterUnits="userSpaceOnUse" color-interpolation-filters="sRGB">
<feFlood flood-opacity="0" result="BackgroundImageFix"/>
<feColorMatrix in="SourceAlpha" type="matrix" values="0 0 0 0 0 0 0 0 0 0 0 0 0 0 0 0 0 0 127 0" result="hardAlpha"/>
<feMorphology radius="0.420478" operator="dilate" in="SourceAlpha" result="effect1_dropShadow_332_979"/>
<feOffset dy="0.420478"/>
<feGaussianBlur stdDeviation="1.68191"/>
<feComposite in2="hardAlpha" operator="out"/>
<feColorMatrix type="matrix" values="0 0 0 0 0.66399 0 0 0 0 0.555599 0 0 0 0 1 0 0 0 1 0"/>
<feBlend mode="normal" in2="BackgroundImageFix" result="effect1_dropShadow_332_979"/>
<feBlend mode="normal" in="SourceGraphic" in2="effect1_dropShadow_332_979" result="shape"/>
</filter>
<filter id="filter11_d_332_979" x="128.444" y="250.72" width="18.4472" height="18.4491" filterUnits="userSpaceOnUse" color-interpolation-filters="sRGB">
<feFlood flood-opacity="0" result="BackgroundImageFix"/>
<feColorMatrix in="SourceAlpha" type="matrix" values="0 0 0 0 0 0 0 0 0 0 0 0 0 0 0 0 0 0 127 0" result="hardAlpha"/>
<feOffset/>
<feGaussianBlur stdDeviation="1.23875"/>
<feComposite in2="hardAlpha" operator="out"/>
<feColorMatrix type="matrix" values="0 0 0 0 1 0 0 0 0 0.795576 0 0 0 0 0.555599 0 0 0 1 0"/>
<feBlend mode="normal" in2="BackgroundImageFix" result="effect1_dropShadow_332_979"/>
<feBlend mode="normal" in="SourceGraphic" in2="effect1_dropShadow_332_979" result="shape"/>
</filter>
<filter id="filter12_d_332_979" x="131.04" y="255.643" width="13.2567" height="11.452" filterUnits="userSpaceOnUse" color-interpolation-filters="sRGB">
<feFlood flood-opacity="0" result="BackgroundImageFix"/>
<feColorMatrix in="SourceAlpha" type="matrix" values="0 0 0 0 0 0 0 0 0 0 0 0 0 0 0 0 0 0 127 0" result="hardAlpha"/>
<feOffset dy="1.39426"/>
<feGaussianBlur stdDeviation="1.39426"/>
<feComposite in2="hardAlpha" operator="out"/>
<feColorMatrix type="matrix" values="0 0 0 0 0 0 0 0 0 0 0 0 0 0 0 0 0 0 0.1 0"/>
<feBlend mode="normal" in2="BackgroundImageFix" result="effect1_dropShadow_332_979"/>
<feBlend mode="normal" in="SourceGraphic" in2="effect1_dropShadow_332_979" result="shape"/>
</filter>
<filter id="filter13_d_332_979" x="349.177" y="115.482" width="17.2401" height="117.254" filterUnits="userSpaceOnUse" color-interpolation-filters="sRGB">
<feFlood flood-opacity="0" result="BackgroundImageFix"/>
<feColorMatrix in="SourceAlpha" type="matrix" values="0 0 0 0 0 0 0 0 0 0 0 0 0 0 0 0 0 0 127 0" result="hardAlpha"/>
<feOffset/>
<feGaussianBlur stdDeviation="4.06002"/>
<feComposite in2="hardAlpha" operator="out"/>
<feColorMatrix type="matrix" values="0 0 0 0 1 0 0 0 0 0 0 0 0 0 0.947059 0 0 0 0.75 0"/>
<feBlend mode="normal" in2="BackgroundImageFix" result="effect1_dropShadow_332_979"/>
<feBlend mode="normal" in="SourceGraphic" in2="effect1_dropShadow_332_979" result="shape"/>
</filter>
<filter id="filter14_d_332_979" x="217.044" y="239.222" width="128.56" height="72.8475" filterUnits="userSpaceOnUse" color-interpolation-filters="sRGB">
<feFlood flood-opacity="0" result="BackgroundImageFix"/>
<feColorMatrix in="SourceAlpha" type="matrix" values="0 0 0 0 0 0 0 0 0 0 0 0 0 0 0 0 0 0 127 0" result="hardAlpha"/>
<feOffset/>
<feGaussianBlur stdDeviation="4.06002"/>
<feComposite in2="hardAlpha" operator="out"/>
<feColorMatrix type="matrix" values="0 0 0 0 1 0 0 0 0 0 0 0 0 0 0.947059 0 0 0 0.75 0"/>
<feBlend mode="normal" in2="BackgroundImageFix" result="effect1_dropShadow_332_979"/>
<feBlend mode="normal" in="SourceGraphic" in2="effect1_dropShadow_332_979" result="shape"/>
</filter>
<filter id="filter15_d_332_979" x="204.504" y="231.337" width="42.5072" height="41.9134" filterUnits="userSpaceOnUse" color-interpolation-filters="sRGB">
<feFlood flood-opacity="0" result="BackgroundImageFix"/>
<feColorMatrix in="SourceAlpha" type="matrix" values="0 0 0 0 0 0 0 0 0 0 0 0 0 0 0 0 0 0 127 0" result="hardAlpha"/>
<feMorphology radius="0.901442" operator="dilate" in="SourceAlpha" result="effect1_dropShadow_332_979"/>
<feOffset dy="0.901442"/>
<feGaussianBlur stdDeviation="3.60577"/>
<feComposite in2="hardAlpha" operator="out"/>
<feColorMatrix type="matrix" values="0 0 0 0 0 0 0 0 0 0 0 0 0 0 0 0 0 0 0.09 0"/>
<feBlend mode="normal" in2="BackgroundImageFix" result="effect1_dropShadow_332_979"/>
<feBlend mode="normal" in="SourceGraphic" in2="effect1_dropShadow_332_979" result="shape"/>
</filter>
<filter id="filter16_d_332_979" x="213.617" y="240.052" width="24.2813" height="24.002" filterUnits="userSpaceOnUse" color-interpolation-filters="sRGB">
<feFlood flood-opacity="0" result="BackgroundImageFix"/>
<feColorMatrix in="SourceAlpha" type="matrix" values="0 0 0 0 0 0 0 0 0 0 0 0 0 0 0 0 0 0 127 0" result="hardAlpha"/>
<feMorphology radius="0.66146" operator="dilate" in="SourceAlpha" result="effect1_dropShadow_332_979"/>
<feOffset dy="0.66146"/>
<feGaussianBlur stdDeviation="2.64584"/>
<feComposite in2="hardAlpha" operator="out"/>
<feColorMatrix type="matrix" values="0 0 0 0 1 0 0 0 0 0.635294 0 0 0 0 0.258824 0 0 0 1 0"/>
<feBlend mode="normal" in2="BackgroundImageFix" result="effect1_dropShadow_332_979"/>
<feBlend mode="normal" in="SourceGraphic" in2="effect1_dropShadow_332_979" result="shape"/>
</filter>
<filter id="filter17_d_332_979" x="336.801" y="103.507" width="42.5072" height="41.9134" filterUnits="userSpaceOnUse" color-interpolation-filters="sRGB">
<feFlood flood-opacity="0" result="BackgroundImageFix"/>
<feColorMatrix in="SourceAlpha" type="matrix" values="0 0 0 0 0 0 0 0 0 0 0 0 0 0 0 0 0 0 127 0" result="hardAlpha"/>
<feMorphology radius="0.901442" operator="dilate" in="SourceAlpha" result="effect1_dropShadow_332_979"/>
<feOffset dy="0.901442"/>
<feGaussianBlur stdDeviation="3.60577"/>
<feComposite in2="hardAlpha" operator="out"/>
<feColorMatrix type="matrix" values="0 0 0 0 0 0 0 0 0 0 0 0 0 0 0 0 0 0 0.09 0"/>
<feBlend mode="normal" in2="BackgroundImageFix" result="effect1_dropShadow_332_979"/>
<feBlend mode="normal" in="SourceGraphic" in2="effect1_dropShadow_332_979" result="shape"/>
</filter>
<filter id="filter18_d_332_979" x="287.495" y="195.071" width="97.0491" height="100.965" filterUnits="userSpaceOnUse" color-interpolation-filters="sRGB">
<feFlood flood-opacity="0" result="BackgroundImageFix"/>
<feColorMatrix in="SourceAlpha" type="matrix" values="0 0 0 0 0 0 0 0 0 0 0 0 0 0 0 0 0 0 127 0" result="hardAlpha"/>
<feMorphology radius="0.933717" operator="dilate" in="SourceAlpha" result="effect1_dropShadow_332_979"/>
<feOffset dy="0.933717"/>
<feGaussianBlur stdDeviation="3.73487"/>
<feComposite in2="hardAlpha" operator="out"/>
<feColorMatrix type="matrix" values="0 0 0 0 0 0 0 0 0 0 0 0 0 0 0 0 0 0 0.09 0"/>
<feBlend mode="normal" in2="BackgroundImageFix" result="effect1_dropShadow_332_979"/>
<feBlend mode="normal" in="SourceGraphic" in2="effect1_dropShadow_332_979" result="shape"/>
</filter>
<linearGradient id="paint0_linear_332_979" x1="402.387" y1="251.926" x2="34.117" y2="251.926" gradientUnits="userSpaceOnUse">
<stop offset="0.149245" stop-color="#FFA140"/>
<stop offset="1" stop-color="#EA5CE2"/>
</linearGradient>
<linearGradient id="paint1_linear_332_979" x1="-14.7497" y1="6.89073" x2="166.008" y2="144.316" gradientUnits="userSpaceOnUse">
<stop stop-color="#CEBEFF"/>
<stop offset="1" stop-color="white" stop-opacity="0"/>
</linearGradient>
<linearGradient id="paint2_linear_332_979" x1="75.3081" y1="18.183" x2="-2.22038" y2="18.183" gradientUnits="userSpaceOnUse">
<stop offset="0.000591176" stop-color="#EA5CE2"/>
<stop offset="1" stop-color="#D93BD1"/>
</linearGradient>
<linearGradient id="paint3_linear_332_979" x1="126.21" y1="18.183" x2="-3.72119" y2="18.183" gradientUnits="userSpaceOnUse">
<stop offset="0.000591176" stop-color="#EA5CE2"/>
<stop offset="1" stop-color="#D93BD1"/>
</linearGradient>
<linearGradient id="paint4_linear_332_979" x1="41.9973" y1="194.98" x2="41.9973" y2="211.778" gradientUnits="userSpaceOnUse">
<stop stop-color="#5C26FF"/>
<stop offset="0.31" stop-color="#5A24FA"/>
<stop offset="0.68" stop-color="#5220EC"/>
<stop offset="1" stop-color="#491AD9"/>
</linearGradient>
<linearGradient id="paint5_linear_332_979" x1="53.2433" y1="217.433" x2="53.2433" y2="233.903" gradientUnits="userSpaceOnUse">
<stop stop-color="#5C26FF"/>
<stop offset="0.31" stop-color="#5A24FA"/>
<stop offset="0.68" stop-color="#5220EC"/>
<stop offset="1" stop-color="#491AD9"/>
</linearGradient>
<linearGradient id="paint6_linear_332_979" x1="299.955" y1="143.507" x2="213.048" y2="120.347" gradientUnits="userSpaceOnUse">
<stop offset="0.149245" stop-color="#FFA140"/>
<stop offset="1" stop-color="#EA5CE2"/>
</linearGradient>
<linearGradient id="paint7_linear_332_979" x1="181.228" y1="95.8258" x2="247.906" y2="132.899" gradientUnits="userSpaceOnUse">
<stop stop-color="#E2D8FF"/>
<stop offset="1" stop-color="#926FFF"/>
</linearGradient>
<linearGradient id="paint8_linear_332_979" x1="131.451" y1="254.207" x2="145.134" y2="263.045" gradientUnits="userSpaceOnUse">
<stop stop-color="#FFDBB5"/>
<stop offset="0.513256" stop-color="#FFB160"/>
<stop offset="1" stop-color="#FF972C"/>
</linearGradient>
<linearGradient id="paint9_linear_332_979" x1="357.797" y1="123.601" x2="357.797" y2="227.594" gradientUnits="userSpaceOnUse">
<stop offset="0.000591176" stop-color="#EA5CE2"/>
<stop offset="1" stop-color="#D93BD1"/>
</linearGradient>
<linearGradient id="paint10_linear_332_979" x1="225.66" y1="303.453" x2="340.267" y2="303.453" gradientUnits="userSpaceOnUse">
<stop offset="0.000591176" stop-color="#EA5CE2"/>
<stop offset="1" stop-color="#D93BD1"/>
</linearGradient>
<linearGradient id="paint11_linear_332_979" x1="311.207" y1="243.632" x2="334.868" y2="279.283" gradientUnits="userSpaceOnUse">
<stop stop-color="#E2D8FF"/>
<stop offset="0.513256" stop-color="#A284FF"/>
<stop offset="1" stop-color="#8760FF" stop-opacity="0.76"/>
</linearGradient>
<linearGradient id="paint12_linear_332_979" x1="311.207" y1="234.556" x2="334.868" y2="270.207" gradientUnits="userSpaceOnUse">
<stop stop-color="#E2D8FF"/>
<stop offset="0.513256" stop-color="#A284FF"/>
<stop offset="1" stop-color="#8760FF" stop-opacity="0.76"/>
</linearGradient>
<linearGradient id="paint13_linear_332_979" x1="311.207" y1="225.984" x2="334.868" y2="261.635" gradientUnits="userSpaceOnUse">
<stop stop-color="#E2D8FF"/>
<stop offset="0.513256" stop-color="#A284FF"/>
<stop offset="1" stop-color="#8760FF" stop-opacity="0.76"/>
</linearGradient>
</defs>
</svg>
