<?xml version="1.0" standalone="no"?>
<!DOCTYPE svg PUBLIC "-//W3C//DTD SVG 20010904//EN"
 "http://www.w3.org/TR/2001/REC-SVG-20010904/DTD/svg10.dtd">
<svg version="1.0" xmlns="http://www.w3.org/2000/svg"
 width="512.000000pt" height="512.000000pt" viewBox="0 0 512.000000 512.000000"
 preserveAspectRatio="xMidYMid meet">
<metadata>
Created by potrace 1.14, written by Peter Selinger 2001-2017
</metadata>
<g transform="translate(0.000000,512.000000) scale(0.100000,-0.100000)"
fill="#000000" stroke="none">
<path d="M1699 5066 c-2 -2 -44 -6 -94 -10 -103 -7 -155 -15 -301 -42 -120
-22 -260 -89 -323 -153 -70 -71 -154 -267 -187 -434 -2 -10 -6 -28 -10 -39 -3
-11 -7 -30 -9 -41 -2 -12 -13 -72 -24 -133 -22 -116 -24 -132 -41 -274 -6 -47
-12 -98 -15 -115 -2 -16 -6 -64 -10 -105 -3 -41 -8 -97 -10 -125 -24 -301 -25
-898 -1 -1120 2 -16 7 -61 10 -100 10 -89 14 -121 21 -168 4 -20 8 -47 10 -60
21 -166 87 -374 148 -465 52 -78 88 -100 190 -116 15 -3 35 -7 45 -10 9 -2 46
-7 82 -11 36 -3 79 -8 95 -10 99 -13 307 -20 570 -20 l300 0 0 -285 c0 -370 9
-509 45 -703 20 -102 25 -121 56 -193 15 -35 61 -84 79 -84 11 0 117 110 236
244 24 27 53 60 64 72 76 85 220 268 287 366 179 257 229 399 192 542 -24 92
-119 268 -198 368 -11 14 -32 41 -46 59 -67 88 -147 178 -289 323 -176 178
-170 172 -231 246 -25 30 -47 57 -50 60 -18 16 -125 157 -173 228 -134 200
-191 351 -191 502 1 138 25 214 137 421 39 74 173 257 291 399 48 58 104 125
124 149 20 25 42 49 47 55 6 6 30 36 55 66 25 30 47 57 50 60 31 28 206 262
247 330 54 90 103 201 103 234 0 14 -3 14 -225 41 -168 20 -269 29 -435 41
-93 7 -616 15 -621 10z"/>
<path d="M3290 4730 c-8 -10 -65 -71 -126 -136 -61 -66 -129 -139 -150 -164
-21 -25 -43 -50 -49 -56 -5 -6 -29 -33 -52 -60 -23 -27 -50 -59 -60 -71 -46
-55 -63 -76 -151 -188 -216 -274 -374 -548 -408 -705 -29 -135 38 -326 201
-575 50 -76 305 -410 325 -425 4 -3 28 -30 55 -60 43 -50 231 -253 296 -321
96 -100 234 -314 279 -434 60 -158 13 -337 -149 -570 -47 -68 -213 -280 -230
-295 -12 -10 -168 -197 -218 -260 -113 -145 -208 -319 -186 -341 8 -7 81 -17
326 -44 213 -23 676 -27 819 -7 245 35 381 100 436 209 92 181 163 555 189
991 14 237 7 697 -12 859 -13 103 -27 198 -30 203 -2 3 -6 25 -10 50 -4 24
-18 79 -32 123 -34 110 -75 179 -125 211 -50 33 -339 64 -605 65 -110 1 -112
1 -108 24 4 23 10 97 22 297 10 154 10 820 1 945 -35 458 -103 703 -209 743
-20 8 -28 6 -39 -8z"/>
</g>
</svg>
