<svg width="46" height="46" viewBox="0 0 46 46" fill="none" xmlns="http://www.w3.org/2000/svg">
<path fill-rule="evenodd" clip-rule="evenodd" d="M33.485 9.96386L36.1451 8.68102C36.5026 8.50932 36.9271 8.57968 37.2472 8.81347L41.0803 12.3941C41.3765 12.6708 41.4659 13.0806 41.3175 13.4476L40.2081 16.1789C41.0104 17.4666 41.6385 18.8526 42.0833 20.312L44.868 21.2823C45.2355 21.4134 45.492 21.7672 45.5047 22.1542L45.6765 27.3873C45.6892 27.7743 45.4564 28.1441 45.0897 28.2908L42.3746 29.4407C42.0265 30.926 41.4906 32.35 40.7745 33.6873L42.0607 36.3404C42.2328 36.6969 42.1623 37.1203 41.893 37.4071L38.303 41.2301C38.0338 41.5169 37.6148 41.6148 37.2468 41.4668L34.5083 40.3602C33.2172 41.1604 31.8276 41.7869 30.3644 42.2306L29.3916 45.008C29.2688 45.3826 28.9141 45.6384 28.526 45.6511L23.2793 45.8225C22.8831 45.8438 22.5205 45.603 22.3652 45.2459L21.2124 42.5379C19.7232 42.1907 18.2954 41.6562 16.9547 40.9419L14.2946 42.2248C13.9371 42.3965 13.5126 42.3261 13.2251 42.0576L9.39203 38.477C9.10455 38.2084 9.00639 37.7905 9.15478 37.4235L10.2653 34.7258C9.46305 33.4381 8.83488 32.0521 8.39009 30.5927L5.60537 29.6224C5.23796 29.4913 4.98146 29.1375 4.96875 28.7505L5.34961 22.9899C5.36519 22.7543 5.51241 22.5476 5.73026 22.4553L8.09012 21.4559C14.1769 18.0289 17.9269 15.7847 15.9314 12.8135V10.5456C17.2224 9.74541 18.6121 9.11888 20.0753 8.67525L21.0481 5.8978C21.1709 5.52321 21.5256 5.26738 21.9136 5.2547L27.1604 5.08335C27.5566 5.06199 27.9191 5.30281 28.0744 5.6599L29.2273 8.36792C30.7165 8.71513 32.1442 9.24964 33.485 9.96386ZM25.3848 33.825C29.9495 33.825 33.6499 30.1342 33.6499 25.5814C33.6499 21.0286 29.9495 17.3379 25.3848 17.3379C20.82 17.3379 17.1196 21.0286 17.1196 25.5814C17.1196 30.1342 20.82 33.825 25.3848 33.825Z" fill="url(#paint0_linear_388_855)"/>
<path fill-rule="evenodd" clip-rule="evenodd" d="M15.561 3.37183L16.9492 2.70237C17.1358 2.61277 17.3573 2.64948 17.5244 2.77149L19.5247 4.64006C19.6792 4.78445 19.7259 4.99829 19.6485 5.18981L19.0695 6.61519C19.4882 7.28717 19.816 8.01047 20.0481 8.77205L21.5013 9.27839C21.6931 9.34685 21.8269 9.53147 21.8336 9.73344L21.9232 12.4643C21.9299 12.6663 21.8084 12.8593 21.617 12.9358L20.2001 13.5359C20.0184 14.311 19.7388 15.0541 19.3651 15.752L20.0363 17.1366C20.1261 17.3226 20.0893 17.5436 19.9488 17.6932L18.0753 19.6883C17.9348 19.8379 17.7162 19.889 17.5242 19.8118L16.095 19.2343C15.4213 19.6519 14.6961 19.9789 13.9325 20.2104L13.4249 21.6598C13.3608 21.8553 13.1757 21.9888 12.9732 21.9954L10.2351 22.0848C10.0284 22.096 9.83917 21.9703 9.75814 21.7839L9.1565 20.3708C8.37937 20.1896 7.63429 19.9106 6.9346 19.5379L5.54642 20.2074C5.35988 20.297 5.13833 20.2602 4.98831 20.1201L2.988 18.2515C2.83798 18.1114 2.78675 17.8933 2.86419 17.7018L3.44373 16.294C3.02506 15.622 2.69725 14.8987 2.46513 14.1371L1.01191 13.6308C0.820174 13.5623 0.686318 13.3777 0.679688 13.1757L0.866301 10.3532C0.881874 10.1176 1.02909 9.91088 1.24695 9.81862L2.30859 9.369C2.49026 8.5939 2.76993 7.85076 3.14362 7.15291L2.47241 5.76835C2.38257 5.58229 2.41938 5.36133 2.55989 5.2117L4.43336 3.21661C4.57387 3.06698 4.79252 3.01589 4.98455 3.09313L6.4006 3.6754C7.07434 3.25782 7.79953 2.93087 8.56311 2.69936L9.07077 1.24993C9.13486 1.05445 9.31997 0.920941 9.52246 0.914328L12.2605 0.824905C12.4673 0.813758 12.6565 0.939434 12.7375 1.12578L13.3391 2.53898C14.1163 2.72017 14.8614 2.99911 15.561 3.37183ZM11.3339 15.8238C13.716 15.8238 15.6471 13.8978 15.6471 11.5219C15.6471 9.14598 13.716 7.21993 11.3339 7.21993C8.95179 7.21993 7.0207 9.14598 7.0207 11.5219C7.0207 13.8978 8.95179 15.8238 11.3339 15.8238Z" fill="url(#paint1_linear_388_855)"/>
<defs>
<linearGradient id="paint0_linear_388_855" x1="36.6771" y1="35.9818" x2="8.24763" y2="8.97812" gradientUnits="userSpaceOnUse">
<stop stop-color="#FFA140"/>
<stop offset="1" stop-color="#FFF3E7"/>
</linearGradient>
<linearGradient id="paint1_linear_388_855" x1="21.9235" y1="22.0855" x2="0.0533349" y2="22.0855" gradientUnits="userSpaceOnUse">
<stop offset="0.149245" stop-color="#FFA140"/>
<stop offset="1" stop-color="#EA5CE2"/>
</linearGradient>
</defs>
</svg>
