<svg width="50" height="48" viewBox="0 0 50 48" fill="none" xmlns="http://www.w3.org/2000/svg">
<rect x="2.35938" y="0.824219" width="45" height="45" rx="22.5" fill="url(#paint0_linear_388_904)"/>
<path d="M29.7636 18.5911C31.37 15.8088 30.4167 12.251 27.6344 10.6447C24.8521 9.03832 21.2944 9.99161 19.688 12.7739C18.0817 15.5562 19.035 19.1139 21.8173 20.7203L17.4544 28.277" stroke="white" stroke-width="1.77093" stroke-linecap="round" stroke-linejoin="round"/>
<path d="M17.2774 23.418C14.0647 23.418 11.4603 26.0224 11.4603 29.2351C11.4603 32.4478 14.0647 35.0523 17.2774 35.0523C20.4902 35.0523 23.0946 32.4478 23.0946 29.2351L31.8203 29.2351" stroke="white" stroke-width="1.77093" stroke-linecap="round" stroke-linejoin="round"/>
<path d="M27.0996 32.0554C28.7059 34.8377 32.2636 35.791 35.0459 34.1847C37.8282 32.5783 38.7815 29.0206 37.1752 26.2383C35.5688 23.456 32.0111 22.5027 29.2288 24.1091L24.8659 16.5524" stroke="white" stroke-width="1.77093" stroke-linecap="round" stroke-linejoin="round"/>
<g filter="url(#filter0_d_388_904)">
<ellipse cx="24.8125" cy="15.7363" rx="3" ry="3" transform="rotate(90 24.8125 15.7363)" fill="white"/>
</g>
<path d="M24.8125 17.2363C23.9841 17.2363 23.3125 16.5648 23.3125 15.7363C23.3125 14.9079 23.9841 14.2363 24.8125 14.2363C25.6409 14.2363 26.3125 14.9079 26.3125 15.7363C26.3125 16.5648 25.6409 17.2363 24.8125 17.2363Z" fill="url(#paint1_linear_388_904)"/>
<g filter="url(#filter1_d_388_904)">
<ellipse cx="32.3125" cy="29.2363" rx="3" ry="3" transform="rotate(90 32.3125 29.2363)" fill="white"/>
</g>
<path d="M32.3125 30.7363C31.4841 30.7363 30.8125 30.0648 30.8125 29.2363C30.8125 28.4079 31.4841 27.7363 32.3125 27.7363C33.1409 27.7363 33.8125 28.4079 33.8125 29.2363C33.8125 30.0648 33.1409 30.7363 32.3125 30.7363Z" fill="url(#paint2_linear_388_904)"/>
<g filter="url(#filter2_d_388_904)">
<ellipse cx="17.3125" cy="29.2363" rx="3" ry="3" transform="rotate(90 17.3125 29.2363)" fill="white"/>
</g>
<path d="M17.3125 30.7363C16.4841 30.7363 15.8125 30.0648 15.8125 29.2363C15.8125 28.4079 16.4841 27.7363 17.3125 27.7363C18.1409 27.7363 18.8125 28.4079 18.8125 29.2363C18.8125 30.0648 18.1409 30.7363 17.3125 30.7363Z" fill="url(#paint3_linear_388_904)"/>
<defs>
<filter id="filter0_d_388_904" x="7.82914" y="0.306672" width="33.9667" height="33.9667" filterUnits="userSpaceOnUse" color-interpolation-filters="sRGB">
<feFlood flood-opacity="0" result="BackgroundImageFix"/>
<feColorMatrix in="SourceAlpha" type="matrix" values="0 0 0 0 0 0 0 0 0 0 0 0 0 0 0 0 0 0 127 0" result="hardAlpha"/>
<feMorphology radius="1.55371" operator="dilate" in="SourceAlpha" result="effect1_dropShadow_388_904"/>
<feOffset dy="1.55371"/>
<feGaussianBlur stdDeviation="6.21483"/>
<feComposite in2="hardAlpha" operator="out"/>
<feColorMatrix type="matrix" values="0 0 0 0 0 0 0 0 0 0 0 0 0 0 0 0 0 0 0.09 0"/>
<feBlend mode="normal" in2="BackgroundImageFix" result="effect1_dropShadow_388_904"/>
<feBlend mode="normal" in="SourceGraphic" in2="effect1_dropShadow_388_904" result="shape"/>
</filter>
<filter id="filter1_d_388_904" x="15.3291" y="13.8067" width="33.9667" height="33.9667" filterUnits="userSpaceOnUse" color-interpolation-filters="sRGB">
<feFlood flood-opacity="0" result="BackgroundImageFix"/>
<feColorMatrix in="SourceAlpha" type="matrix" values="0 0 0 0 0 0 0 0 0 0 0 0 0 0 0 0 0 0 127 0" result="hardAlpha"/>
<feMorphology radius="1.55371" operator="dilate" in="SourceAlpha" result="effect1_dropShadow_388_904"/>
<feOffset dy="1.55371"/>
<feGaussianBlur stdDeviation="6.21483"/>
<feComposite in2="hardAlpha" operator="out"/>
<feColorMatrix type="matrix" values="0 0 0 0 0 0 0 0 0 0 0 0 0 0 0 0 0 0 0.09 0"/>
<feBlend mode="normal" in2="BackgroundImageFix" result="effect1_dropShadow_388_904"/>
<feBlend mode="normal" in="SourceGraphic" in2="effect1_dropShadow_388_904" result="shape"/>
</filter>
<filter id="filter2_d_388_904" x="0.329137" y="13.8067" width="33.9667" height="33.9667" filterUnits="userSpaceOnUse" color-interpolation-filters="sRGB">
<feFlood flood-opacity="0" result="BackgroundImageFix"/>
<feColorMatrix in="SourceAlpha" type="matrix" values="0 0 0 0 0 0 0 0 0 0 0 0 0 0 0 0 0 0 127 0" result="hardAlpha"/>
<feMorphology radius="1.55371" operator="dilate" in="SourceAlpha" result="effect1_dropShadow_388_904"/>
<feOffset dy="1.55371"/>
<feGaussianBlur stdDeviation="6.21483"/>
<feComposite in2="hardAlpha" operator="out"/>
<feColorMatrix type="matrix" values="0 0 0 0 0 0 0 0 0 0 0 0 0 0 0 0 0 0 0.09 0"/>
<feBlend mode="normal" in2="BackgroundImageFix" result="effect1_dropShadow_388_904"/>
<feBlend mode="normal" in="SourceGraphic" in2="effect1_dropShadow_388_904" result="shape"/>
</filter>
<linearGradient id="paint0_linear_388_904" x1="4.12526" y1="4.19257" x2="49.7554" y2="33.6632" gradientUnits="userSpaceOnUse">
<stop stop-color="#FFDBB5"/>
<stop offset="0.513256" stop-color="#FFB160"/>
<stop offset="1" stop-color="#FF972C"/>
</linearGradient>
<linearGradient id="paint1_linear_388_904" x1="23.3125" y1="17.2363" x2="23.3125" y2="14.1479" gradientUnits="userSpaceOnUse">
<stop offset="0.149245" stop-color="#FFA140"/>
<stop offset="1" stop-color="#EA5CE2"/>
</linearGradient>
<linearGradient id="paint2_linear_388_904" x1="30.8125" y1="30.7363" x2="30.8125" y2="27.6479" gradientUnits="userSpaceOnUse">
<stop offset="0.149245" stop-color="#FFA140"/>
<stop offset="1" stop-color="#EA5CE2"/>
</linearGradient>
<linearGradient id="paint3_linear_388_904" x1="15.8125" y1="30.7363" x2="15.8125" y2="27.6479" gradientUnits="userSpaceOnUse">
<stop offset="0.149245" stop-color="#FFA140"/>
<stop offset="1" stop-color="#EA5CE2"/>
</linearGradient>
</defs>
</svg>
