<svg width="46" height="46" viewBox="0 0 46 46" fill="none" xmlns="http://www.w3.org/2000/svg">
<rect x="0.351562" y="0.824219" width="45.0151" height="36.0121" rx="2.97276" fill="url(#paint0_linear_388_892)"/>
<path fill-rule="evenodd" clip-rule="evenodd" d="M39.2457 27.3805L40.6344 26.7108C40.821 26.6212 41.0426 26.6579 41.2097 26.78L43.2107 28.6492C43.3653 28.7936 43.412 29.0075 43.3345 29.1991L42.7554 30.625C43.1742 31.2972 43.5021 32.0207 43.7343 32.7825L45.188 33.289C45.3798 33.3575 45.5137 33.5422 45.5204 33.7442L45.61 36.4761C45.6167 36.6781 45.4952 36.8711 45.3037 36.9477L43.8864 37.548C43.7046 38.3234 43.4249 39.0667 43.0511 39.7648L43.7225 41.1498C43.8124 41.336 43.7755 41.557 43.635 41.7067L41.7609 43.7024C41.6203 43.8521 41.4016 43.9032 41.2095 43.826L39.7799 43.2483C39.1059 43.666 38.3805 43.9931 37.6167 44.2247L36.8251 45.4876C36.761 45.6831 36.5758 45.8167 36.3733 45.8233H34.094C33.8872 45.8344 33.6979 45.7087 33.6169 45.5223L32.839 44.3851C32.0616 44.2039 31.3163 43.9248 30.6164 43.552L29.2277 44.2217C29.0411 44.3113 28.8195 44.2746 28.6694 44.1344L26.6685 42.2652C26.5184 42.125 26.4671 41.9069 26.5446 41.7153L27.1243 40.307C26.7055 39.6348 26.3776 38.9112 26.1454 38.1494L24.6917 37.6429C24.4999 37.5744 24.366 37.3897 24.3594 37.1877L24.5461 34.3641C24.5616 34.1285 24.7089 33.9218 24.9267 33.8295L25.9888 33.3797C26.1706 32.6043 26.4503 31.8609 26.8241 31.1628L26.1527 29.7778C26.0628 29.5917 26.0997 29.3707 26.2402 29.221L28.1143 27.2252C28.2549 27.0755 28.4736 27.0244 28.6657 27.1017L30.0822 27.6842C30.7562 27.2665 31.4816 26.9394 32.2454 26.7078L32.7533 25.2579C32.8174 25.0623 33.0026 24.9288 33.2051 24.9222L35.9441 24.8327C36.1509 24.8216 36.3402 24.9473 36.4212 25.1337L37.0231 26.5474C37.8005 26.7286 38.5458 27.0077 39.2457 27.3805ZM35.0174 39.8366C37.4003 39.8366 39.332 37.9099 39.332 35.5332C39.332 33.1565 37.4003 31.2298 35.0174 31.2298C32.6345 31.2298 30.7027 33.1565 30.7027 35.5332C30.7027 37.9099 32.6345 39.8366 35.0174 39.8366Z" fill="url(#paint1_linear_388_892)"/>
<rect x="3.35156" y="14.3281" width="31.5106" height="3.00101" rx="1.5005" fill="white"/>
<rect x="3.35156" y="20.3301" width="31.5106" height="3.00101" rx="1.5005" fill="white"/>
<path d="M17.6086 9.82768C16.3656 9.82768 15.3579 8.81999 15.3579 7.57693C15.3579 6.33387 16.3656 5.32617 17.6086 5.32617C18.8517 5.32617 19.8594 6.33387 19.8594 7.57693C19.8594 8.81999 18.8517 9.82768 17.6086 9.82768Z" fill="white"/>
<path d="M11.6066 9.82768C10.3635 9.82768 9.35582 8.81999 9.35582 7.57693C9.35582 6.33387 10.3635 5.32617 11.6066 5.32617C12.8496 5.32617 13.8573 6.33387 13.8573 7.57693C13.8573 8.81999 12.8496 9.82768 11.6066 9.82768Z" fill="white"/>
<path d="M5.60457 9.82768C4.36151 9.82768 3.3538 8.81999 3.3538 7.57693C3.3538 6.33387 4.36151 5.32617 5.60457 5.32617C6.84763 5.32617 7.85533 6.33387 7.85533 7.57693C7.85533 8.81999 6.84763 9.82768 5.60457 9.82768Z" fill="white"/>
<defs>
<linearGradient id="paint0_linear_388_892" x1="35.6134" y1="32.3348" x2="0.35156" y2="0.824222" gradientUnits="userSpaceOnUse">
<stop stop-color="#FEEEDE"/>
<stop offset="1" stop-color="#FB952B"/>
</linearGradient>
<linearGradient id="paint1_linear_388_892" x1="45.6103" y1="45.824" x2="23.7328" y2="45.824" gradientUnits="userSpaceOnUse">
<stop offset="0.149245" stop-color="#FFA140"/>
<stop offset="1" stop-color="#EA5CE2"/>
</linearGradient>
</defs>
</svg>
