<svg width="46" height="46" viewBox="0 0 46 46" fill="none" xmlns="http://www.w3.org/2000/svg">
<path d="M42.7552 15.9453H14.1977C13.5092 15.9453 12.8489 16.2102 12.3619 16.6818C11.8752 17.1534 11.6016 17.7929 11.6016 18.4598V38.5751C11.6016 39.2419 11.8752 39.8815 12.3619 40.3529C12.8489 40.8245 13.5092 41.0894 14.1977 41.0894L35.9242 41.1522L41.0839 45.3482C41.551 45.732 42.143 45.9434 42.7552 45.9453C43.1332 45.946 43.5056 45.86 43.8425 45.694C44.2959 45.4979 44.6803 45.1777 44.9483 44.7729C45.2165 44.368 45.3566 43.8961 45.3514 43.4153V18.4598C45.3514 17.7929 45.0779 17.1534 44.591 16.6818C44.1041 16.2102 43.4438 15.9453 42.7552 15.9453Z" fill="url(#paint0_linear_388_845)"/>
<path d="M2.65942 0.945312H28.044C28.656 0.945312 29.243 1.17707 29.6757 1.58971C30.1085 2.00235 30.3516 2.56195 30.3516 3.14546V20.7463C30.3516 21.3298 30.1085 21.8895 29.6757 22.302C29.243 22.7146 28.656 22.9464 28.044 22.9464L8.73151 23.0013L4.1449 26.6728C3.72987 27.0086 3.20368 27.1936 2.65942 27.1953C2.32349 27.1961 1.99228 27.1207 1.69302 26.9754C1.28995 26.8039 0.948236 26.5237 0.709917 26.1695C0.471613 25.8152 0.34709 25.4023 0.351685 24.9816V3.14546C0.351685 2.56195 0.594814 2.00235 1.02759 1.58971C1.46037 1.17707 2.04739 0.945312 2.65942 0.945312Z" fill="url(#paint1_linear_388_845)"/>
<circle cx="16.1016" cy="12.1953" r="2.25" fill="white"/>
<circle cx="8.60156" cy="12.1953" r="2.25" fill="white"/>
<circle cx="23.6016" cy="12.1953" r="2.25" fill="white"/>
<defs>
<linearGradient id="paint0_linear_388_845" x1="22.8516" y1="21.9453" x2="44.787" y2="40.9624" gradientUnits="userSpaceOnUse">
<stop stop-color="#FFDBB5"/>
<stop offset="0.875044" stop-color="#FFAD58"/>
</linearGradient>
<linearGradient id="paint1_linear_388_845" x1="30.3516" y1="27.1953" x2="-0.532958" y2="27.1953" gradientUnits="userSpaceOnUse">
<stop offset="0.149245" stop-color="#FFA140"/>
<stop offset="1" stop-color="#EA5CE2"/>
</linearGradient>
</defs>
</svg>
