<svg width="47" height="46" viewBox="0 0 47 46" fill="none" xmlns="http://www.w3.org/2000/svg">
<path d="M45 23.4453C45 28.3603 43.3907 33.14 40.4179 37.054C37.4452 40.9681 33.2727 43.801 28.538 45.12C23.8034 46.439 18.767 46.1713 14.1988 44.358C9.63063 42.5447 5.78183 39.2854 3.24067 35.0784C0.699525 30.8713 -0.39418 25.9479 0.126722 21.0607C0.647624 16.1734 2.75448 11.5912 6.12527 8.01423C9.49607 4.4373 13.9454 2.06249 18.7931 1.25276C23.6409 0.443032 28.6205 1.24293 32.9708 3.53019L22.5 23.4453H45Z" fill="url(#paint0_linear_388_870)"/>
<g filter="url(#filter0_d_388_870)">
<mask id="path-2-outside-1_388_870" maskUnits="userSpaceOnUse" x="21" y="1.94531" width="25" height="23" fill="black">
<rect fill="white" x="21" y="1.94531" width="25" height="23"/>
<path d="M32.9652 3.52723C36.5931 5.43338 39.6315 8.2942 41.7525 11.8009C43.8734 15.3076 44.9963 19.3269 45 23.4251L22.5 23.4453L32.9652 3.52723Z"/>
</mask>
<path d="M32.9652 3.52723C36.5931 5.43338 39.6315 8.2942 41.7525 11.8009C43.8734 15.3076 44.9963 19.3269 45 23.4251L22.5 23.4453L32.9652 3.52723Z" fill="url(#paint1_linear_388_870)"/>
<path d="M32.9652 3.52723C36.5931 5.43338 39.6315 8.2942 41.7525 11.8009C43.8734 15.3076 44.9963 19.3269 45 23.4251L22.5 23.4453L32.9652 3.52723Z" stroke="white" stroke-width="1.98184" stroke-linejoin="round" mask="url(#path-2-outside-1_388_870)"/>
</g>
<defs>
<filter id="filter0_d_388_870" x="20.5169" y="1.54423" width="26.4662" height="23.8822" filterUnits="userSpaceOnUse" color-interpolation-filters="sRGB">
<feFlood flood-opacity="0" result="BackgroundImageFix"/>
<feColorMatrix in="SourceAlpha" type="matrix" values="0 0 0 0 0 0 0 0 0 0 0 0 0 0 0 0 0 0 127 0" result="hardAlpha"/>
<feOffset/>
<feGaussianBlur stdDeviation="0.495461"/>
<feComposite in2="hardAlpha" operator="out"/>
<feColorMatrix type="matrix" values="0 0 0 0 0 0 0 0 0 0 0 0 0 0 0 0 0 0 0.14 0"/>
<feBlend mode="normal" in2="BackgroundImageFix" result="effect1_dropShadow_388_870"/>
<feBlend mode="normal" in="SourceGraphic" in2="effect1_dropShadow_388_870" result="shape"/>
</filter>
<linearGradient id="paint0_linear_388_870" x1="9" y1="47.4453" x2="33.75" y2="2.44531" gradientUnits="userSpaceOnUse">
<stop stop-color="#F68818"/>
<stop offset="1" stop-color="white"/>
</linearGradient>
<linearGradient id="paint1_linear_388_870" x1="45" y1="0.945314" x2="45" y2="47.2721" gradientUnits="userSpaceOnUse">
<stop offset="0.149245" stop-color="#FFA140"/>
<stop offset="1" stop-color="#EA5CE2"/>
</linearGradient>
</defs>
</svg>
